<svg width="48" height="48" viewBox="0 0 48 48" fill="none" xmlns="http://www.w3.org/2000/svg">
<rect width="48" height="48" rx="10" fill="#DBEDFF"/>
<path d="M24.5 12C17.5948 12 12 17.5948 12 24.5C12 31.4052 17.5948 37 24.5 37C31.4052 37 37 31.4052 37 24.5C37 17.5948 31.4052 12 24.5 12ZM27.378 29.6462L22.9325 26.4153C22.7762 26.2994 22.6855 26.1179 22.6855 25.9264V17.4435C22.6855 17.1109 22.9577 16.8387 23.2903 16.8387H25.7097C26.0423 16.8387 26.3145 17.1109 26.3145 17.4435V24.3841L29.5151 26.7127C29.7873 26.9093 29.8427 27.2873 29.6462 27.5595L28.2248 29.5151C28.0282 29.7823 27.6502 29.8427 27.378 29.6462Z" fill="#494CA2"/>
</svg>
