<svg width="48" height="48" viewBox="0 0 48 48" fill="none" xmlns="http://www.w3.org/2000/svg">
<rect opacity="0.2" width="48" height="48" rx="10" fill="#1DE2CF"/>
<path d="M23.5 12C16.5963 12 11 17.5963 11 24.5C11 31.4037 16.5963 37 23.5 37C30.4037 37 36 31.4037 36 24.5C36 17.5963 30.4037 12 23.5 12ZM27.6477 30.0242C27.4511 30.2198 27.245 30.4249 27.0776 30.5927C26.9269 30.744 26.8206 30.9304 26.7666 31.1326C26.6905 31.4178 26.629 31.7061 26.5262 31.9829L25.6497 34.3443C24.9561 34.4955 24.2384 34.5806 23.5 34.5806V33.2006C23.5852 32.5645 23.1149 31.373 22.3594 30.6174C22.057 30.315 21.8871 29.9047 21.8871 29.4768V27.8634C21.8871 27.2767 21.5711 26.7374 21.0575 26.4536C20.3332 26.0529 19.3029 25.4929 18.5973 25.1376C18.0186 24.8463 17.4834 24.4753 17.002 24.0413L16.9617 24.005C16.6175 23.6943 16.3119 23.3434 16.0514 22.9597C15.5786 22.2656 14.8085 21.124 14.308 20.3821C15.3397 18.0887 17.1991 16.247 19.5096 15.2465L20.7198 15.8518C21.256 16.12 21.8871 15.7303 21.8871 15.1305V14.561C22.2898 14.496 22.6996 14.4546 23.1164 14.439L24.5428 15.8654C24.8579 16.1804 24.8579 16.691 24.5428 17.006L24.3065 17.2419L23.7853 17.7631C23.628 17.9204 23.628 18.1759 23.7853 18.3332L24.0217 18.5696C24.1789 18.7268 24.1789 18.9824 24.0217 19.1396L23.6184 19.5428C23.5427 19.6184 23.4401 19.6608 23.3332 19.6608H22.88C22.7752 19.6608 22.6744 19.7016 22.5988 19.7752L22.0988 20.2616C22.0375 20.3213 21.9968 20.3989 21.9824 20.4832C21.9681 20.5676 21.981 20.6543 22.0192 20.7308L22.8049 22.3029C22.939 22.5711 22.744 22.8866 22.4446 22.8866H22.1603C22.063 22.8866 21.9693 22.8513 21.8962 22.7878L21.4284 22.3816C21.3226 22.2897 21.1947 22.227 21.0572 22.1996C20.9198 22.1722 20.7776 22.1811 20.6447 22.2253L19.0736 22.749C18.9536 22.789 18.8493 22.8657 18.7754 22.9683C18.7015 23.0709 18.6618 23.1941 18.6618 23.3206C18.6618 23.5489 18.7908 23.7571 18.995 23.8594L19.5534 24.1386C20.0277 24.376 20.5509 24.4995 21.0811 24.4995C21.6114 24.4995 22.2198 25.875 22.6941 26.1124H26.0585C26.4864 26.1124 26.8962 26.2823 27.1991 26.5847L27.8891 27.2747C28.1774 27.5631 28.3393 27.9541 28.3392 28.3619C28.3391 28.6709 28.278 28.9768 28.1593 29.262C28.0406 29.5473 27.8668 29.8063 27.6477 30.0242ZM32.0181 25.4199C31.7263 25.3468 31.4718 25.1678 31.3049 24.9173L30.3987 23.558C30.2661 23.3594 30.1953 23.1259 30.1953 22.8871C30.1953 22.6483 30.2661 22.4148 30.3987 22.2162L31.3861 20.7354C31.503 20.5605 31.6633 20.4183 31.8518 20.3246L32.506 19.9975C33.1875 21.3543 33.5806 22.8805 33.5806 24.5C33.5806 24.937 33.5433 25.3649 33.4889 25.7873L32.0181 25.4199Z" fill="#1DE2CF"/>
</svg>
