<svg width="62" height="37" viewBox="0 0 62 37" fill="none" xmlns="http://www.w3.org/2000/svg">
<path d="M42.1116 0H33.79C33.015 0 32.2691 0.288958 31.6975 0.809082L22.1747 9.47781C22.165 9.48744 22.1553 9.50671 22.1456 9.51634C20.5375 11.0189 20.5666 13.4173 21.9422 14.9102C23.1725 16.2491 25.7591 16.6054 27.3769 15.1703C27.3866 15.1606 27.4059 15.1606 27.4156 15.151L35.1559 8.10045C35.7856 7.53216 36.7738 7.57069 37.3453 8.19677C37.9266 8.82284 37.8781 9.79566 37.2484 10.3736L34.72 12.6756L48.825 24.0605C49.1059 24.2917 49.3578 24.5421 49.5903 24.8022V6.16443L44.3009 0.905401C43.7294 0.327486 42.935 0 42.1116 0ZM52.7 6.18369V27.7496C52.7 29.4544 54.0853 30.8318 55.8 30.8318H62V6.18369H52.7ZM57.35 27.7496C56.4975 27.7496 55.8 27.0561 55.8 26.2085C55.8 25.3609 56.4975 24.6674 57.35 24.6674C58.2025 24.6674 58.9 25.3609 58.9 26.2085C58.9 27.0561 58.2025 27.7496 57.35 27.7496ZM0 30.8222H6.2C7.91469 30.8222 9.3 29.4448 9.3 27.7399V6.18369H0V30.8222ZM4.65 24.6674C5.5025 24.6674 6.2 25.3609 6.2 26.2085C6.2 27.0561 5.5025 27.7496 4.65 27.7496C3.7975 27.7496 3.1 27.0561 3.1 26.2085C3.1 25.3512 3.7975 24.6674 4.65 24.6674ZM46.8778 26.4589L32.4144 14.785L29.5081 17.4338C26.6309 20.044 22.2231 19.7936 19.6559 17.01C17.05 14.1782 17.2534 9.79566 20.0822 7.21431L28.0066 0H19.8884C19.065 0 18.2803 0.327486 17.6991 0.905401L12.4 6.16443V27.7303H14.1728L22.94 35.6189C25.5944 37.7668 29.4984 37.3622 31.6587 34.7231L31.6781 34.7038L33.4122 36.1968C34.9525 37.4489 37.2291 37.2081 38.4787 35.6766L41.5206 31.9587L42.0437 32.3825C43.3709 33.4517 45.3278 33.259 46.4031 31.9298L47.3234 30.8029C48.4084 29.4737 48.205 27.5377 46.8778 26.4589Z" fill="white"/>
</svg>
