<svg width="43" height="33" viewBox="0 0 43 33" fill="none" xmlns="http://www.w3.org/2000/svg">
<path d="M0 29.4643C0 31.4163 1.60503 33 3.58333 33H39.4167C41.395 33 43 31.4163 43 29.4643V16.5H0V29.4643ZM14.3333 24.4554C14.3333 23.9692 14.7365 23.5714 15.2292 23.5714H25.3819C25.8747 23.5714 26.2778 23.9692 26.2778 24.4554V27.4018C26.2778 27.8879 25.8747 28.2857 25.3819 28.2857H15.2292C14.7365 28.2857 14.3333 27.8879 14.3333 27.4018V24.4554ZM4.77778 24.4554C4.77778 23.9692 5.1809 23.5714 5.67361 23.5714H11.0486C11.5413 23.5714 11.9444 23.9692 11.9444 24.4554V27.4018C11.9444 27.8879 11.5413 28.2857 11.0486 28.2857H5.67361C5.1809 28.2857 4.77778 27.8879 4.77778 27.4018V24.4554ZM43 3.53571V7.07143H0V3.53571C0 1.58371 1.60503 0 3.58333 0H39.4167C41.395 0 43 1.58371 43 3.53571Z" fill="white"/>
</svg>
