<svg width="43" height="33" viewBox="0 0 43 33" fill="none" xmlns="http://www.w3.org/2000/svg">
<path d="M27.95 21.5H31.175C31.7125 21.5 32.25 20.9625 32.25 20.425V9.1375C32.25 8.6 31.7125 8.0625 31.175 8.0625H27.95C27.4125 8.0625 26.875 8.6 26.875 9.1375V20.425C26.875 20.9625 27.4125 21.5 27.95 21.5ZM36.0125 21.5H39.2375C39.775 21.5 40.3125 20.9625 40.3125 20.425V1.075C40.3125 0.5375 39.775 0 39.2375 0H36.0125C35.475 0 34.9375 0.5375 34.9375 1.075V20.425C34.9375 20.9625 35.475 21.5 36.0125 21.5ZM11.825 21.5H15.05C15.5875 21.5 16.125 20.9625 16.125 20.425V14.5125C16.125 13.975 15.5875 13.4375 15.05 13.4375H11.825C11.2875 13.4375 10.75 13.975 10.75 14.5125V20.425C10.75 20.9625 11.2875 21.5 11.825 21.5ZM19.8875 21.5H23.1125C23.65 21.5 24.1875 20.9625 24.1875 20.425V3.7625C24.1875 3.225 23.65 2.6875 23.1125 2.6875H19.8875C19.35 2.6875 18.8125 3.225 18.8125 3.7625V20.425C18.8125 20.9625 19.35 21.5 19.8875 21.5ZM41.6562 26.875H5.375V1.34375C5.375 0.601328 4.77367 0 4.03125 0H1.34375C0.601328 0 0 0.601328 0 1.34375V29.5625C0 31.0465 1.2035 32.25 2.6875 32.25H41.6562C42.3987 32.25 43 31.6487 43 30.9062V28.2188C43 27.4763 42.3987 26.875 41.6562 26.875Z" fill="white"/>
</svg>
