<svg xmlns="http://www.w3.org/2000/svg" viewBox="0 0 1024.92 192.01"><defs><style>.cls-1{fill:#adb3b7;}.cls-2{fill:#1a75ff;}.cls-3{fill:#3bb900;}.cls-4{fill:#f49200;}.cls-5{fill:#ff1a43;}</style></defs><g id="Layer_2" data-name="Layer 2"><g id="Layer_1-2" data-name="Layer 1"><path class="cls-1" d="M43.54,191.59l-7.28-.05-5.41-8.87H15.49l3.4-5.53h8.55L21.83,168,7.24,191.59H0l17.58-28.72a7.45,7.45,0,0,1,1.84-2A4.39,4.39,0,0,1,22,159.76a4.24,4.24,0,0,1,2.55,1,7.51,7.51,0,0,1,1.85,2.09Z"/><polygon class="cls-1" points="61.4 171.31 61.4 191.59 67.04 191.59 67.04 167.43 61.4 171.31"/><polygon class="cls-1" points="67.04 159.85 61.4 159.85 61.4 168.52 67.04 164.63 67.04 159.85"/><path class="cls-1" d="M166.43,191.65h-6.35l-4.69-22.23-10.85,20.5a3.34,3.34,0,0,1-3,2.09,3.59,3.59,0,0,1-3.32-2.14l-10.85-20.44-4.64,22.22h-6.39l7.22-29.15a4.23,4.23,0,0,1,1.25-2.18,3.12,3.12,0,0,1,2.24-.93c1.23,0,2.39,1,3.5,3.14l10.83,20.81,10.87-20.84c1.11-2.07,2.27-3.11,3.5-3.11a3.26,3.26,0,0,1,2.28,1,4.53,4.53,0,0,1,1.23,2.13Z"/><path class="cls-1" d="M228.25,191.59l-7.27-.05-5.41-8.87H200.2l3.41-5.53h8.55L206.55,168,192,191.59h-7.25l17.58-28.72a7.49,7.49,0,0,1,1.85-2,4.39,4.39,0,0,1,2.55-1.07,4.22,4.22,0,0,1,2.56,1,7.35,7.35,0,0,1,1.85,2.09Z"/><path class="cls-1" d="M283.06,191.59h-8.28l-9-8.92H253.55v-5.53h15.16a9.55,9.55,0,0,0,5.26-1.35,5,5,0,0,0,2.42-4.48c0-3.95-2.57-5.93-7.68-5.93H250.23v26.21H244.6V159.85h23.21q6.26,0,10.09,2.66a10.89,10.89,0,0,1,1.84,15.78,12.72,12.72,0,0,1-6.47,3.78Z"/><path class="cls-1" d="M308.27,191.59h-5.64V159.85h5.64Zm27,0H327L311,178.44a3.7,3.7,0,0,1-1.66-2.56c0-.74.55-1.58,1.66-2.51L327,159.85h8.29L316,176Z"/><path class="cls-1" d="M381.08,191.59H353.13V159.85h27.95v5.53H358.77v20.68h22.31Zm-1.47-13.33H361.14v-5.53h18.47Z"/><path class="cls-1" d="M430.69,165.38H417.94v26.21h-5.58V165.38h-12.8v-5.53h31.13Z"/><path class="cls-1" d="M455.32,191.59h-5.64V159.85h5.64Z"/><path class="cls-1" d="M509.47,188.85c0,2.05-.72,3.07-2.14,3.07a5.44,5.44,0,0,1-3.51-1.89l-20.74-20.46v22h-5.59v-29a3,3,0,0,1,.62-1.92,2,2,0,0,1,1.75-.82,4.72,4.72,0,0,1,3.22,1.63l20.75,20.4v-22h5.64Z"/><path class="cls-1" d="M567.36,191.59H546.8a15.75,15.75,0,0,1-16.29-16.22,14.69,14.69,0,0,1,4.56-11.24,16.53,16.53,0,0,1,11.73-4.28H565v5.53H546.8a10.54,10.54,0,0,0-7.65,2.93,10.06,10.06,0,0,0-3,7.53,9.71,9.71,0,0,0,3,7.39,10.72,10.72,0,0,0,7.65,2.83h14.93v-6.92H546.37v-5.07h21Z"/><path class="cls-1" d="M651.5,171.29a10.4,10.4,0,0,1-3.88,8.41,13.72,13.72,0,0,1-9,3H624.31v-5.53h15.16a7,7,0,0,0,4.69-1.62,5.4,5.4,0,0,0,1.89-4.31,5.26,5.26,0,0,0-1.89-4.26,7.16,7.16,0,0,0-4.69-1.57H621v26.21h-5.64V159.85h23.22a13.64,13.64,0,0,1,9,3A10.33,10.33,0,0,1,651.5,171.29Z"/><path class="cls-1" d="M696.22,191.59h-27.9V159.85H674v26.21h22.26Z"/><path class="cls-1" d="M756.25,191.59l-7.27-.05-5.41-8.87H728.2l3.41-5.53h8.54L734.54,168l-14.6,23.57h-7.23l17.57-28.72a7.53,7.53,0,0,1,1.86-2,4.37,4.37,0,0,1,2.56-1.07,4.21,4.21,0,0,1,2.55,1,7.35,7.35,0,0,1,1.85,2.09Z"/><path class="cls-1" d="M794.25,165.38H781.49v26.21h-5.58V165.38H763.12v-5.53h31.13Z"/><path class="cls-1" d="M840.25,165.38H817.93v26.21h-5.64V159.85h28Zm-1.47,12.88H820.3v-5.53h18.48Z"/><path class="cls-1" d="M900.32,175.37A15.74,15.74,0,0,1,884,191.59H875a15.77,15.77,0,0,1-16.29-16.22,14.67,14.67,0,0,1,4.57-11.24A16.47,16.47,0,0,1,875,159.85H884a16.5,16.5,0,0,1,11.75,4.28A14.75,14.75,0,0,1,900.32,175.37Zm-5.59.47a10.06,10.06,0,0,0-3-7.53,10.59,10.59,0,0,0-7.69-2.93H875a10.5,10.5,0,0,0-7.64,2.93,10,10,0,0,0-3,7.53,9.65,9.65,0,0,0,3,7.39,10.68,10.68,0,0,0,7.64,2.83H884a10.77,10.77,0,0,0,7.69-2.83A9.72,9.72,0,0,0,894.73,175.84Z"/><path class="cls-1" d="M957.06,191.59h-8.27l-9.06-8.92H927.55v-5.53h15.16a9.58,9.58,0,0,0,5.27-1.35,5,5,0,0,0,2.41-4.48q0-5.92-7.68-5.93H924.24v26.21H918.6V159.85h23.21q6.27,0,10.1,2.66a10.9,10.9,0,0,1,1.83,15.78,12.67,12.67,0,0,1-6.47,3.78Z"/><path class="cls-1" d="M1024.92,191.65h-6.36l-4.68-22.23L1003,189.92a3.34,3.34,0,0,1-3,2.09,3.57,3.57,0,0,1-3.31-2.14l-10.85-20.44-4.64,22.22h-6.41L982,162.5a4.25,4.25,0,0,1,1.26-2.18,3.14,3.14,0,0,1,2.24-.93c1.23,0,2.39,1,3.49,3.14l10.84,20.81,10.87-20.84c1.11-2.07,2.27-3.11,3.5-3.11a3.18,3.18,0,0,1,2.27,1,4.53,4.53,0,0,1,1.23,2.13Z"/><path class="cls-2" d="M155.2,134.66H135.62L121.16,66.15,87.7,129.36q-3.36,6.45-9.35,6.45-6.72,0-10.23-6.6L34.67,66.16l-14.32,68.5H.63L22.9,44.8a13.21,13.21,0,0,1,3.86-6.73,9.67,9.67,0,0,1,6.92-2.88c3.79,0,7.38,3.24,10.77,9.68l33.41,64.2,33.52-64.26q5.12-9.62,10.81-9.62a10.07,10.07,0,0,1,7,3A14.14,14.14,0,0,1,133,44.8Z"/><path class="cls-3" d="M290.61,135.81H265.06l-27.91-27.52H199.61V91.23h46.75q9.64,0,16.21-4.14A15.57,15.57,0,0,0,270,73.24Q270,55,246.36,55h-57v80.84H172V37.92h71.58q19.29,0,31.12,8.18,13.59,9.34,13.59,27.43a30.89,30.89,0,0,1-7.93,21.25q-7.33,8.34-20,11.63Z"/><path class="cls-4" d="M324.52,135.81H307.13V37.92h17.39Zm83.38,0H382.37L332.85,95.25q-5.12-4.31-5.12-7.89t5.12-7.74l49.52-41.7h25.56l-59.5,49.92Z"/><path class="cls-5" d="M508.89,55h-39.3v80.84H452.35V55H412.9v-17h96Z"/><path class="cls-2" d="M765.61,107.43A24.16,24.16,0,0,1,762,120.18q-10.08,15.63-36.08,15.63H654.28V118.74h74.21a34.9,34.9,0,0,0,12.72-2.15q7.59-3.14,7.6-9t-7.6-9.18a34,34,0,0,0-12.72-2.29h-46.6v-17h46.6a31.21,31.21,0,0,0,13-2.58q7.31-3.3,7.31-9.61c0-4.1-2.44-7.26-7.31-9.45a32.7,32.7,0,0,0-13-2.44H654.28v-17h71.59q26,0,36.08,16a25.12,25.12,0,0,1,3.66,13q0,12.19-10.53,20.5Q765.61,95.54,765.61,107.43Z"/><path class="cls-2" d="M895.19,105.28q0,12.47-6.58,21.06a23.86,23.86,0,0,1-19.72,9.47H834q-21.76,0-36-14.2T783.72,85.79q0-21.51,14.1-34.69T834,37.92h50.85V55H834a34.57,34.57,0,0,0-18.84,5.16A29.15,29.15,0,0,0,803.29,75h65.6q12.42,0,19.72,9.31Q895.2,92.81,895.19,105.28Zm-16.22.28a19.88,19.88,0,0,0-2.33-9.6q-2.79-5.29-7.75-5.3H801.25q1.32,12.9,10.37,20.49t22.35,7.6h34.92a8.53,8.53,0,0,0,7.75-4.3A16,16,0,0,0,879,105.56Z"/><path class="cls-2" d="M1024.92,105.56q0,13.92-10.23,22.36-9.5,7.89-24,7.89H914.62V118.75h76.11a23.3,23.3,0,0,0,12.27-3.16q6.13-3.86,6.14-10.45T1003,95a24.21,24.21,0,0,0-12.27-3H914.62v-54h104.31V55H931.56V74.89h59.17q14.31,0,24,8.18Q1024.92,91.67,1024.92,105.56Z"/><path class="cls-3" d="M647.66,49,624.93,14.33a4.47,4.47,0,0,1-.9.84L646.71,49.8A4.16,4.16,0,0,1,647.66,49Z"/><path class="cls-2" d="M612.17,77.41a3.3,3.3,0,1,1-3.29-3.23A3.25,3.25,0,0,1,612.17,77.41Z"/><path class="cls-2" d="M618.68,104.44l28-28.36a5.26,5.26,0,0,1-1.21-.82l-27.9,28.29A5.21,5.21,0,0,1,618.68,104.44Z"/><path class="cls-2" d="M628.2,61l-3.81-19.68a3.81,3.81,0,0,1-1,.37l3.79,19.62A3.92,3.92,0,0,1,628.2,61Z"/><path class="cls-2" d="M630.8,61.59a3.3,3.3,0,1,1-3.3-3.23A3.27,3.27,0,0,1,630.8,61.59Z"/><path class="cls-2" d="M649.86,49.12a3.29,3.29,0,1,1-3.28-3.23A3.25,3.25,0,0,1,649.86,49.12Z"/><path class="cls-2" d="M648.73,75.85a3.3,3.3,0,1,1-3.29-3.24A3.25,3.25,0,0,1,648.73,75.85Z"/><path class="cls-2" d="M615.69,133.65a3.29,3.29,0,1,1-3.29-3.23A3.26,3.26,0,0,1,615.69,133.65Z"/><path class="cls-2" d="M631.47,75.63a3.29,3.29,0,1,1-3.29-3.24A3.25,3.25,0,0,1,631.47,75.63Z"/><path class="cls-2" d="M621.48,103.92a3.29,3.29,0,1,1-3.29-3.24A3.26,3.26,0,0,1,621.48,103.92Z"/><path class="cls-2" d="M597.18,95a3.29,3.29,0,1,1-3.29-3.23A3.26,3.26,0,0,1,597.18,95Z"/><path class="cls-2" d="M612.75,134.36l6.11-30.57a2.74,2.74,0,0,1-1,0l-6.05,30.09A3.38,3.38,0,0,1,612.75,134.36Z"/><path class="cls-2" d="M643.94,73.66,627.77,61.44a3.7,3.7,0,0,1-.48.9l16.12,12.18A3.33,3.33,0,0,1,643.94,73.66Z"/><path class="cls-2" d="M646.4,73.27l.67-24.62a4.68,4.68,0,0,1-1.28.2l-.66,24.55A4.57,4.57,0,0,1,646.4,73.27Z"/><path class="cls-2" d="M612.49,132.63,594.1,95.56a4.5,4.5,0,0,1-1,.73l18.37,37A4.28,4.28,0,0,1,612.49,132.63Z"/><path class="cls-2" d="M619,104l-9.33-27.37a5.37,5.37,0,0,1-1.3.68l9.3,27.29A5.13,5.13,0,0,1,619,104Z"/><path class="cls-2" d="M619.32,104.06,592.24,93.89a3.57,3.57,0,0,1-.41,1.09l27.25,10.24A2.81,2.81,0,0,1,619.32,104.06Z"/><path class="cls-2" d="M629,74.93l-20.93,1.68a4.19,4.19,0,0,1,.31,1.4l21.1-1.7A3.5,3.5,0,0,1,629,74.93Z"/><path class="cls-2" d="M626.14,62.53,609.51,75.12a4.34,4.34,0,0,1,1,1L627.3,63.44A3.55,3.55,0,0,1,626.14,62.53Z"/><path class="cls-3" d="M624.66,13,603.72,9.89a3.35,3.35,0,0,1,0,1.18l20.87,3.14A2.88,2.88,0,0,1,624.66,13Z"/><path class="cls-3" d="M595.29,22.16l-16,19.63a4.13,4.13,0,0,1,1.24.74l16-19.56A3.54,3.54,0,0,1,595.29,22.16Z"/><path class="cls-3" d="M599.14,48.73,580,41.83a3.39,3.39,0,0,1-.18,1l19.1,6.89A3.79,3.79,0,0,1,599.14,48.73Z"/><path class="cls-4" d="M582.88,42a3.29,3.29,0,1,1-3.29-3.23A3.26,3.26,0,0,1,582.88,42Z"/><path class="cls-4" d="M570.16,23.06a3.29,3.29,0,1,1-3.29-3.24A3.26,3.26,0,0,1,570.16,23.06Z"/><path class="cls-4" d="M558.36,72.28a3.3,3.3,0,1,1-3.3-3.22A3.26,3.26,0,0,1,558.36,72.28Z"/><path class="cls-4" d="M564.49,30.18A3.29,3.29,0,1,1,561.2,27,3.27,3.27,0,0,1,564.49,30.18Z"/><path class="cls-4" d="M607.4,10.8a3.29,3.29,0,1,1-3.29-3.23A3.25,3.25,0,0,1,607.4,10.8Z"/><path class="cls-4" d="M570.18,83,553.55,71.33a3.54,3.54,0,0,1-.44.92l16.57,11.6A3.39,3.39,0,0,1,570.18,83Z"/><path class="cls-4" d="M604.86,10.48,560,2.76a3.5,3.5,0,0,1,.06,1l44.79,7.71A3.42,3.42,0,0,1,604.86,10.48Z"/><path class="cls-4" d="M580.54,42.36,567,22.24a3.78,3.78,0,0,1-.9.84l13.47,20.07A4.49,4.49,0,0,1,580.54,42.36Z"/><path class="cls-4" d="M554.79,70.92,543.58,49.47a4.14,4.14,0,0,1-1,.74l11.16,21.38A4.67,4.67,0,0,1,554.79,70.92Z"/><path class="cls-4" d="M562.52,30.52,539.45,7.93a3,3,0,0,1-.8.91l22.9,22.43A3,3,0,0,1,562.52,30.52Z"/><path class="cls-4" d="M561.81,65.71,580.89,41.3a3.1,3.1,0,0,1-.78-.65L561,65.11A3.54,3.54,0,0,1,561.81,65.71Z"/><path class="cls-4" d="M555.55,71.35l-27.07,6.38a3.84,3.84,0,0,1,.44,1.09l26.57-6.25A4.16,4.16,0,0,1,555.55,71.35Z"/><path class="cls-4" d="M560.59,30.65,541.9,47.85a4.23,4.23,0,0,1,1.12.9l18.63-17.14A3.62,3.62,0,0,1,560.59,30.65Z"/><path class="cls-5" d="M543.14,9.69a3.29,3.29,0,1,1-3.29-3.23A3.26,3.26,0,0,1,543.14,9.69Z"/><path class="cls-5" d="M519.07,50.23A3.3,3.3,0,1,1,515.78,47,3.26,3.26,0,0,1,519.07,50.23Z"/><path class="cls-5" d="M545.64,48.67a3.29,3.29,0,1,1-3.29-3.23A3.25,3.25,0,0,1,545.64,48.67Z"/><path class="cls-5" d="M563.81,3.23a3.29,3.29,0,0,1-6.58,0,3.29,3.29,0,0,1,6.58,0Z"/><path class="cls-5" d="M521.34,26.84a3.29,3.29,0,1,1-3.3-3.23A3.26,3.26,0,0,1,521.34,26.84Z"/><path class="cls-5" d="M530.65,78.52a3.3,3.3,0,1,1-3.29-3.23A3.25,3.25,0,0,1,530.65,78.52Z"/><path class="cls-5" d="M515.67,71.39a3.3,3.3,0,1,1-3.3-3.23A3.27,3.27,0,0,1,515.67,71.39Z"/><path class="cls-5" d="M543.13,48.37l-25.48-22a3.18,3.18,0,0,1-.58.83l25.06,21.64A3,3,0,0,1,543.13,48.37Z"/><path class="cls-5" d="M542.45,48.64l-1.92-39a3.36,3.36,0,0,1-1-.35l2,40.25A2.81,2.81,0,0,1,542.45,48.64Z"/><path class="cls-5" d="M515.5,51.58h.15l2.77-24.43a3.42,3.42,0,0,1-1-.07l-2.79,24.59A4,4,0,0,1,515.5,51.58Z"/><path class="cls-5" d="M512.17,72.76h.15l4.45-24.18a3.18,3.18,0,0,1-1-.14L511.27,72.8A3.81,3.81,0,0,1,512.17,72.76Z"/><path class="cls-5" d="M529.76,79.3l-18.38-8.71a3.67,3.67,0,0,1-.28,1l18.32,8.69A3.66,3.66,0,0,1,529.76,79.3Z"/><path class="cls-5" d="M528.29,77.56l14.46-28.31a4.66,4.66,0,0,1-1.17-.42L527.15,77.08A4.38,4.38,0,0,1,528.29,77.56Z"/><path class="cls-5" d="M562.5,2.23l-24.26,7a3.25,3.25,0,0,1,.51,1.06l23.72-6.84A3.34,3.34,0,0,1,562.5,2.23Z"/><path class="cls-5" d="M539.71,9.1l-22.3,16.36a3.57,3.57,0,0,1,.86.83l21.88-16.06A3.8,3.8,0,0,1,539.71,9.1Z"/><path class="cls-3" d="M579.25,13.7A3.3,3.3,0,1,1,576,10.47,3.27,3.27,0,0,1,579.25,13.7Z"/><path class="cls-3" d="M598.32,22.6A3.29,3.29,0,1,1,595,19.38,3.26,3.26,0,0,1,598.32,22.6Z"/><path class="cls-3" d="M594.7,21.68l-18.37-8.74a3.5,3.5,0,0,1-.28,1l18.31,8.73A3.23,3.23,0,0,1,594.7,21.68Z"/><path class="cls-3" d="M599.46,48.35,576.74,13.66a4,4,0,0,1-.91.84l22.69,34.63A4.16,4.16,0,0,1,599.46,48.35Z"/><path class="cls-3" d="M565.62,64.27A3.29,3.29,0,1,1,562.33,61,3.25,3.25,0,0,1,565.62,64.27Z"/><path class="cls-3" d="M571.3,81.64A3.3,3.3,0,1,1,568,78.41,3.27,3.27,0,0,1,571.3,81.64Z"/><path class="cls-3" d="M598.32,79A3.29,3.29,0,1,1,595,75.74,3.26,3.26,0,0,1,598.32,79Z"/><path class="cls-3" d="M603.32,49.34A3.3,3.3,0,1,1,600,46.11,3.26,3.26,0,0,1,603.32,49.34Z"/><path class="cls-3" d="M612.17,23.72a3.3,3.3,0,1,1-3.29-3.23A3.26,3.26,0,0,1,612.17,23.72Z"/><path class="cls-3" d="M627.39,41.1a3.3,3.3,0,1,1-3.3-3.24A3.26,3.26,0,0,1,627.39,41.1Z"/><path class="cls-3" d="M627.39,13.92a3.3,3.3,0,1,1-3.3-3.23A3.27,3.27,0,0,1,627.39,13.92Z"/><path class="cls-3" d="M568.79,82.9l-6.26-20.35a3.37,3.37,0,0,1-.94.4l6.12,19.9A3.55,3.55,0,0,1,568.79,82.9Z"/><path class="cls-3" d="M595.32,79.09l4.95-29.31a4,4,0,0,1-1,0l-4.94,29.25A3.24,3.24,0,0,1,595.32,79.09Z"/><path class="cls-3" d="M625,41,608.9,22.79a4,4,0,0,1-.78.95l16,18.19A4.17,4.17,0,0,1,625,41Z"/><path class="cls-3" d="M624,13.07,606.3,24.48a3.73,3.73,0,0,1,.8.88L624.73,14A3.18,3.18,0,0,1,624,13.07Z"/><path class="cls-3" d="M623.53,40.29l-24,8.73a4.35,4.35,0,0,1,.69,1.27l23.94-8.72A3.78,3.78,0,0,1,623.53,40.29Z"/><path class="cls-3" d="M600.05,49,562,63.22a4.13,4.13,0,0,1,.69,1.27l37.92-14.25A3.9,3.9,0,0,1,600.05,49Z"/><path class="cls-3" d="M623.86,41.56,594,78.88a4.55,4.55,0,0,1,1.12.93l30-37.43A3.5,3.5,0,0,1,623.86,41.56Z"/></g></g></svg>