<svg width="109" height="109" viewBox="0 0 109 109" fill="none" xmlns="http://www.w3.org/2000/svg">
<g filter="url(#filter0_d_506_2576)">
<circle cx="54.5" cy="54.5" r="44.5" fill="#FD346E" fill-opacity="0.1"/>
</g>
<path d="M80.4096 37.855C77.1367 36.5112 73.8613 36 70.5876 36C60.1953 35.9992 49.8038 41.1486 39.4115 41.1486C36.8052 41.1486 34.2006 40.8249 31.5943 40.0155C31.3015 39.9246 31.0079 39.8817 30.7211 39.8817C29.269 39.8817 28 40.9818 28 42.5089V68.7111C28 69.7542 28.61 70.7428 29.5896 71.1442C32.8625 72.4888 36.1378 73 39.4115 73C49.8038 73 60.1962 67.8506 70.5885 67.8506C73.1948 67.8506 75.7994 68.1743 78.4057 68.9837C78.6985 69.0745 78.9921 69.1175 79.2789 69.1175C80.731 69.1175 82 68.0174 82 66.4903V40.2889C81.9992 39.2449 81.3891 38.2572 80.4096 37.855ZM32.0499 44.2771C33.7475 44.6933 35.5194 44.9023 37.3419 45.0146C36.8457 47.4419 34.6655 49.2713 32.0499 49.2713V44.2771ZM32.0499 67.815V63.8689C34.9499 63.8689 37.2963 66.1211 37.4254 68.9399C35.5244 68.7904 33.7475 68.4188 32.0499 67.815ZM54.9996 62.4286C51.2711 62.4286 48.2497 58.8781 48.2497 54.5C48.2497 50.1211 51.2719 46.5714 54.9996 46.5714C58.7272 46.5714 61.7495 50.1211 61.7495 54.5C61.7495 58.8797 58.7264 62.4286 54.9996 62.4286ZM77.9492 64.7229C76.471 64.3603 74.9362 64.1572 73.366 64.0258C73.8613 61.8719 75.6863 60.2367 77.9492 59.9558V64.7229ZM77.9492 45.2227C75.3429 44.8998 73.3205 42.7698 73.2403 40.1394C74.889 40.3186 76.4541 40.6539 77.9492 41.185V45.2227Z" fill="#FD346E"/>
<defs>
<filter id="filter0_d_506_2576" x="0" y="0" width="109" height="109" filterUnits="userSpaceOnUse" color-interpolation-filters="sRGB">
<feFlood flood-opacity="0" result="BackgroundImageFix"/>
<feColorMatrix in="SourceAlpha" type="matrix" values="0 0 0 0 0 0 0 0 0 0 0 0 0 0 0 0 0 0 127 0" result="hardAlpha"/>
<feOffset/>
<feGaussianBlur stdDeviation="5"/>
<feColorMatrix type="matrix" values="0 0 0 0 0.992157 0 0 0 0 0.203922 0 0 0 0 0.431373 0 0 0 0.25 0"/>
<feBlend mode="normal" in2="BackgroundImageFix" result="effect1_dropShadow_506_2576"/>
<feBlend mode="normal" in="SourceGraphic" in2="effect1_dropShadow_506_2576" result="shape"/>
</filter>
</defs>
</svg>
