<svg width="109" height="109" viewBox="0 0 109 109" fill="none" xmlns="http://www.w3.org/2000/svg">
<g filter="url(#filter0_d_506_2584)">
<circle cx="54.5" cy="54.5" r="44.5" fill="#fff" fill-opacity="0.1"/>
</g>
<g clip-path="url(#clip0_506_2584)">
<path d="M77 37L67.202 38.5621L69.3551 41.008L55.9245 52.3194L49.7725 48.4509L32 59.5377L33.8987 62.7637L50.0761 53.2865L56.3794 56.8583L71.7078 43.6794L73.886 46.1534L77 37Z" fill="#fff"/>
<path d="M35.1133 71.0001H42.6328V61.3992L35.1133 65.7152V71.0001Z" fill="#fff"/>
<path d="M45.9756 71H53.4172V58.8681L49.696 56.7847L45.9756 59.6123V71Z" fill="#fff"/>
<path d="M56.3047 71H64.2031V54.4783L56.3047 60.804V71Z" fill="#fff"/>
<path d="M67.165 70.9999H75.2148V51.4268L71.1899 47.855L67.165 51.6497V70.9999Z" fill="#fff"/>
</g>
<defs>
<filter id="filter0_d_506_2584" x="0" y="0" width="109" height="109" filterUnits="userSpaceOnUse" color-interpolation-filters="sRGB">
<feFlood flood-opacity="0" result="BackgroundImageFix"/>
<feColorMatrix in="SourceAlpha" type="matrix" values="0 0 0 0 0 0 0 0 0 0 0 0 0 0 0 0 0 0 127 0" result="hardAlpha"/>
<feOffset/>
<feGaussianBlur stdDeviation="5"/>
<feColorMatrix type="matrix" values="0 0 0 0 0.376471 0 0 0 0 0.00392157 0 0 0 0 0.827451 0 0 0 0.25 0"/>
<feBlend mode="normal" in2="BackgroundImageFix" result="effect1_dropShadow_506_2584"/>
<feBlend mode="normal" in="SourceGraphic" in2="effect1_dropShadow_506_2584" result="shape"/>
</filter>
<clipPath id="clip0_506_2584">
<rect width="45" height="34" fill="white" transform="translate(32 37)"/>
</clipPath>
</defs>
</svg>
