<svg width="109" height="109" viewBox="0 0 109 109" fill="#fff" xmlns="http://www.w3.org/2000/svg">
<g filter="url(#filter0_d_506_2597)">
<circle cx="54.5" cy="54.5" r="44.5" fill="#fff" fill-opacity="0.1"/>
</g>
<g clip-path="url(#clip0_506_2597)">
<path d="M74.1454 41.184L70.6047 44.7242C72.3426 47.5764 73.3444 50.9238 73.3444 54.5008C73.3444 64.8926 64.8889 73.347 54.4958 73.347C44.1027 73.347 35.6473 64.8926 35.6473 54.5008C35.6473 44.109 44.1028 35.6546 54.4959 35.6546C58.3691 35.6546 61.973 36.8288 64.9706 38.8398L68.4848 35.326C61.5824 30.2824 52.7093 29.4821 45.256 32.6341C43.8491 33.2291 42.4922 33.9654 41.2233 34.8227C27.2432 44.2664 27.319 64.7866 41.2233 74.179C43.7112 75.8596 46.5814 77.1104 49.7149 77.7515C51.2785 78.0714 52.8871 78.2336 54.4959 78.2336C56.1048 78.2336 57.7134 78.0714 59.277 77.7515C60.8021 77.4394 62.3022 76.9738 63.7357 76.3676C65.1426 75.7726 66.4995 75.0363 67.7685 74.179C69.0248 73.3303 70.2061 72.3558 71.2796 71.2825C72.3531 70.2091 73.3278 69.0279 74.1765 67.7718C79.592 59.7569 79.5894 49.199 74.1454 41.1842V41.184Z" fill="#fff"/>
<path d="M54.4798 51.6326L46.4294 43.5832L42.9736 47.0385L54.48 58.5433C54.6919 58.3314 76.8773 36.1489 77.0794 35.9468L73.6237 32.4915C73.5779 32.5372 55.1399 50.9729 54.4801 51.6326H54.4798Z" fill="#fff"/>
<path d="M55.4631 41.7211V38.3139C55.4631 37.7797 55.03 37.3467 54.4957 37.3467C53.9614 37.3467 53.5283 37.7797 53.5283 38.3139V41.7211C53.5283 42.2553 53.9614 42.6884 54.4957 42.6884C55.03 42.6884 55.4631 42.2559 55.4631 41.7211Z" fill="#fff"/>
<path d="M54.4957 66.3127C53.9614 66.3127 53.5283 66.7458 53.5283 67.28V70.6872C53.5283 71.2208 53.9608 71.6544 54.4957 71.6544C55.0306 71.6544 55.4631 71.2214 55.4631 70.6872V67.28C55.4631 66.7458 55.03 66.3127 54.4957 66.3127Z" fill="#fff"/>
<path d="M38.3072 53.5332C37.7729 53.5332 37.3398 53.9662 37.3398 54.5005C37.3398 55.0347 37.7729 55.4677 38.3072 55.4677H41.7148C42.2491 55.4677 42.6822 55.0347 42.6822 54.5005C42.6822 53.9662 42.2491 53.5332 41.7148 53.5332H38.3072Z" fill="#fff"/>
<path d="M66.3096 54.5005C66.3096 55.0347 66.7427 55.4677 67.2769 55.4677H70.6846C71.2189 55.4677 71.6519 55.0347 71.6519 54.5005C71.6519 53.9662 71.2189 53.5332 70.6846 53.5332H67.2769C66.7427 53.5332 66.3096 53.9662 66.3096 54.5005Z" fill="#fff"/>
</g>
<defs>
<filter id="filter0_d_506_2597" x="0" y="0" width="109" height="109" filterUnits="userSpaceOnUse" color-interpolation-filters="sRGB">
<feFlood flood-opacity="0" result="BackgroundImageFix"/>
<feColorMatrix in="SourceAlpha" type="matrix" values="0 0 0 0 0 0 0 0 0 0 0 0 0 0 0 0 0 0 127 0" result="hardAlpha"/>
<feOffset/>
<feGaussianBlur stdDeviation="5"/>
<feColorMatrix type="matrix" values="0 0 0 0 0.988235 0 0 0 0 0.862745 0 0 0 0 0 0 0 0 0.25 0"/>
<feBlend mode="normal" in2="BackgroundImageFix" result="effect1_dropShadow_506_2597"/>
<feBlend mode="normal" in="SourceGraphic" in2="effect1_dropShadow_506_2597" result="shape"/>
</filter>
<clipPath id="clip0_506_2597">
<rect width="47.4667" height="47.4667" fill="white" transform="translate(30.7666 30.7666)"/>
</clipPath>
</defs>
</svg>
