<svg width="109" height="109" viewBox="0 0 109 109" fill="none" xmlns="http://www.w3.org/2000/svg">
<g filter="url(#filter0_d_506_2612)">
<circle cx="54.5" cy="54.5" r="44.5" fill="#fff" fill-opacity="0.1"/>
</g>
<path d="M69.375 35.25H61.6667C61.6667 31.8027 58.9013 29 55.5 29C52.0987 29 49.3333 31.8027 49.3333 35.25H41.625C39.0716 35.25 37 37.3496 37 39.9375V74.3125C37 76.9004 39.0716 79 41.625 79H69.375C71.9284 79 74 76.9004 74 74.3125V39.9375C74 37.3496 71.9284 35.25 69.375 35.25ZM46.25 70.4062C44.9685 70.4062 43.9375 69.3613 43.9375 68.0625C43.9375 66.7637 44.9685 65.7188 46.25 65.7188C47.5315 65.7188 48.5625 66.7637 48.5625 68.0625C48.5625 69.3613 47.5315 70.4062 46.25 70.4062ZM46.25 61.0312C44.9685 61.0312 43.9375 59.9863 43.9375 58.6875C43.9375 57.3887 44.9685 56.3438 46.25 56.3438C47.5315 56.3438 48.5625 57.3887 48.5625 58.6875C48.5625 59.9863 47.5315 61.0312 46.25 61.0312ZM46.25 51.6562C44.9685 51.6562 43.9375 50.6113 43.9375 49.3125C43.9375 48.0137 44.9685 46.9688 46.25 46.9688C47.5315 46.9688 48.5625 48.0137 48.5625 49.3125C48.5625 50.6113 47.5315 51.6562 46.25 51.6562ZM55.5 32.9062C56.7815 32.9062 57.8125 33.9512 57.8125 35.25C57.8125 36.5488 56.7815 37.5938 55.5 37.5938C54.2185 37.5938 53.1875 36.5488 53.1875 35.25C53.1875 33.9512 54.2185 32.9062 55.5 32.9062ZM67.8333 68.8438C67.8333 69.2734 67.4865 69.625 67.0625 69.625H53.1875C52.7635 69.625 52.4167 69.2734 52.4167 68.8438V67.2812C52.4167 66.8516 52.7635 66.5 53.1875 66.5H67.0625C67.4865 66.5 67.8333 66.8516 67.8333 67.2812V68.8438ZM67.8333 59.4688C67.8333 59.8984 67.4865 60.25 67.0625 60.25H53.1875C52.7635 60.25 52.4167 59.8984 52.4167 59.4688V57.9062C52.4167 57.4766 52.7635 57.125 53.1875 57.125H67.0625C67.4865 57.125 67.8333 57.4766 67.8333 57.9062V59.4688ZM67.8333 50.0938C67.8333 50.5234 67.4865 50.875 67.0625 50.875H53.1875C52.7635 50.875 52.4167 50.5234 52.4167 50.0938V48.5312C52.4167 48.1016 52.7635 47.75 53.1875 47.75H67.0625C67.4865 47.75 67.8333 48.1016 67.8333 48.5312V50.0938Z" fill="#fff"/>
<defs>
<filter id="filter0_d_506_2612" x="0" y="0" width="109" height="109" filterUnits="userSpaceOnUse" color-interpolation-filters="sRGB">
<feFlood flood-opacity="0" result="BackgroundImageFix"/>
<feColorMatrix in="SourceAlpha" type="matrix" values="0 0 0 0 0 0 0 0 0 0 0 0 0 0 0 0 0 0 127 0" result="hardAlpha"/>
<feOffset/>
<feGaussianBlur stdDeviation="5"/>
<feColorMatrix type="matrix" values="0 0 0 0 0.113725 0 0 0 0 0.886275 0 0 0 0 0.811765 0 0 0 0.25 0"/>
<feBlend mode="normal" in2="BackgroundImageFix" result="effect1_dropShadow_506_2612"/>
<feBlend mode="normal" in="SourceGraphic" in2="effect1_dropShadow_506_2612" result="shape"/>
</filter>
</defs>
</svg>
