<svg width="85" height="96" viewBox="0 0 36 49" fill="none" xmlns="http://www.w3.org/2000/svg">
<path d="M31.2896 6.04396H23.8411C23.8411 2.7129 21.1689 0.00463867 17.8823 0.00463867C14.5956 0.00463867 11.9235 2.7129 11.9235 6.04396H4.47496C2.00764 6.04396 0.00585938 8.0728 0.00585938 10.5735V43.7897C0.00585938 46.2904 2.00764 48.3192 4.47496 48.3192H31.2896C33.7569 48.3192 35.7587 46.2904 35.7587 43.7897V10.5735C35.7587 8.0728 33.7569 6.04396 31.2896 6.04396ZM8.94406 40.0152C7.70575 40.0152 6.70951 39.0055 6.70951 37.7504C6.70951 36.4954 7.70575 35.4857 8.94406 35.4857C10.1824 35.4857 11.1786 36.4954 11.1786 37.7504C11.1786 39.0055 10.1824 40.0152 8.94406 40.0152ZM8.94406 30.9562C7.70575 30.9562 6.70951 29.9465 6.70951 28.6914C6.70951 27.4364 7.70575 26.4267 8.94406 26.4267C10.1824 26.4267 11.1786 27.4364 11.1786 28.6914C11.1786 29.9465 10.1824 30.9562 8.94406 30.9562ZM8.94406 21.8972C7.70575 21.8972 6.70951 20.8875 6.70951 19.6324C6.70951 18.3774 7.70575 17.3677 8.94406 17.3677C10.1824 17.3677 11.1786 18.3774 11.1786 19.6324C11.1786 20.8875 10.1824 21.8972 8.94406 21.8972ZM17.8823 3.77922C19.1206 3.77922 20.1168 4.78892 20.1168 6.04396C20.1168 7.29901 19.1206 8.30871 17.8823 8.30871C16.644 8.30871 15.6477 7.29901 15.6477 6.04396C15.6477 4.78892 16.644 3.77922 17.8823 3.77922ZM29.7999 38.5053C29.7999 38.9205 29.4647 39.2603 29.055 39.2603H15.6477C15.238 39.2603 14.9029 38.9205 14.9029 38.5053V36.9955C14.9029 36.5803 15.238 36.2406 15.6477 36.2406H29.055C29.4647 36.2406 29.7999 36.5803 29.7999 36.9955V38.5053ZM29.7999 29.4464C29.7999 29.8616 29.4647 30.2013 29.055 30.2013H15.6477C15.238 30.2013 14.9029 29.8616 14.9029 29.4464V27.9365C14.9029 27.5213 15.238 27.1816 15.6477 27.1816H29.055C29.4647 27.1816 29.7999 27.5213 29.7999 27.9365V29.4464ZM29.7999 20.3874C29.7999 20.8026 29.4647 21.1423 29.055 21.1423H15.6477C15.238 21.1423 14.9029 20.8026 14.9029 20.3874V18.8775C14.9029 18.4623 15.238 18.1226 15.6477 18.1226H29.055C29.4647 18.1226 29.7999 18.4623 29.7999 18.8775V20.3874Z" fill="#6001D3"/>
</svg>
