<svg width="85" height="96" viewBox="0 0 39 45" fill="none" xmlns="http://www.w3.org/2000/svg">
<path d="M19.0106 22.0108C25.009 22.0108 29.8705 17.0853 29.8705 11.008C29.8705 4.93071 25.009 0.00524902 19.0106 0.00524902C13.0123 0.00524902 8.15076 4.93071 8.15076 11.008C8.15076 17.0853 13.0123 22.0108 19.0106 22.0108ZM27.1386 24.813L23.0831 41.2656L20.3681 29.5752L23.0831 24.7615H14.9382L17.6531 29.5752L14.9382 41.2656L10.8827 24.813C4.83341 25.1053 0.00585938 30.1167 0.00585938 36.3144V39.8903C0.00585938 42.1682 1.82998 44.0163 4.07831 44.0163H33.943C36.1913 44.0163 38.0154 42.1682 38.0154 39.8903V36.3144C38.0154 30.1167 33.1879 25.1053 27.1386 24.813Z" fill="#fff"/>
</svg>
