<svg width="85" height="96" viewBox="0 0 42 46" fill="none" xmlns="http://www.w3.org/2000/svg">
<path d="M41.4278 39.7699L33.2487 30.8134C32.8796 30.4091 32.3791 30.1846 31.8541 30.1846H30.5169C32.7811 27.0134 34.1265 23.0247 34.1265 18.6857C34.1265 8.36364 26.4889 0 17.0628 0C7.63669 0 -0.000976562 8.36364 -0.000976562 18.6857C-0.000976562 29.0077 7.63669 37.3714 17.0628 37.3714C21.0252 37.3714 24.6676 35.8981 27.5635 33.4186V34.8829C27.5635 35.4579 27.7686 36.0059 28.1378 36.4101L36.3169 45.3667C37.0881 46.2111 38.335 46.2111 39.098 45.3667L41.4196 42.8243C42.1908 41.9799 42.1908 40.6144 41.4278 39.7699ZM17.0628 30.1846C11.2627 30.1846 6.562 25.046 6.562 18.6857C6.562 12.3343 11.2545 7.1868 17.0628 7.1868C22.8628 7.1868 27.5635 12.3254 27.5635 18.6857C27.5635 25.037 22.871 30.1846 17.0628 30.1846Z" fill="#fff"/>
</svg>
