<svg width="82" height="82" viewBox="0 0 82 82" fill="none" xmlns="http://www.w3.org/2000/svg">
<path d="M41 0C18.3508 0 0 18.3508 0 41C0 63.6492 18.3508 82 41 82C63.6492 82 82 63.6492 82 41C82 18.3508 63.6492 0 41 0ZM50.4399 57.8794L35.8585 47.2823C35.346 46.902 35.0484 46.3069 35.0484 45.6786V17.8548C35.0484 16.7637 35.9411 15.871 37.0323 15.871H44.9677C46.0589 15.871 46.9516 16.7637 46.9516 17.8548V40.6198L57.4496 48.2577C58.3423 48.9024 58.5242 50.1423 57.8794 51.0351L53.2173 57.4496C52.5726 58.3258 51.3327 58.5242 50.4399 57.8794Z" fill="#fff"/>
</svg>
