<svg width="87" height="67" viewBox="0 0 87 67" fill="none" xmlns="http://www.w3.org/2000/svg">
<path d="M0 59.0357C0 62.9468 3.2474 66.12 7.25 66.12H79.75C83.7526 66.12 87 62.9468 87 59.0357V33.06H0V59.0357ZM29 48.9996C29 48.0256 29.8156 47.2286 30.8125 47.2286H51.3542C52.351 47.2286 53.1667 48.0256 53.1667 48.9996V54.9032C53.1667 55.8773 52.351 56.6743 51.3542 56.6743H30.8125C29.8156 56.6743 29 55.8773 29 54.9032V48.9996ZM9.66667 48.9996C9.66667 48.0256 10.4823 47.2286 11.4792 47.2286H22.3542C23.351 47.2286 24.1667 48.0256 24.1667 48.9996V54.9032C24.1667 55.8773 23.351 56.6743 22.3542 56.6743H11.4792C10.4823 56.6743 9.66667 55.8773 9.66667 54.9032V48.9996ZM87 7.08429V14.1686H0V7.08429C0 3.17317 3.2474 0 7.25 0H79.75C83.7526 0 87 3.17317 87 7.08429Z" fill="#fff"/>
</svg>
