<svg width="78" height="78" viewBox="0 0 78 78" fill="none" xmlns="http://www.w3.org/2000/svg">
<path d="M39 0C17.4604 0 0 17.4604 0 39C0 60.5396 17.4604 78 39 78C60.5396 78 78 60.5396 78 39C78 17.4604 60.5396 0 39 0ZM51.9408 56.2355C51.3275 56.8456 50.6843 57.4857 50.1622 58.0094C49.692 58.4811 49.3602 59.063 49.1919 59.6936C48.9544 60.5837 48.7626 61.4832 48.4418 62.3465L45.7071 69.7141C43.5432 70.1858 41.3038 70.4516 39 70.4516V66.1459C39.2658 64.1613 37.7985 60.4437 35.4412 58.0864C34.4977 57.1429 33.9677 55.8628 33.9677 54.5277V49.4938C33.9677 47.6633 32.9817 45.9807 31.3793 45.0953C29.1195 43.8451 25.9051 42.098 23.7035 40.9893C21.8982 40.0804 20.2281 38.9229 18.7263 37.569L18.6005 37.4557C17.5265 36.4863 16.573 35.3913 15.7604 34.1942C14.2853 32.0288 11.8824 28.4669 10.3208 26.152C13.5399 18.9968 19.3412 13.2506 26.5499 10.129L30.3256 12.0177C31.9989 12.8543 33.9677 11.6387 33.9677 9.7673V7.99028C35.2242 7.78742 36.5027 7.65847 37.8033 7.60972L42.2537 12.0601C43.2365 13.043 43.2365 14.636 42.2537 15.6189L41.5161 16.3548L39.8901 17.9809C39.3994 18.4715 39.3994 19.2688 39.8901 19.7595L40.6276 20.497C41.1183 20.9877 41.1183 21.785 40.6276 22.2756L39.3696 23.5337C39.1333 23.7694 38.8132 23.9018 38.4795 23.9017H37.0657C36.7386 23.9017 36.4241 24.029 36.1882 24.2586L34.6282 25.7762C34.437 25.9624 34.3099 26.2045 34.2652 26.4677C34.2206 26.7308 34.2607 27.0014 34.3798 27.2402L36.8314 32.1451C37.2497 32.9817 36.6411 33.9662 35.707 33.9662H34.8201C34.5166 33.9662 34.2241 33.8561 33.996 33.6579L32.5367 32.3904C32.2065 32.1039 31.8073 31.9083 31.3786 31.8229C30.9498 31.7374 30.5062 31.765 30.0913 31.9029L25.1896 33.5369C24.8154 33.6616 24.4899 33.901 24.2593 34.2211C24.0287 34.5412 23.9047 34.9257 23.9048 35.3202C23.9048 36.0325 24.3074 36.682 24.9443 37.0012L26.6867 37.8725C28.1665 38.6131 29.7988 38.9984 31.4532 38.9984C33.1075 38.9984 35.0056 43.29 36.4854 44.0307H46.9824C48.3175 44.0307 49.5961 44.5606 50.5412 45.5042L52.694 47.6571C53.5934 48.5568 54.0986 49.7769 54.0983 51.0491C54.098 52.0131 53.9073 52.9675 53.537 53.8576C53.1667 54.7476 52.6243 55.5557 51.9408 56.2355V56.2355ZM65.5766 41.87C64.6661 41.6419 63.8719 41.0837 63.3514 40.3021L60.5239 36.0608C60.1102 35.4412 59.8894 34.7128 59.8894 33.9677C59.8894 33.2227 60.1102 32.4943 60.5239 31.8746L63.6046 27.2544C63.9694 26.7087 64.4695 26.2652 65.0577 25.9727L67.0989 24.9521C69.225 29.1855 70.4516 33.9473 70.4516 39C70.4516 40.3634 70.3352 41.6985 70.1654 43.0164L65.5766 41.87Z" fill="#1DE2CF"/>
</svg>
