<svg width="100" height="100" viewBox="0 0 100 100" fill="none" xmlns="http://www.w3.org/2000/svg">
<g filter="url(#filter0_d_508_2245)">
<circle cx="50" cy="30" r="30" fill="#0041FF"/>
</g>
<g clip-path="url(#clip0_508_2245)">
<path d="M62.2889 29.2889H61.1988L61.1648 28.8972C60.9306 26.0016 59.6105 23.3488 57.4432 21.4242C55.659 19.8402 53.4661 18.8863 51.0943 18.6564L50.7068 18.6181V17.7111C50.7068 17.3194 50.3875 17 49.9957 17C49.604 17 49.2846 17.3194 49.2846 17.7111V18.6138L48.8972 18.6479C47.3472 18.8012 45.8739 19.2611 44.5241 20.0147C41.2624 21.8415 39.1291 25.167 38.8182 28.8972L38.7884 29.2889H37.7111C37.3194 29.2889 37 29.6083 37 30C37 30.3917 37.3194 30.7111 37.7111 30.7111H38.831L38.8693 31.0858C39.4654 36.2637 43.4936 40.3217 48.6544 40.9391L49.2889 40.9944V42.2889C49.2889 42.6806 49.6083 43 50 43C50.3917 43 50.7111 42.6806 50.7111 42.2889V40.9944L51.0986 40.9604C52.6528 40.8028 54.1772 40.3259 55.5398 39.5509L54.5647 38.4651C53.5129 39.0229 52.3632 39.3806 51.1923 39.5211L50.7154 39.585V38.3289C50.7154 37.9371 50.396 37.6178 50.0043 37.6178C49.6125 37.6178 49.2932 37.9371 49.2932 38.3289V39.585L48.8162 39.5211C44.4304 38.9931 40.9345 35.5611 40.3085 31.1965L40.2404 30.7068H41.6711C42.0629 30.7068 42.3822 30.3875 42.3822 29.9957C42.3822 29.604 42.0629 29.2846 41.6711 29.2846H40.2191L40.266 28.812C40.6024 25.6312 42.4504 22.8038 45.2309 21.2453C46.3253 20.6322 47.5303 20.2447 48.8205 20.0871L49.2974 20.0318V21.6626C49.2974 22.0544 49.6168 22.3737 50.0085 22.3737C50.4003 22.3737 50.7196 22.0544 50.7196 21.6626V20.0275L51.1965 20.0829C53.1765 20.3213 55.0118 21.1517 56.5106 22.4802C58.3459 24.111 59.4998 26.3636 59.7425 28.812L59.7894 29.2846H58.3416C57.9499 29.2846 57.6305 29.604 57.6305 29.9957C57.6305 30.3875 57.9499 30.7068 58.3416 30.7068H59.7724L59.7 31.1965C59.5126 32.4782 59.074 33.7003 58.4225 34.7989L59.4956 35.7697C60.377 34.3688 60.9433 32.772 61.1435 31.0858L61.1903 30.7111H62.3017C62.6934 30.7111 63.0128 30.3917 63.0128 30C63.0128 29.6083 62.6934 29.2889 62.3017 29.2889H62.2889Z" fill="white"/>
<path d="M55.4333 33.6407C56.1359 32.6017 56.5447 31.3456 56.5447 30C56.5447 26.3891 53.6024 23.451 49.9957 23.451C46.3891 23.451 43.4468 26.3891 43.4468 30C43.4468 33.6109 46.3849 36.5405 49.9957 36.5405C51.2604 36.5405 52.4484 36.1785 53.4533 35.5526L57.7583 40.3217C57.7923 40.3685 57.8392 40.4068 57.8775 40.4451C58.5801 41.0753 59.6616 41.0242 60.2918 40.3217C60.922 39.6233 60.8667 38.546 60.1684 37.9158L55.4333 33.6407ZM52.2909 34.2581C51.6096 34.6286 50.8261 34.8372 49.9957 34.8372C47.3259 34.8372 45.15 32.6698 45.15 30C45.15 27.3302 47.3259 25.1543 49.9957 25.1543C52.6656 25.1543 54.8415 27.3302 54.8415 30C54.8415 30.907 54.586 31.7586 54.1474 32.4867C53.7003 33.2319 53.0573 33.8451 52.2909 34.2581Z" fill="white"/>
</g>
<defs>
<filter id="filter0_d_508_2245" x="0" y="0" width="100" height="100" filterUnits="userSpaceOnUse" color-interpolation-filters="sRGB">
<feFlood flood-opacity="0" result="BackgroundImageFix"/>
<feColorMatrix in="SourceAlpha" type="matrix" values="0 0 0 0 0 0 0 0 0 0 0 0 0 0 0 0 0 0 127 0" result="hardAlpha"/>
<feOffset dy="20"/>
<feGaussianBlur stdDeviation="10"/>
<feColorMatrix type="matrix" values="0 0 0 0 0 0 0 0 0 0.254902 0 0 0 0 1 0 0 0 0.2 0"/>
<feBlend mode="normal" in2="BackgroundImageFix" result="effect1_dropShadow_508_2245"/>
<feBlend mode="normal" in="SourceGraphic" in2="effect1_dropShadow_508_2245" result="shape"/>
</filter>
<clipPath id="clip0_508_2245">
<rect width="26" height="26" fill="white" transform="translate(37 17)"/>
</clipPath>
</defs>
</svg>
