<svg width="100" height="100" viewBox="0 0 100 100" fill="none" xmlns="http://www.w3.org/2000/svg">
<g filter="url(#filter0_d_1_2157)">
<circle cx="50" cy="30" r="30" fill="#FF1E38"/>
</g>
<path d="M54.25 32.3332H56.125C56.4375 32.3332 56.75 31.9999 56.75 31.6666V24.6666C56.75 24.3332 56.4375 23.9999 56.125 23.9999H54.25C53.9375 23.9999 53.625 24.3332 53.625 24.6666V31.6666C53.625 31.9999 53.9375 32.3332 54.25 32.3332ZM58.9375 32.3332H60.8125C61.125 32.3332 61.4375 31.9999 61.4375 31.6666V19.6666C61.4375 19.3332 61.125 18.9999 60.8125 18.9999H58.9375C58.625 18.9999 58.3125 19.3332 58.3125 19.6666V31.6666C58.3125 31.9999 58.625 32.3332 58.9375 32.3332ZM44.875 32.3332H46.75C47.0625 32.3332 47.375 31.9999 47.375 31.6666V27.9999C47.375 27.6666 47.0625 27.3332 46.75 27.3332H44.875C44.5625 27.3332 44.25 27.6666 44.25 27.9999V31.6666C44.25 31.9999 44.5625 32.3332 44.875 32.3332ZM49.5625 32.3332H51.4375C51.75 32.3332 52.0625 31.9999 52.0625 31.6666V21.3332C52.0625 20.9999 51.75 20.6666 51.4375 20.6666H49.5625C49.25 20.6666 48.9375 20.9999 48.9375 21.3332V31.6666C48.9375 31.9999 49.25 32.3332 49.5625 32.3332ZM62.2188 35.6666H41.125V19.8332C41.125 19.3728 40.7754 18.9999 40.3438 18.9999H38.7812C38.3496 18.9999 38 19.3728 38 19.8332V37.3332C38 38.2536 38.6997 38.9999 39.5625 38.9999H62.2188C62.6504 38.9999 63 38.627 63 38.1666V36.4999C63 36.0395 62.6504 35.6666 62.2188 35.6666Z" fill="white"/>
<defs>
<filter id="filter0_d_1_2157" x="0" y="0" width="100" height="100" filterUnits="userSpaceOnUse" color-interpolation-filters="sRGB">
<feFlood flood-opacity="0" result="BackgroundImageFix"/>
<feColorMatrix in="SourceAlpha" type="matrix" values="0 0 0 0 0 0 0 0 0 0 0 0 0 0 0 0 0 0 127 0" result="hardAlpha"/>
<feOffset dy="20"/>
<feGaussianBlur stdDeviation="10"/>
<feColorMatrix type="matrix" values="0 0 0 0 1 0 0 0 0 0.117647 0 0 0 0 0.219608 0 0 0 0.2 0"/>
<feBlend mode="normal" in2="BackgroundImageFix" result="effect1_dropShadow_1_2157"/>
<feBlend mode="normal" in="SourceGraphic" in2="effect1_dropShadow_1_2157" result="shape"/>
</filter>
</defs>
</svg>
