<svg width="22" height="25" viewBox="0 0 22 25" fill="none" xmlns="http://www.w3.org/2000/svg">
<path d="M18.7451 15.0528L19.9121 11.9962C20.1074 11.4835 19.7314 10.9366 19.1797 10.9366H16.3232C16.8604 10.0138 17.1924 8.95421 17.1924 7.81164V7.79699C19.1064 7.41613 20.3174 6.86437 20.3174 6.24914C20.3174 5.59972 18.9844 5.02355 16.8945 4.63781C16.4453 3.03624 15.5762 1.42492 14.9121 0.594839C14.4482 0.0137841 13.6475 -0.16688 12.9834 0.165151L11.6357 0.838979C11.1963 1.05871 10.6787 1.05871 10.2393 0.838979L8.8916 0.165151C8.22754 -0.16688 7.42676 0.0137841 6.96289 0.594839C6.30371 1.42492 5.42969 3.03624 4.98047 4.63781C2.89551 5.02355 1.5625 5.59972 1.5625 6.24914C1.5625 6.86437 2.77344 7.41613 4.6875 7.79699V7.81164C4.6875 8.95421 5.01953 10.0138 5.55664 10.9366H2.74902C2.1875 10.9366 1.81152 11.5079 2.03125 12.0255L3.29102 14.965C1.33301 16.1027 0 18.1974 0 20.6241V22.8116C0 24.0177 0.981445 24.9991 2.1875 24.9991H19.6875C20.8936 24.9991 21.875 24.0177 21.875 22.8116V20.6241C21.875 18.2609 20.6152 16.2101 18.7451 15.0528ZM8.59375 23.4366L6.5625 14.0616L8.98438 15.6241L10.1562 17.5773L8.59375 23.4366ZM13.2812 23.4366L11.7188 17.5773L12.8906 15.6241L15.3125 14.0616L13.2812 23.4366ZM15.3174 8.86144C15.127 9.4425 14.9756 10.0626 14.5117 10.4923C14.0186 10.9464 12.168 11.5861 11.3867 9.2716C11.25 8.86144 10.6348 8.86144 10.4932 9.2716C9.66309 11.7228 7.75879 10.8536 7.36816 10.4923C6.9043 10.0626 6.74805 9.4425 6.5625 8.86144C6.52344 8.73937 6.25488 8.58312 6.25488 8.57824V8.05089C7.63672 8.22668 9.2334 8.3341 10.9424 8.3341C12.6514 8.3341 14.248 8.23156 15.6299 8.05089V8.57824C15.625 8.58312 15.3564 8.73449 15.3174 8.86144Z" fill="white"/>
</svg>
