<svg width="41" height="28" viewBox="0 0 41 28" fill="none" xmlns="http://www.w3.org/2000/svg">
<path d="M39.7188 22.6937H5.125V1.29333C5.125 0.671027 4.55164 0.166992 3.84375 0.166992H1.28125C0.573359 0.166992 0 0.671027 0 1.29333V24.9464C0 26.1903 1.14752 27.199 2.5625 27.199H39.7188C40.4266 27.199 41 26.695 41 26.0727V23.82C41 23.1977 40.4266 22.6937 39.7188 22.6937ZM37.1562 2.41966H27.7022C25.9902 2.41966 25.1325 4.2394 26.3433 5.30379L28.9378 7.58461L23.0625 12.7503L17.1872 7.58532C16.1862 6.70537 14.5638 6.70537 13.5636 7.58532L8.06307 12.4208C7.56258 12.8608 7.56258 13.5739 8.06307 14.0139L9.87443 15.6062C10.3749 16.0462 11.1861 16.0462 11.6866 15.6062L15.375 12.3631L21.2503 17.528C22.2513 18.408 23.8737 18.408 24.8739 17.528L32.5614 10.77L35.1559 13.0509C36.3667 14.1152 38.4367 13.3613 38.4367 11.8562V3.546C38.4375 2.9237 37.8641 2.41966 37.1562 2.41966Z" fill="#FF1A43"/>
</svg>
