<svg width="100" height="100" viewBox="0 0 100 100" fill="none" xmlns="http://www.w3.org/2000/svg">
<g filter="url(#filter0_d_508_2269)">
<circle cx="50" cy="30" r="30" fill="#1DE2CF"/>
</g>
<path d="M50.5002 19.7322C45.1142 19.7322 40.7324 24.1138 40.7324 29.4999C40.7324 34.8859 45.1142 39.2679 50.5002 39.2679C55.8863 39.2679 60.268 34.8859 60.268 29.4999C60.268 24.1138 55.8863 19.7322 50.5002 19.7322ZM50.5002 37.514C46.0813 37.514 42.4863 33.9188 42.4863 29.4999C42.4863 25.0809 46.0813 21.486 50.5002 21.486C54.9192 21.486 58.5142 25.0812 58.5142 29.4999C58.5142 33.9186 54.9192 37.514 50.5002 37.514Z" fill="white"/>
<path d="M50.9826 28.6883L50.2252 28.568C49.5379 28.4587 49.0612 27.9477 49.1404 27.4036C49.2258 26.8151 49.972 26.3684 50.7084 26.4674C51.3351 26.5516 51.812 26.9729 51.8421 27.4701L53.593 27.3632C53.5202 26.1686 52.6137 25.1562 51.377 24.8196V23.8382H49.6232V24.8192C48.481 25.1293 47.5687 26.0235 47.4047 27.1514C47.1861 28.6559 48.3043 30.0389 49.9504 30.2999L50.7076 30.4201C51.3799 30.527 51.8899 31.0022 51.8685 31.502C51.8538 31.8466 51.6527 32.0806 51.4867 32.2166C51.1629 32.4814 50.7006 32.5958 50.25 32.5252C49.6355 32.4276 49.1756 32.0008 49.1567 31.511L47.4042 31.5781C47.4509 32.7913 48.3636 33.8367 49.6229 34.1792V35.1622H51.3767V34.1901C51.8228 34.0735 52.2397 33.8662 52.5965 33.5743C53.2238 33.0615 53.5874 32.3521 53.6204 31.5765C53.6802 30.1782 52.5461 28.9365 50.9823 28.688L50.9826 28.6883Z" fill="white"/>
<path d="M48.9032 17.4175C49.4262 17.349 49.9584 17.31 50.5 17.31C51.0416 17.31 51.5738 17.349 52.0968 17.4175V14.7793H54.1621L52.331 12.3897L50.5 10L48.6689 12.3897L46.8379 14.7793H48.9032V17.4175Z" fill="white"/>
<path d="M52.0968 41.5825C51.5738 41.651 51.0416 41.69 50.5 41.69C49.9584 41.69 49.4262 41.651 48.9032 41.5825V44.2206H46.8379L48.6689 46.6102L50.5 48.9999L52.331 46.6102L54.1621 44.2206H52.0968V41.5825Z" fill="white"/>
<path d="M60.1731 22.0853L62.0384 20.2201L63.4988 21.6805L63.8939 18.696L64.2889 15.7114L61.3044 16.1065L58.3199 16.5016L59.7803 17.962L57.915 19.8272C58.7629 20.4781 59.5224 21.2376 60.1733 22.0855L60.1731 22.0853Z" fill="white"/>
<path d="M40.8272 36.9147L38.962 38.7799L37.5016 37.3195L37.1065 40.304L36.7114 43.2886L39.696 42.8935L42.6805 42.4984L41.2201 41.038L43.0853 39.1728C42.2375 38.5219 41.478 37.7624 40.8271 36.9146L40.8272 36.9147Z" fill="white"/>
<path d="M42.6805 16.5014L39.696 16.1064L36.7114 15.7113L37.1065 18.6958L37.5016 21.6804L38.962 20.2199L40.8272 22.0852C41.4781 21.2373 42.2376 20.4779 43.0855 19.827L41.2202 17.9617L42.6806 16.5013L42.6805 16.5014Z" fill="white"/>
<path d="M63.4984 37.3195L62.038 38.7799L60.1728 36.9147C59.5219 37.7625 58.7624 38.522 57.9146 39.1729L59.7798 41.0381L58.3194 42.4986L61.3039 42.8936L64.2884 43.2886L63.8934 40.304L63.4983 37.3195H63.4984Z" fill="white"/>
<path d="M38.3102 29.5C38.3102 28.9584 38.3492 28.4262 38.4177 27.9032H35.7794V25.8379L33.3898 27.6689L31 29.5L33.3897 31.331L35.7793 33.1621V31.0968H38.4175C38.349 30.5738 38.31 30.0416 38.31 29.5H38.3102Z" fill="white"/>
<path d="M67.6103 27.6689L65.2206 25.8379V27.9032H62.5825C62.651 28.4262 62.69 28.9584 62.69 29.5C62.69 30.0416 62.651 30.5738 62.5825 31.0968H65.2206V33.1621L67.6103 31.331L69.9999 29.5L67.6103 27.6689Z" fill="white"/>
<defs>
<filter id="filter0_d_508_2269" x="0" y="0" width="100" height="100" filterUnits="userSpaceOnUse" color-interpolation-filters="sRGB">
<feFlood flood-opacity="0" result="BackgroundImageFix"/>
<feColorMatrix in="SourceAlpha" type="matrix" values="0 0 0 0 0 0 0 0 0 0 0 0 0 0 0 0 0 0 127 0" result="hardAlpha"/>
<feOffset dy="20"/>
<feGaussianBlur stdDeviation="10"/>
<feColorMatrix type="matrix" values="0 0 0 0 0.820833 0 0 0 0 1 0 0 0 0 0.98272 0 0 0 1 0"/>
<feBlend mode="normal" in2="BackgroundImageFix" result="effect1_dropShadow_508_2269"/>
<feBlend mode="normal" in="SourceGraphic" in2="effect1_dropShadow_508_2269" result="shape"/>
</filter>
</defs>
</svg>
