<svg width="39" height="31" viewBox="0 0 39 31" fill="none" xmlns="http://www.w3.org/2000/svg">
<path d="M29.7388 11.9149H20.4764V15.1776C20.4764 17.4907 18.5081 19.3726 16.0889 19.3726C13.6696 19.3726 11.7014 17.4907 11.7014 15.1776V8.09276L7.74653 10.365C6.57044 11.0351 5.85138 12.2528 5.85138 13.5579V16.3138L0.976388 19.0055C0.044046 19.5183 -0.278922 20.6602 0.263421 21.5517L5.13841 29.627C5.67466 30.5184 6.86903 30.8214 7.80138 30.3087L14.1023 26.8303H22.4263C24.5774 26.8303 26.3263 25.1582 26.3263 23.1015H27.3013C28.3799 23.1015 29.2513 22.2683 29.2513 21.237V17.5082H29.7388C30.5493 17.5082 31.2013 16.8847 31.2013 16.1098V13.3132C31.2013 12.5383 30.5493 11.9149 29.7388 11.9149ZM38.7393 9.73579L33.8643 1.66045C33.3281 0.769016 32.1337 0.466045 31.2013 0.978766L24.9004 4.45711H18.6726C17.9414 4.45711 17.2284 4.6552 16.6068 5.02226L14.5654 6.23997C13.9926 6.5779 13.6514 7.17802 13.6514 7.81892V15.1776C13.6514 16.4652 14.7421 17.5082 16.0889 17.5082C17.4356 17.5082 18.5264 16.4652 18.5264 15.1776V10.0504H29.7388C31.6218 10.0504 33.1513 11.5128 33.1513 13.3132V14.9737L38.0263 12.2819C38.9587 11.7634 39.2755 10.6272 38.7393 9.73579V9.73579Z" fill="#95A3D5"/>
</svg>
