<svg width="71" height="65" viewBox="0 0 71 65" fill="none" xmlns="http://www.w3.org/2000/svg">
<rect opacity="0.1" width="70.2" height="65" rx="32.5" fill="#FD346E"/>
<path d="M21.5 31.5H23V40.5H21.5C21.303 40.5002 21.1078 40.4616 20.9257 40.3863C20.7436 40.311 20.5782 40.2005 20.4388 40.0612C20.2995 39.9218 20.189 39.7564 20.1137 39.5743C20.0384 39.3922 19.9998 39.197 20 39V33C19.9998 32.803 20.0384 32.6078 20.1137 32.4257C20.189 32.2436 20.2995 32.0782 20.4388 31.9388C20.5782 31.7995 20.7436 31.689 20.9257 31.6137C21.1078 31.5384 21.303 31.4998 21.5 31.5ZM45.5 29.25V42C45.4992 42.7954 45.1829 43.558 44.6205 44.1205C44.058 44.6829 43.2954 44.9992 42.5 45H27.5C26.7046 44.9992 25.942 44.6829 25.3795 44.1205C24.8171 43.558 24.5008 42.7954 24.5 42V29.25C24.4998 28.7575 24.5967 28.2698 24.7851 27.8147C24.9735 27.3597 25.2497 26.9462 25.598 26.598C25.9462 26.2497 26.3597 25.9735 26.8147 25.7851C27.2698 25.5967 27.7575 25.4998 28.25 25.5H33.5V22.5C33.5 22.1022 33.658 21.7206 33.9393 21.4393C34.2206 21.158 34.6022 21 35 21C35.3978 21 35.7794 21.158 36.0607 21.4393C36.342 21.7206 36.5 22.1022 36.5 22.5V25.5H41.75C42.2425 25.4998 42.7302 25.5967 43.1853 25.7851C43.6403 25.9735 44.0538 26.2497 44.402 26.598C44.7503 26.9462 45.0265 27.3597 45.2149 27.8147C45.4033 28.2698 45.5002 28.7575 45.5 29.25ZM32.375 33C32.375 32.6292 32.265 32.2666 32.059 31.9583C31.853 31.65 31.5601 31.4096 31.2175 31.2677C30.8749 31.1258 30.4979 31.0887 30.1342 31.161C29.7705 31.2334 29.4364 31.412 29.1742 31.6742C28.912 31.9364 28.7334 32.2705 28.661 32.6342C28.5887 32.9979 28.6258 33.3749 28.7677 33.7175C28.9096 34.0601 29.15 34.353 29.4583 34.559C29.7666 34.765 30.1292 34.875 30.5 34.875C30.7462 34.875 30.9901 34.8265 31.2176 34.7323C31.445 34.6381 31.6518 34.5 31.8259 34.3259C32 34.1518 32.1381 33.945 32.2323 33.7176C32.3265 33.4901 32.375 33.2462 32.375 33ZM32 39H29V40.5H32V39ZM36.5 39H33.5V40.5H36.5V39ZM41.375 33C41.375 32.6292 41.265 32.2666 41.059 31.9583C40.853 31.65 40.5601 31.4096 40.2175 31.2677C39.8749 31.1258 39.4979 31.0887 39.1342 31.161C38.7705 31.2334 38.4364 31.412 38.1742 31.6742C37.912 31.9364 37.7334 32.2705 37.661 32.6342C37.5887 32.9979 37.6258 33.3749 37.7677 33.7175C37.9096 34.0601 38.15 34.353 38.4583 34.559C38.7666 34.765 39.1292 34.875 39.5 34.875C39.7462 34.875 39.9901 34.8265 40.2176 34.7323C40.445 34.6381 40.6518 34.5 40.8259 34.3259C41 34.1518 41.1381 33.945 41.2323 33.7176C41.3265 33.4901 41.375 33.2462 41.375 33ZM41 39H38V40.5H41V39ZM50 33V39C50.0002 39.197 49.9616 39.3922 49.8863 39.5743C49.811 39.7564 49.7005 39.9218 49.5612 40.0612C49.4218 40.2005 49.2564 40.311 49.0743 40.3863C48.8922 40.4616 48.697 40.5002 48.5 40.5H47V31.5H48.5C48.697 31.4998 48.8922 31.5384 49.0743 31.6137C49.2564 31.689 49.4218 31.7995 49.5612 31.9388C49.7005 32.0782 49.811 32.2436 49.8863 32.4257C49.9616 32.6078 50.0002 32.803 50 33Z" fill="#FD346E"/>
</svg>
