<svg width="85" height="85" viewBox="0 0 85 85" fill="none" xmlns="http://www.w3.org/2000/svg">
<g filter="url(#filter0_d_508_1658)">
<rect x="16" y="2" width="65" height="65" rx="32.5" fill="#6001D3"/>
</g>
<path d="M61.3 48.11V43.36C61.3 42.03 61.11 40.7 60.35 39.37C59.59 38.04 58.6399 36.9 57.3099 36.14C55.9799 35.19 53.13 35 51.8 35L48.76 38.23L49.9 40.7V46.4L48 48.49L46.1 46.4V40.7L47.43 38.23L44.2 35C42.68 35 39.83 35.19 38.5 36.14C37.17 36.9 36.41 38.04 35.65 39.37C34.89 40.7 34.7 41.84 34.7 43.36V48.11C34.7 48.11 39.64 50.2 48 50.2C56.36 50.2 61.3 48.11 61.3 48.11ZM48 19.99C44.39 19.99 42.3 23.41 42.87 27.21C43.44 31.01 45.34 33.67 48 33.67C50.66 33.67 52.5599 31.01 53.13 27.21C53.7 23.22 51.61 19.99 48 19.99Z" fill="white"/>
<defs>
<filter id="filter0_d_508_1658" x="0" y="0" width="85" height="85" filterUnits="userSpaceOnUse" color-interpolation-filters="sRGB">
<feFlood flood-opacity="0" result="BackgroundImageFix"/>
<feColorMatrix in="SourceAlpha" type="matrix" values="0 0 0 0 0 0 0 0 0 0 0 0 0 0 0 0 0 0 127 0" result="hardAlpha"/>
<feOffset dx="-6" dy="8"/>
<feGaussianBlur stdDeviation="5"/>
<feColorMatrix type="matrix" values="0 0 0 0 0.376471 0 0 0 0 0.00392157 0 0 0 0 0.827451 0 0 0 0.25 0"/>
<feBlend mode="normal" in2="BackgroundImageFix" result="effect1_dropShadow_508_1658"/>
<feBlend mode="normal" in="SourceGraphic" in2="effect1_dropShadow_508_1658" result="shape"/>
</filter>
</defs>
</svg>
