<svg width="67" height="65" viewBox="0 0 67 65" fill="none" xmlns="http://www.w3.org/2000/svg">
<rect opacity="0.1" width="66.2264" height="65" rx="32.5" fill="#1DE2CF"/>
<path d="M21 27C21 26.2044 21.3161 25.4413 21.8787 24.8787C22.4413 24.3161 23.2044 24 24 24H42C42.7956 24 43.5587 24.3161 44.1213 24.8787C44.6839 25.4413 45 26.2044 45 27V34.5H21V27ZM38.25 28.5C38.0511 28.5 37.8603 28.579 37.7197 28.7197C37.579 28.8603 37.5 29.0511 37.5 29.25V30.75C37.5 30.9489 37.579 31.1397 37.7197 31.2803C37.8603 31.421 38.0511 31.5 38.25 31.5H41.25C41.4489 31.5 41.6397 31.421 41.7803 31.2803C41.921 31.1397 42 30.9489 42 30.75V29.25C42 29.0511 41.921 28.8603 41.7803 28.7197C41.6397 28.579 41.4489 28.5 41.25 28.5H38.25ZM21 37.5V39C21 39.7956 21.3161 40.5587 21.8787 41.1213C22.4413 41.6839 23.2044 42 24 42H42C42.7956 42 43.5587 41.6839 44.1213 41.1213C44.6839 40.5587 45 39.7956 45 39V37.5H21Z" fill="#1DE2CF"/>
</svg>
