<svg width="69" height="65" viewBox="0 0 69 65" fill="none" xmlns="http://www.w3.org/2000/svg">
<rect opacity="0.1" x="0.769226" width="67.5" height="65" rx="32.5" fill="#FCDC00"/>
<path d="M45.9957 34.125H35.8121L42.6011 40.957C42.8589 41.2148 43.2886 41.2148 43.5464 40.957C45.2222 39.4102 46.3824 37.3047 46.6832 34.8984C46.7691 34.5117 46.4253 34.125 45.9957 34.125ZM45.3082 31.375C44.9644 26.2188 40.8824 22.1367 35.7261 21.793C35.3394 21.75 35.0386 22.0938 35.0386 22.4805V32.0625H44.6207C45.0074 32.0625 45.3511 31.7617 45.3082 31.375ZM32.9761 34.125V23.9414C32.9761 23.5547 32.5894 23.2109 32.2027 23.2539C27.0464 23.9844 23.1363 28.4531 23.3511 33.8242C23.523 39.3242 28.2496 43.8359 33.7925 43.75C35.941 43.75 37.9605 43.0625 39.5933 41.8594C39.9371 41.6445 39.9371 41.1289 39.6363 40.8281L32.9761 34.125Z" fill="#FFD700"/>
</svg>
