<svg width="42" height="36" viewBox="0 0 42 36" fill="none" xmlns="http://www.w3.org/2000/svg">
<path d="M20.0728 17.4574C20.5832 17.9558 21.4144 17.9558 21.9321 17.4574L29.8723 9.76498C32.1764 7.52866 32.0451 3.82393 29.464 1.76275C27.2183 -0.03573 23.8716 0.287592 21.8155 2.28141L20.9988 3.06951L20.1895 2.28815C18.1334 0.287592 14.7867 -0.03573 12.541 1.76275C9.96716 3.82393 9.82862 7.52866 12.1327 9.76498L20.0728 17.4574ZM41.2175 22.6844C40.3571 21.9637 39.0156 22.0108 38.1114 22.6844L31.3743 27.6622C30.5504 28.2752 29.5223 28.6052 28.4578 28.6052H19.8322C19.1906 28.6052 18.6656 28.1203 18.6656 27.5275C18.6656 26.9347 19.1906 26.4498 19.8322 26.4498H25.5413C26.7006 26.4498 27.7797 25.7155 27.9693 24.658C28.2099 23.3108 27.087 22.1388 25.6652 22.1388H13.9992C12.0306 22.1388 10.1276 22.7652 8.5964 23.9103L5.20596 26.4498H1.1666C0.524971 26.4498 0 26.9347 0 27.5275V33.9939C0 34.5867 0.524971 35.0717 1.1666 35.0717H27.1818C28.2391 35.0717 29.2671 34.7416 30.0983 34.1287L41.1227 25.9782C42.231 25.1632 42.3185 23.6005 41.2175 22.6844Z" fill="#95A3D5"/>
</svg>
