<svg width="110" height="109" viewBox="0 0 110 109" fill="none" xmlns="http://www.w3.org/2000/svg">
<g filter="url(#filter0_d_1432_949)">
<ellipse cx="54.8881" cy="54.5" rx="44.389" ry="44.5" fill="#fff" fill-opacity="0.1"/>
</g>
<path d="M74.3641 33H70.5195C70.3877 32.9999 70.2572 33.0266 70.1361 33.0785C70.0149 33.1304 69.9055 33.2065 69.8145 33.3021C69.7235 33.3977 69.6528 33.5109 69.6067 33.6347C69.5606 33.7586 69.5401 33.8905 69.5463 34.0226L69.8707 40.755C67.9848 38.5256 65.6373 36.7352 62.9915 35.5083C60.3458 34.2815 57.4653 33.6476 54.5506 33.6508C43.4684 33.6508 34.4313 42.7237 34.4395 53.8408C34.4476 64.9759 43.4489 74 54.5506 74C59.5306 74.007 64.3347 72.1536 68.0266 68.801C68.1253 68.7124 68.2049 68.6046 68.2605 68.4842C68.3162 68.3637 68.3468 68.2331 68.3504 68.1004C68.3541 67.9677 68.3307 67.8356 68.2817 67.7123C68.2327 67.5889 68.1592 67.4769 68.0656 67.383L65.3084 64.6172C65.1339 64.4422 64.8997 64.3402 64.6531 64.3319C64.4064 64.3236 64.1659 64.4096 63.9801 64.5724C61.8015 66.4952 59.0904 67.7062 56.2082 68.0439C53.3261 68.3816 50.4097 67.83 47.8481 66.4626C45.2864 65.0952 43.2011 62.9769 41.8701 60.3903C40.5391 57.8037 40.0256 54.8715 40.3982 51.9847C40.7708 49.0978 42.0118 46.3935 43.9556 44.2322C45.8994 42.0709 48.4537 40.5554 51.2781 39.8875C54.1025 39.2197 57.0627 39.4314 59.7641 40.4943C62.4655 41.5572 64.7797 43.4209 66.3983 45.8369L58.1649 45.4407C58.0333 45.4344 57.9017 45.4551 57.7783 45.5013C57.6548 45.5475 57.542 45.6184 57.4467 45.7097C57.3514 45.801 57.2756 45.9108 57.2238 46.0323C57.172 46.1539 57.1454 46.2847 57.1456 46.4169V50.2737C57.1456 50.5326 57.2481 50.7809 57.4306 50.964C57.6131 51.147 57.8606 51.2499 58.1187 51.2499H74.3641C74.6222 51.2499 74.8697 51.147 75.0522 50.964C75.2347 50.7809 75.3372 50.5326 75.3372 50.2737V33.9762C75.3372 33.7173 75.2347 33.469 75.0522 33.2859C74.8697 33.1028 74.6222 33 74.3641 33Z" fill="#fff"/>
<defs>
<filter id="filter0_d_1432_949" x="0.499023" y="0" width="108.778" height="109" filterUnits="userSpaceOnUse" color-interpolation-filters="sRGB">
<feFlood flood-opacity="0" result="BackgroundImageFix"/>
<feColorMatrix in="SourceAlpha" type="matrix" values="0 0 0 0 0 0 0 0 0 0 0 0 0 0 0 0 0 0 127 0" result="hardAlpha"/>
<feOffset/>
<feGaussianBlur stdDeviation="5"/>
<feColorMatrix type="matrix" values="0 0 0 0 0.376471 0 0 0 0 0.00392157 0 0 0 0 0.827451 0 0 0 0.25 0"/>
<feBlend mode="normal" in2="BackgroundImageFix" result="effect1_dropShadow_1432_949"/>
<feBlend mode="normal" in="SourceGraphic" in2="effect1_dropShadow_1432_949" result="shape"/>
</filter>
</defs>
</svg>
