<svg width="109" height="109" viewBox="0 0 109 109" fill="none" xmlns="http://www.w3.org/2000/svg">
<g filter="url(#filter0_d_1432_968)">
<ellipse cx="54.5677" cy="54.5" rx="44.389" ry="44.5" fill="#fff" fill-opacity="0.1"/>
</g>
<path d="M77.0118 54.5C77.0118 66.9264 66.9634 77 54.5679 77C42.1725 77 32.124 66.9264 32.124 54.5C32.124 42.0736 42.1725 32 54.5679 32C66.9634 32 77.0118 42.0736 77.0118 54.5ZM51.9718 66.4136L68.6238 49.72C69.1892 49.1532 69.1892 48.234 68.6238 47.6672L66.576 45.6143C66.0106 45.0474 65.0937 45.0474 64.5282 45.6143L50.9479 59.2284L44.6076 52.8723C44.0422 52.3054 43.1253 52.3054 42.5598 52.8723L40.5121 54.9251C39.9466 55.492 39.9466 56.4111 40.5121 56.978L49.924 66.4135C50.4896 66.9804 51.4063 66.9804 51.9718 66.4136Z" fill="#fff"/>
<defs>
<filter id="filter0_d_1432_968" x="0.178711" y="0" width="108.778" height="109" filterUnits="userSpaceOnUse" color-interpolation-filters="sRGB">
<feFlood flood-opacity="0" result="BackgroundImageFix"/>
<feColorMatrix in="SourceAlpha" type="matrix" values="0 0 0 0 0 0 0 0 0 0 0 0 0 0 0 0 0 0 127 0" result="hardAlpha"/>
<feOffset/>
<feGaussianBlur stdDeviation="5"/>
<feColorMatrix type="matrix" values="0 0 0 0 0.113725 0 0 0 0 0.886275 0 0 0 0 0.811765 0 0 0 0.25 0"/>
<feBlend mode="normal" in2="BackgroundImageFix" result="effect1_dropShadow_1432_968"/>
<feBlend mode="normal" in="SourceGraphic" in2="effect1_dropShadow_1432_968" result="shape"/>
</filter>
</defs>
</svg>
