<svg width="109" height="109" viewBox="0 0 109 109" fill="none" xmlns="http://www.w3.org/2000/svg">
<g filter="url(#filter0_d_1432_589)">
<circle cx="54.5" cy="54.5" r="44.5" fill="#fff" fill-opacity="0.1"/>
</g>
<path d="M60.8869 52.4254L51.1348 49.5246C50.0061 49.1941 49.2205 48.1201 49.2205 46.9268C49.2205 45.4305 50.4124 44.2188 51.8843 44.2188H57.871C58.9726 44.2188 60.0561 44.5584 60.9591 45.1826C61.5099 45.559 62.2504 45.4672 62.7199 44.999L65.8623 41.8779C66.5034 41.2445 66.4131 40.1889 65.6997 39.6289C63.4874 37.8664 60.7243 36.8842 57.889 36.875V32.4688C57.889 31.6609 57.2389 31 56.4443 31H53.5547C52.7601 31 52.11 31.6609 52.11 32.4688V36.875H51.8843C46.1323 36.875 41.5091 41.8963 42.0419 47.8539C42.4211 52.0857 45.5996 55.5281 49.6088 56.7215L58.8642 59.4754C59.9929 59.815 60.7785 60.8799 60.7785 62.0732C60.7785 63.5695 59.5866 64.7812 58.1148 64.7812H52.1281C51.0264 64.7812 49.9429 64.4416 49.0399 63.8174C48.4891 63.441 47.7486 63.5328 47.2791 64.001L44.1368 67.1221C43.4956 67.7555 43.5859 68.8111 44.2993 69.3711C46.5116 71.1336 49.2747 72.1158 52.11 72.125V76.5312C52.11 77.3391 52.7601 78 53.5547 78H56.4443C57.2389 78 57.889 77.3391 57.889 76.5312V72.1066C62.0969 72.024 66.0428 69.4813 67.4334 65.433C69.3748 59.7783 66.1151 53.9768 60.8869 52.4254Z" fill="#fff"/>
<defs>
<filter id="filter0_d_1432_589" x="0" y="0" width="109" height="109" filterUnits="userSpaceOnUse" color-interpolation-filters="sRGB">
<feFlood flood-opacity="0" result="BackgroundImageFix"/>
<feColorMatrix in="SourceAlpha" type="matrix" values="0 0 0 0 0 0 0 0 0 0 0 0 0 0 0 0 0 0 127 0" result="hardAlpha"/>
<feOffset/>
<feGaussianBlur stdDeviation="5"/>
<feColorMatrix type="matrix" values="0 0 0 0 0.113725 0 0 0 0 0.886275 0 0 0 0 0.811765 0 0 0 0.25 0"/>
<feBlend mode="normal" in2="BackgroundImageFix" result="effect1_dropShadow_1432_589"/>
<feBlend mode="normal" in="SourceGraphic" in2="effect1_dropShadow_1432_589" result="shape"/>
</filter>
</defs>
</svg>
