<svg width="109" height="109" viewBox="0 0 109 109" fill="none" xmlns="http://www.w3.org/2000/svg">
<g filter="url(#filter0_d_1432_575)">
<circle cx="54.5" cy="54.5" r="44.5" fill="#fff" fill-opacity="0.1"/>
</g>
<path d="M67.0766 49.8746H56.1516V53.9218C56.1516 56.791 53.83 59.1254 50.9766 59.1254C48.1232 59.1254 45.8016 56.791 45.8016 53.9218V45.1336L41.1369 47.9522C39.7498 48.7833 38.9016 50.2938 38.9016 51.9127V55.3311L33.1516 58.6701C32.052 59.3061 31.671 60.7226 32.3107 61.8284L38.0607 71.8452C38.6932 72.951 40.1019 73.3268 41.2016 72.6908L48.6335 68.3762H58.4516C60.9888 68.3762 63.0516 66.302 63.0516 63.7508H64.2016C65.4738 63.7508 66.5016 62.7173 66.5016 61.4381V56.8127H67.0766C68.0325 56.8127 68.8016 56.0394 68.8016 55.0782V51.6091C68.8016 50.6479 68.0325 49.8746 67.0766 49.8746ZM77.6925 47.1716L71.9425 37.1548C71.31 36.049 69.9013 35.6732 68.8016 36.3092L61.3697 40.6238H54.0241C53.1616 40.6238 52.3207 40.8696 51.5875 41.3249L49.1797 42.8353C48.5041 43.2545 48.1016 43.9989 48.1016 44.7939V53.9218C48.1016 55.519 49.3882 56.8127 50.9766 56.8127C52.565 56.8127 53.8516 55.519 53.8516 53.9218V47.5619H67.0766C69.2975 47.5619 71.1016 49.3759 71.1016 51.6091V53.6689L76.8516 50.3299C77.9512 49.6867 78.325 48.2774 77.6925 47.1716Z" fill="#fff"/>
<defs>
<filter id="filter0_d_1432_575" x="0" y="0" width="109" height="109" filterUnits="userSpaceOnUse" color-interpolation-filters="sRGB">
<feFlood flood-opacity="0" result="BackgroundImageFix"/>
<feColorMatrix in="SourceAlpha" type="matrix" values="0 0 0 0 0 0 0 0 0 0 0 0 0 0 0 0 0 0 127 0" result="hardAlpha"/>
<feOffset/>
<feGaussianBlur stdDeviation="5"/>
<feColorMatrix type="matrix" values="0 0 0 0 0.376471 0 0 0 0 0.00392157 0 0 0 0 0.827451 0 0 0 0.25 0"/>
<feBlend mode="normal" in2="BackgroundImageFix" result="effect1_dropShadow_1432_575"/>
<feBlend mode="normal" in="SourceGraphic" in2="effect1_dropShadow_1432_575" result="shape"/>
</filter>
</defs>
</svg>
