<svg width="170" height="170" viewBox="0 0 170 170" fill="none" xmlns="http://www.w3.org/2000/svg">
<g filter="url(#filter0_d_1432_1378)">
<circle cx="85.0612" cy="64.8059" r="64.7253" fill="#6001D3"/>
</g>
<path d="M110.462 55.8236L86.9532 48.6751C85.6722 48.2855 84.2901 48.2855 83.0099 48.6751L59.5006 55.8236C57.5167 56.4267 57.5167 59.0233 59.5006 59.6264L63.599 60.8726C62.6998 61.9728 62.1469 63.3149 62.0922 64.7847C61.2806 65.2451 60.7092 66.0759 60.7092 67.0677C60.7092 67.9669 61.1879 68.7234 61.8773 69.2072L59.7256 78.7897C59.5385 79.623 60.1791 80.4138 61.0412 80.4138H65.77C66.633 80.4138 67.2736 79.623 67.0865 78.7897L64.9348 69.2072C65.6242 68.7234 66.1029 67.9669 66.1029 67.0677C66.1029 66.1026 65.5577 65.2952 64.7831 64.8264C64.8472 63.5735 65.4945 62.4658 66.5269 61.7634L83.0091 66.7757C83.7726 67.0076 85.2374 67.2971 86.9524 66.7757L110.462 59.6272C112.446 59.0233 112.446 56.4275 110.462 55.8236ZM87.7446 69.3274C85.3402 70.0581 83.2914 69.6543 82.2168 69.3274L69.9949 65.6113L68.7998 75.0754C68.7998 78.024 76.0443 80.4138 84.9812 80.4138C93.918 80.4138 101.162 78.024 101.162 75.0754L99.9674 65.6105L87.7446 69.3274Z" fill="white"/>
<defs>
<filter id="filter0_d_1432_1378" x="0.335938" y="0.0805664" width="169.451" height="169.451" filterUnits="userSpaceOnUse" color-interpolation-filters="sRGB">
<feFlood flood-opacity="0" result="BackgroundImageFix"/>
<feColorMatrix in="SourceAlpha" type="matrix" values="0 0 0 0 0 0 0 0 0 0 0 0 0 0 0 0 0 0 127 0" result="hardAlpha"/>
<feOffset dy="20"/>
<feGaussianBlur stdDeviation="10"/>
<feColorMatrix type="matrix" values="0 0 0 0 0.911012 0 0 0 0 0.8375 0 0 0 0 1 0 0 0 1 0"/>
<feBlend mode="normal" in2="BackgroundImageFix" result="effect1_dropShadow_1432_1378"/>
<feBlend mode="normal" in="SourceGraphic" in2="effect1_dropShadow_1432_1378" result="shape"/>
</filter>
</defs>
</svg>
