<svg width="170" height="170" viewBox="0 0 170 170" fill="none" xmlns="http://www.w3.org/2000/svg">
<g filter="url(#filter0_d_1432_1386)">
<circle cx="85.0339" cy="64.8056" r="64.7253" fill="#1DE2CF"/>
</g>
<path d="M57.9844 79.8034C57.9844 82.077 59.9977 83.9217 62.4792 83.9217H107.427C109.909 83.9217 111.922 82.077 111.922 79.8034V64.7031H57.9844V79.8034ZM75.9636 73.9692C75.9636 73.403 76.4693 72.9396 77.0873 72.9396H89.8226C90.4407 72.9396 90.9463 73.403 90.9463 73.9692V77.4011C90.9463 77.9674 90.4407 78.4307 89.8226 78.4307H77.0873C76.4693 78.4307 75.9636 77.9674 75.9636 77.4011V73.9692ZM63.9775 73.9692C63.9775 73.403 64.4831 72.9396 65.1012 72.9396H71.8434C72.4614 72.9396 72.9671 73.403 72.9671 73.9692V77.4011C72.9671 77.9674 72.4614 78.4307 71.8434 78.4307H65.1012C64.4831 78.4307 63.9775 77.9674 63.9775 77.4011V73.9692ZM111.922 49.6029V53.7211H57.9844V49.6029C57.9844 47.3293 59.9977 45.4846 62.4792 45.4846H107.427C109.909 45.4846 111.922 47.3293 111.922 49.6029Z" fill="white"/>
<defs>
<filter id="filter0_d_1432_1386" x="0.308594" y="0.0803223" width="169.451" height="169.451" filterUnits="userSpaceOnUse" color-interpolation-filters="sRGB">
<feFlood flood-opacity="0" result="BackgroundImageFix"/>
<feColorMatrix in="SourceAlpha" type="matrix" values="0 0 0 0 0 0 0 0 0 0 0 0 0 0 0 0 0 0 127 0" result="hardAlpha"/>
<feOffset dy="20"/>
<feGaussianBlur stdDeviation="10"/>
<feColorMatrix type="matrix" values="0 0 0 0 0.820833 0 0 0 0 1 0 0 0 0 0.98272 0 0 0 1 0"/>
<feBlend mode="normal" in2="BackgroundImageFix" result="effect1_dropShadow_1432_1386"/>
<feBlend mode="normal" in="SourceGraphic" in2="effect1_dropShadow_1432_1386" result="shape"/>
</filter>
</defs>
</svg>
