<svg width="170" height="171" viewBox="0 0 170 171" fill="none" xmlns="http://www.w3.org/2000/svg">
<g filter="url(#filter0_d_1432_1410)">
<circle cx="84.9997" cy="65.3332" r="64.7253" fill="#FF1E38"/>
</g>
<path d="M93.0102 72.5519H97.0555C97.7298 72.5519 98.404 71.8401 98.404 71.1283V56.1806C98.404 55.4688 97.7298 54.757 97.0555 54.757H93.0102C92.336 54.757 91.6618 55.4688 91.6618 56.1806V71.1283C91.6618 71.8401 92.336 72.5519 93.0102 72.5519ZM103.124 72.5519H107.169C107.843 72.5519 108.517 71.8401 108.517 71.1283V45.5037C108.517 44.7919 107.843 44.0801 107.169 44.0801H103.124C102.449 44.0801 101.775 44.7919 101.775 45.5037V71.1283C101.775 71.8401 102.449 72.5519 103.124 72.5519ZM72.7836 72.5519H76.8289C77.5031 72.5519 78.1773 71.8401 78.1773 71.1283V63.2986C78.1773 62.5868 77.5031 61.875 76.8289 61.875H72.7836C72.1093 61.875 71.4351 62.5868 71.4351 63.2986V71.1283C71.4351 71.8401 72.1093 72.5519 72.7836 72.5519ZM82.8969 72.5519H86.9422C87.6164 72.5519 88.2907 71.8401 88.2907 71.1283V49.0627C88.2907 48.3509 87.6164 47.6391 86.9422 47.6391H82.8969C82.2227 47.6391 81.5484 48.3509 81.5484 49.0627V71.1283C81.5484 71.8401 82.2227 72.5519 82.8969 72.5519ZM110.203 79.6699H64.6929V45.8596C64.6929 44.8764 63.9386 44.0801 63.0073 44.0801H59.6362C58.705 44.0801 57.9507 44.8764 57.9507 45.8596V83.2289C57.9507 85.1941 59.4603 86.7879 61.3218 86.7879H110.203C111.134 86.7879 111.888 85.9916 111.888 85.0084V81.4494C111.888 80.4662 111.134 79.6699 110.203 79.6699Z" fill="white"/>
<defs>
<filter id="filter0_d_1432_1410" x="0.274414" y="0.60791" width="169.451" height="169.451" filterUnits="userSpaceOnUse" color-interpolation-filters="sRGB">
<feFlood flood-opacity="0" result="BackgroundImageFix"/>
<feColorMatrix in="SourceAlpha" type="matrix" values="0 0 0 0 0 0 0 0 0 0 0 0 0 0 0 0 0 0 127 0" result="hardAlpha"/>
<feOffset dy="20"/>
<feGaussianBlur stdDeviation="10"/>
<feColorMatrix type="matrix" values="0 0 0 0 1 0 0 0 0 0.117647 0 0 0 0 0.219608 0 0 0 0.2 0"/>
<feBlend mode="normal" in2="BackgroundImageFix" result="effect1_dropShadow_1432_1410"/>
<feBlend mode="normal" in="SourceGraphic" in2="effect1_dropShadow_1432_1410" result="shape"/>
</filter>
</defs>
</svg>
