<svg width="170" height="170" viewBox="0 0 170 170" fill="none" xmlns="http://www.w3.org/2000/svg">
<g filter="url(#filter0_d_1432_1394)">
<circle cx="84.904" cy="64.8056" r="64.7253" fill="#FF5200"/>
</g>
<path d="M102.162 67.0021L104.679 60.475C105.101 59.3801 104.29 58.2124 103.099 58.2124H96.9363C98.0951 56.2417 98.8115 53.9791 98.8115 51.5393V51.508C102.941 50.6947 105.554 49.5165 105.554 48.2027C105.554 46.816 102.678 45.5856 98.1689 44.7619C97.1997 41.3419 95.3245 37.9011 93.8918 36.1286C92.891 34.8878 91.1633 34.502 89.7306 35.211L86.823 36.6499C85.8749 37.1191 84.7582 37.1191 83.8101 36.6499L80.9025 35.211C79.4697 34.502 77.7421 34.8878 76.7413 36.1286C75.3191 37.9011 73.4334 41.3419 72.4642 44.7619C67.9658 45.5856 65.0899 46.816 65.0899 48.2027C65.0899 49.5165 67.7025 50.6947 71.8321 51.508V51.5393C71.8321 53.9791 72.5484 56.2417 73.7073 58.2124H67.6498C66.4383 58.2124 65.6271 59.4323 66.1012 60.5375L68.8191 66.8144C64.5947 69.2438 61.7188 73.7169 61.7188 78.899V83.5701C61.7188 86.1455 63.8362 88.2413 66.4383 88.2413H104.195C106.797 88.2413 108.914 86.1455 108.914 83.5701V78.899C108.914 73.8524 106.196 69.4732 102.162 67.0021ZM80.2599 84.9047L75.8774 64.8855L81.1026 68.222L83.631 72.3927L80.2599 84.9047ZM90.3732 84.9047L87.0021 72.3927L89.5304 68.222L94.7556 64.8855L90.3732 84.9047ZM94.7662 53.781C94.3553 55.0218 94.0287 56.346 93.0279 57.2635C91.9639 58.2332 87.9713 59.5991 86.2857 54.6568C85.9907 53.781 84.6634 53.781 84.3579 54.6568C82.567 59.8911 78.4584 58.0351 77.6156 57.2635C76.6148 56.346 76.2777 55.0218 75.8774 53.781C75.7931 53.5203 75.2137 53.1867 75.2137 53.1763V52.0502C78.195 52.4255 81.6399 52.6549 85.3271 52.6549C89.0142 52.6549 92.4591 52.436 95.4404 52.0502V53.1763C95.4298 53.1867 94.8504 53.5099 94.7662 53.781Z" fill="white"/>
<defs>
<filter id="filter0_d_1432_1394" x="0.178711" y="0.0803223" width="169.451" height="169.451" filterUnits="userSpaceOnUse" color-interpolation-filters="sRGB">
<feFlood flood-opacity="0" result="BackgroundImageFix"/>
<feColorMatrix in="SourceAlpha" type="matrix" values="0 0 0 0 0 0 0 0 0 0 0 0 0 0 0 0 0 0 127 0" result="hardAlpha"/>
<feOffset dy="20"/>
<feGaussianBlur stdDeviation="10"/>
<feColorMatrix type="matrix" values="0 0 0 0 1 0 0 0 0 0.911128 0 0 0 0 0.804167 0 0 0 1 0"/>
<feBlend mode="normal" in2="BackgroundImageFix" result="effect1_dropShadow_1432_1394"/>
<feBlend mode="normal" in="SourceGraphic" in2="effect1_dropShadow_1432_1394" result="shape"/>
</filter>
</defs>
</svg>
