<svg width="250" height="250" viewBox="0 0 170 171" fill="none" xmlns="http://www.w3.org/2000/svg">
<g filter="url(#filter0_d_1432_1418)">
<circle cx="84.9382" cy="65.3332" r="64.7253" fill="#1A75FF"/>
</g>
<path d="M53.0586 61.8749V74.1534C53.0586 75.8513 54.4566 77.223 56.187 77.223H59.3154V58.8052H56.187C54.4566 58.8052 53.0586 60.177 53.0586 61.8749ZM98.4202 46.5267H87.4709V40.3875C87.4709 38.6896 86.0729 37.3179 84.3425 37.3179C82.6121 37.3179 81.2141 38.6896 81.2141 40.3875V46.5267H70.2647C65.9437 46.5267 62.4438 49.9609 62.4438 54.2008V80.2926C62.4438 83.6788 65.2495 86.4319 68.7005 86.4319H99.9844C103.435 86.4319 106.241 83.6788 106.241 80.2926V54.2008C106.241 49.9609 102.741 46.5267 98.4202 46.5267ZM78.0857 77.223H71.8289V74.1534H78.0857V77.223ZM74.9573 65.7119C72.7968 65.7119 71.0468 63.9948 71.0468 61.8749C71.0468 59.7549 72.7968 58.0378 74.9573 58.0378C77.1179 58.0378 78.8678 59.7549 78.8678 61.8749C78.8678 63.9948 77.1179 65.7119 74.9573 65.7119ZM87.4709 77.223H81.2141V74.1534H87.4709V77.223ZM96.8561 77.223H90.5993V74.1534H96.8561V77.223ZM93.7277 65.7119C91.5671 65.7119 89.8172 63.9948 89.8172 61.8749C89.8172 59.7549 91.5671 58.0378 93.7277 58.0378C95.8882 58.0378 97.6382 59.7549 97.6382 61.8749C97.6382 63.9948 95.8882 65.7119 93.7277 65.7119ZM112.498 58.8052H109.37V77.223H112.498C114.228 77.223 115.626 75.8513 115.626 74.1534V61.8749C115.626 60.177 114.228 58.8052 112.498 58.8052Z" fill="white"/>
<defs>
<filter id="filter0_d_1432_1418" x="0.212891" y="0.60791" width="169.451" height="169.451" filterUnits="userSpaceOnUse" color-interpolation-filters="sRGB">
<feFlood flood-opacity="0" result="BackgroundImageFix"/>
<feColorMatrix in="SourceAlpha" type="matrix" values="0 0 0 0 0 0 0 0 0 0 0 0 0 0 0 0 0 0 127 0" result="hardAlpha"/>
<feOffset dy="20"/>
<feGaussianBlur stdDeviation="10"/>
<feColorMatrix type="matrix" values="0 0 0 0 0 0 0 0 0 0.254902 0 0 0 0 1 0 0 0 0.2 0"/>
<feBlend mode="normal" in2="BackgroundImageFix" result="effect1_dropShadow_1432_1418"/>
<feBlend mode="normal" in="SourceGraphic" in2="effect1_dropShadow_1432_1418" result="shape"/>
</filter>
</defs>
</svg>
