<svg width="100" height="100" viewBox="0 0 100 100" fill="none" xmlns="http://www.w3.org/2000/svg">
<g filter="url(#filter0_d_508_2257)">
<circle cx="50" cy="30" r="30" fill="#6001D3"/>
</g>
<g clip-path="url(#clip0_508_2257)">
<path d="M50.5002 22.0358L50.2556 21.9235L45.6616 19.8158C45.2734 20.5616 45.0537 21.4081 45.0537 22.3056C45.0537 25.2998 47.492 27.7269 50.5002 27.7269C53.5084 27.7269 55.9459 25.2998 55.9459 22.3056C55.9459 21.4081 55.7262 20.5616 55.338 19.8158L50.7441 21.9235L50.5002 22.0358Z" fill="white"/>
<path d="M52.3959 28.7126L51.3251 31.4422H49.5628L48.5945 28.7148C43.5575 29.7071 40 34.5561 40 39.7769C40 43.8896 42.2076 44.8141 45.6083 45H55.3917C58.7917 44.8141 61 43.8896 61 39.7769C61 34.5524 57.4381 29.7005 52.3959 28.7126ZM51.6247 39.9971C51.6247 39.9971 50.7816 41.8818 50.5004 42.511C50.2352 41.8796 49.439 39.9869 49.439 39.9869C49.4325 39.9716 49.4295 39.9556 49.4303 39.9388L49.6214 32.9208C49.6236 32.8632 49.6661 32.8165 49.7188 32.8165H51.2834C51.3361 32.8165 51.3786 32.8625 51.3808 32.9201L51.6357 39.9461C51.6357 39.9643 51.6327 39.9818 51.6254 39.9979L51.6247 39.9971Z" fill="white"/>
<path d="M58.4197 17.6337L50.4998 14L42.5806 17.6337L50.4998 21.2681L58.4197 17.6337Z" fill="white"/>
</g>
<defs>
<filter id="filter0_d_508_2257" x="0" y="0" width="100" height="100" filterUnits="userSpaceOnUse" color-interpolation-filters="sRGB">
<feFlood flood-opacity="0" result="BackgroundImageFix"/>
<feColorMatrix in="SourceAlpha" type="matrix" values="0 0 0 0 0 0 0 0 0 0 0 0 0 0 0 0 0 0 127 0" result="hardAlpha"/>
<feOffset dy="20"/>
<feGaussianBlur stdDeviation="10"/>
<feColorMatrix type="matrix" values="0 0 0 0 0.911012 0 0 0 0 0.8375 0 0 0 0 1 0 0 0 1 0"/>
<feBlend mode="normal" in2="BackgroundImageFix" result="effect1_dropShadow_508_2257"/>
<feBlend mode="normal" in="SourceGraphic" in2="effect1_dropShadow_508_2257" result="shape"/>
</filter>
<clipPath id="clip0_508_2257">
<rect width="21" height="31" fill="white" transform="translate(40 14)"/>
</clipPath>
</defs>
</svg>
