<svg width="100" height="100" viewBox="0 0 100 100" fill="none" xmlns="http://www.w3.org/2000/svg">
<g filter="url(#filter0_d_508_2233)">
<circle cx="50" cy="30" r="30" fill="#FCDC00"/>
</g>
<g clip-path="url(#clip0_508_2233)">
<path d="M63.2441 21.023L60.8571 23.4096C62.0288 25.3324 62.7041 27.5891 62.7041 30.0006C62.7041 37.0063 57.0038 42.7058 49.9972 42.7058C42.9906 42.7058 37.2904 37.0063 37.2904 30.0006C37.2904 22.9948 42.9907 17.2953 49.9973 17.2953C52.6084 17.2953 55.038 18.0869 57.0589 19.4426L59.428 17.0738C54.7747 13.6735 48.7928 13.134 43.7682 15.259C42.8197 15.6601 41.9049 16.1565 41.0494 16.7345C31.6247 23.1009 31.6758 36.9348 41.0494 43.2667C42.7267 44.3998 44.6617 45.243 46.7741 45.6752C47.8283 45.8909 48.9127 46.0002 49.9973 46.0002C51.0819 46.0002 52.1663 45.8909 53.2205 45.6752C54.2486 45.4648 55.26 45.1509 56.2264 44.7422C57.1748 44.3411 58.0896 43.8447 58.9451 43.2667C59.792 42.6946 60.5885 42.0377 61.3122 41.314C62.0359 40.5904 62.6929 39.7941 63.2651 38.9473C66.916 33.544 66.9142 26.4263 63.2441 21.023V21.023Z" fill="white"/>
<path d="M49.9865 28.0669L44.5592 22.6403L42.2295 24.9698L49.9866 32.7258C50.1295 32.583 65.0859 17.6285 65.2222 17.4922L62.8924 15.1628C62.8616 15.1936 50.4315 27.6222 49.9866 28.0669H49.9865Z" fill="white"/>
<path d="M50.6495 21.385V19.0881C50.6495 18.7279 50.3576 18.436 49.9974 18.436C49.6372 18.436 49.3452 18.7279 49.3452 19.0881V21.385C49.3452 21.7452 49.6372 22.0371 49.9974 22.0371C50.3576 22.0371 50.6495 21.7456 50.6495 21.385Z" fill="white"/>
<path d="M49.9974 37.9637C49.6372 37.9637 49.3452 38.2557 49.3452 38.6158V40.9128C49.3452 41.2726 49.6368 41.5649 49.9974 41.5649C50.358 41.5649 50.6495 41.2729 50.6495 40.9128V38.6158C50.6495 38.2557 50.3576 37.9637 49.9974 37.9637Z" fill="white"/>
<path d="M39.0833 29.3484C38.7231 29.3484 38.4312 29.6403 38.4312 30.0004C38.4312 30.3606 38.7231 30.6525 39.0833 30.6525H41.3806C41.7408 30.6525 42.0328 30.3606 42.0328 30.0004C42.0328 29.6403 41.7408 29.3484 41.3806 29.3484H39.0833Z" fill="white"/>
<path d="M57.9614 30.0004C57.9614 30.3606 58.2534 30.6525 58.6136 30.6525H60.9109C61.2711 30.6525 61.563 30.3606 61.563 30.0004C61.563 29.6403 61.2711 29.3484 60.9109 29.3484H58.6136C58.2534 29.3484 57.9614 29.6403 57.9614 30.0004Z" fill="white"/>
</g>
<defs>
<filter id="filter0_d_508_2233" x="0" y="0" width="100" height="100" filterUnits="userSpaceOnUse" color-interpolation-filters="sRGB">
<feFlood flood-opacity="0" result="BackgroundImageFix"/>
<feColorMatrix in="SourceAlpha" type="matrix" values="0 0 0 0 0 0 0 0 0 0 0 0 0 0 0 0 0 0 127 0" result="hardAlpha"/>
<feOffset dy="20"/>
<feGaussianBlur stdDeviation="10"/>
<feColorMatrix type="matrix" values="0 0 0 0 0.988235 0 0 0 0 0.862745 0 0 0 0 0 0 0 0 0.2 0"/>
<feBlend mode="normal" in2="BackgroundImageFix" result="effect1_dropShadow_508_2233"/>
<feBlend mode="normal" in="SourceGraphic" in2="effect1_dropShadow_508_2233" result="shape"/>
</filter>
<clipPath id="clip0_508_2233">
<rect width="32" height="32" fill="white" transform="translate(34 14)"/>
</clipPath>
</defs>
</svg>
