<svg width="100" height="100" viewBox="0 0 100 100" fill="none" xmlns="http://www.w3.org/2000/svg">
<g filter="url(#filter0_d_508_2221)">
<circle cx="50" cy="30" r="30" fill="#FF1E38"/>
</g>
<g clip-path="url(#clip0_508_2221)">
<path d="M62.1146 28.5876C62.0834 28.5247 62.0503 28.4618 62.0182 28.3998C61.952 28.2749 61.883 28.1528 61.8112 28.0315C61.6676 27.79 61.5116 27.5557 61.3443 27.3287C61.3027 27.2722 61.2602 27.2157 61.2167 27.1601C61.0013 26.8821 60.7688 26.6177 60.5211 26.3671C60.3728 26.2167 60.2187 26.0717 60.059 25.9313C59.8993 25.7919 59.7348 25.657 59.5656 25.5284C59.4522 25.4428 59.3369 25.3598 59.2197 25.2796C59.1611 25.2395 59.1016 25.1994 59.042 25.1611C58.8634 25.0444 58.6791 24.9341 58.491 24.8293C58.3653 24.76 58.2387 24.6935 58.1092 24.6297C57.9155 24.5339 57.7179 24.4446 57.5166 24.3626C56.443 23.9241 55.2616 23.6826 54.0226 23.6826C54.0141 23.6826 54.0055 23.6826 53.997 23.6826C50.8508 23.6908 48.0863 25.2604 46.49 27.6295C46.3246 27.8747 46.1715 28.1281 46.0326 28.3898C45.5185 29.3542 45.1877 30.4243 45.0828 31.5564C45.0591 31.8144 45.0459 32.076 45.0459 32.3404C45.0459 32.7888 45.0809 33.2291 45.1489 33.6594C45.1829 33.8745 45.2255 34.0869 45.2756 34.2965C45.3257 34.5062 45.3833 34.7122 45.4495 34.9155C45.4712 34.9829 45.4939 35.0504 45.5175 35.1178C45.5648 35.2518 45.6149 35.3849 45.6687 35.5153C45.8029 35.8425 45.957 36.1606 46.1299 36.4678C46.1989 36.5909 46.2708 36.7112 46.3464 36.8306C46.3842 36.8899 46.422 36.9491 46.4607 37.0075C46.5382 37.1241 46.6195 37.2399 46.7027 37.3529C46.7443 37.4094 46.7868 37.466 46.8303 37.5216C47.0458 37.7996 47.2783 38.0639 47.5259 38.3146C47.8236 38.6154 48.143 38.8953 48.4814 39.1523C48.6506 39.2808 48.8254 39.4039 49.005 39.5206C49.1241 39.598 49.246 39.6737 49.3688 39.7457C49.4917 39.8177 49.6174 39.8879 49.745 39.9545C49.9359 40.0547 50.1306 40.1477 50.33 40.2343C51.4566 40.7256 52.7079 40.9991 54.0245 40.9991C55.2644 40.9991 56.4449 40.7566 57.5185 40.3191C57.6168 40.279 57.7142 40.2361 57.8106 40.1933C57.9778 40.1185 58.1423 40.0392 58.303 39.9545C58.4069 39.8998 58.509 39.8433 58.6092 39.7858C58.7566 39.7011 58.9012 39.6135 59.043 39.5215C59.2216 39.4048 59.3965 39.2817 59.5666 39.1532C59.7358 39.0247 59.9012 38.8907 60.0599 38.7503C60.2197 38.6109 60.3737 38.465 60.5221 38.3146C60.7697 38.0639 61.0022 37.7987 61.2177 37.5216C61.2612 37.466 61.3027 37.4104 61.3453 37.3529C61.4965 37.1478 61.6383 36.9354 61.7715 36.7176C61.798 36.6738 61.8245 36.6292 61.8509 36.5854C61.9095 36.4861 61.9662 36.3849 62.0201 36.2828C62.0532 36.2208 62.0853 36.1579 62.1165 36.095C62.6836 34.9592 63.0021 33.6858 63.0021 32.3413C63.0021 30.9968 62.6845 29.7233 62.1165 28.5876H62.1146ZM56.8919 34.6384C56.8692 34.6985 56.8437 34.7578 56.8154 34.8152C56.7728 34.9018 56.7237 34.9866 56.6679 35.0677C56.649 35.095 56.6301 35.1215 56.6103 35.1479C56.5706 35.2008 56.5281 35.2518 56.4827 35.302C56.4146 35.3767 56.3409 35.4487 56.2606 35.5171C56.2341 35.5399 56.2067 35.5618 56.1793 35.5836C56.1235 35.6274 56.0659 35.6693 56.0054 35.7103C55.9449 35.7504 55.8816 35.7896 55.8173 35.8261C55.6708 35.909 55.513 35.982 55.3438 36.0449C55.1756 36.1078 54.996 36.1606 54.8079 36.2007C54.7928 36.2044 54.7796 36.208 54.7673 36.2135C54.755 36.2181 54.7437 36.2244 54.7333 36.2308C54.7002 36.2518 54.6804 36.2773 54.6804 36.2983V36.8716C54.6804 37.2235 54.3505 37.5097 53.9451 37.5097H53.9299C53.5245 37.5097 53.1946 37.2235 53.1946 36.8716V36.383C53.1946 36.3776 53.1937 36.3721 53.1918 36.3676C53.1861 36.3511 53.171 36.3347 53.1502 36.3202C53.1219 36.301 53.0812 36.2864 53.034 36.2819C52.9631 36.2755 52.8922 36.2682 52.8213 36.26C52.6796 36.2427 52.5397 36.2208 52.4026 36.1953C52.0596 36.1306 51.7354 36.0385 51.4537 35.9255C51.3885 35.899 51.329 35.8653 51.277 35.8243C51.26 35.8106 51.243 35.796 51.2269 35.7814C51.1797 35.7368 51.14 35.6857 51.1088 35.6292C51.0984 35.611 51.0889 35.5909 51.0804 35.5718C51.0729 35.5535 51.0663 35.5353 51.0606 35.5162C51.0436 35.4606 51.0351 35.4022 51.036 35.3448C51.036 35.3257 51.037 35.3065 51.0398 35.2874C51.0417 35.2682 51.0455 35.2491 51.0492 35.23C51.0577 35.1926 51.07 35.1552 51.0861 35.1187L51.1305 35.0176C51.1428 34.9893 51.1579 34.9629 51.1749 34.9373C51.1787 34.931 51.1834 34.9246 51.1872 34.9182C51.2042 34.8936 51.2222 34.8699 51.243 34.848C51.2638 34.8243 51.2865 34.8043 51.3101 34.7851C51.3158 34.7806 51.3224 34.7751 51.3281 34.7705C51.3517 34.7523 51.3763 34.735 51.4027 34.7204L51.4046 34.7186C51.4311 34.7031 51.4594 34.6894 51.4887 34.6776C51.4963 34.6748 51.5029 34.6712 51.5105 34.6684C51.5388 34.6575 51.5672 34.6475 51.5974 34.6393C51.5984 34.6393 51.6002 34.6393 51.6012 34.6384C51.6324 34.6302 51.6636 34.6247 51.6957 34.6201C51.7042 34.6192 51.7118 34.6183 51.7203 34.6174C51.7505 34.6138 51.7817 34.6119 51.8129 34.611C51.8148 34.611 51.8167 34.611 51.8186 34.611C51.8318 34.611 51.845 34.6119 51.8583 34.6128C51.8696 34.6128 51.8809 34.6128 51.8923 34.6147C51.9065 34.6156 51.9197 34.6183 51.9339 34.6201C51.9452 34.622 51.9565 34.6229 51.9669 34.6247C51.9821 34.6274 51.9972 34.6311 52.0123 34.6347C52.0218 34.6365 52.0312 34.6384 52.0407 34.6411C52.0624 34.6475 52.0832 34.6539 52.104 34.6621C52.1068 34.663 52.1106 34.6639 52.1134 34.6657C52.4593 34.7988 53.0141 34.9574 53.6927 34.9574C54.1691 34.9574 54.5669 34.8462 54.8297 34.6593C54.8675 34.6329 54.9015 34.6046 54.9336 34.5746C55.0102 34.5035 55.0697 34.4232 55.1104 34.3366C55.151 34.25 55.1718 34.1562 55.1718 34.0559C55.1718 34.045 55.1718 34.0349 55.1718 34.024C55.1718 34.003 55.1699 33.9811 55.1671 33.9593C55.1633 33.9264 55.1567 33.8936 55.1472 33.8599C55.1406 33.8371 55.1331 33.8143 55.1246 33.7915C55.1151 33.7688 55.1047 33.7451 55.0915 33.7223C55.0849 33.7104 55.0782 33.6986 55.0707 33.6867C55.0565 33.663 55.0395 33.6393 55.0206 33.6156C55.0017 33.5919 54.9809 33.5673 54.9573 33.5436C54.9336 33.519 54.9081 33.4944 54.8798 33.4698C54.8514 33.4452 54.8202 33.4205 54.7862 33.395C54.7522 33.3704 54.7153 33.3449 54.6747 33.3194C54.6142 33.2811 54.5471 33.2428 54.4724 33.2045C54.4479 33.1917 54.4214 33.179 54.3949 33.1653C54.3411 33.1398 54.2844 33.1134 54.2229 33.0869C54.1927 33.0742 54.1615 33.0605 54.1284 33.0477C54.0632 33.0213 53.9952 32.9949 53.9214 32.9684C53.8846 32.9548 53.8477 32.942 53.809 32.9283C53.7702 32.9146 53.7305 32.9019 53.6899 32.8882C53.3969 32.7952 53.1096 32.6959 52.8374 32.5838C52.6739 32.5163 52.517 32.4443 52.3677 32.3668C52.2958 32.3294 52.225 32.2902 52.1569 32.2501C52.0889 32.21 52.0227 32.1681 51.9594 32.1243C51.8961 32.0806 51.8356 32.035 51.777 31.9885C51.7193 31.9411 51.6636 31.8928 51.6116 31.8418C51.5596 31.7907 51.5105 31.7388 51.4651 31.6841C51.4197 31.6294 51.3772 31.5729 51.3384 31.5136C51.2373 31.3596 51.1617 31.19 51.1163 31.0041C51.0833 30.8691 51.0653 30.7251 51.0653 30.5711C51.0653 29.5438 51.8715 28.7298 53.1682 28.4472C53.1776 28.4454 53.1871 28.4426 53.1965 28.4399C53.223 28.4308 53.2447 28.4189 53.2617 28.4053C53.2674 28.4007 53.2721 28.3961 53.2759 28.3916C53.2844 28.3825 53.2901 28.3724 53.2929 28.3642C53.2948 28.3597 53.2948 28.3551 53.2948 28.3515V27.8146C53.2948 27.7489 53.3062 27.6851 53.3279 27.625C53.3421 27.5849 53.361 27.5466 53.3837 27.511C53.5018 27.3233 53.7258 27.1929 53.9848 27.1792C53.9999 27.1792 54.015 27.1774 54.0301 27.1774C54.3089 27.1774 54.5518 27.3123 54.6766 27.5119C54.6993 27.5484 54.7182 27.5867 54.7323 27.6259C54.7541 27.6861 54.7654 27.7499 54.7654 27.8155V28.2594C54.7654 28.2749 54.7739 28.2913 54.79 28.3068C54.8165 28.3323 54.8609 28.3542 54.9166 28.3597C55.1312 28.3797 55.3382 28.4098 55.5366 28.4517C55.7351 28.4928 55.926 28.5456 56.1065 28.6076C56.202 28.6404 56.287 28.6906 56.3579 28.7526C56.3929 28.7835 56.425 28.8182 56.4524 28.8546C56.4657 28.8729 56.4789 28.892 56.4902 28.9121C56.5016 28.9321 56.512 28.9522 56.5214 28.9722C56.5545 29.0479 56.5706 29.1281 56.5696 29.2074C56.5687 29.2867 56.5507 29.366 56.5148 29.4417L56.4713 29.5347C56.4581 29.562 56.443 29.5875 56.426 29.613C56.4222 29.6194 56.4175 29.6249 56.4137 29.6313C56.3967 29.655 56.3778 29.6787 56.357 29.6996C56.356 29.7006 56.3542 29.7024 56.3532 29.7033C56.3334 29.7233 56.3116 29.7425 56.2899 29.7607C56.2842 29.7653 56.2785 29.7698 56.2729 29.7744C56.2492 29.7926 56.2237 29.809 56.1973 29.8245C56.1944 29.8263 56.1916 29.8273 56.1888 29.8291C56.1642 29.8428 56.1387 29.8546 56.1131 29.8655C56.1065 29.8683 56.0999 29.871 56.0933 29.8737C56.0649 29.8847 56.0356 29.8947 56.0054 29.9029C56.0007 29.9038 55.9969 29.9047 55.9922 29.9057C55.9648 29.912 55.9374 29.9175 55.9099 29.9211C55.9024 29.9221 55.8958 29.923 55.8882 29.9239C55.857 29.9275 55.8249 29.9294 55.7928 29.9303C55.7795 29.9303 55.7672 29.9303 55.754 29.9293C55.7436 29.9293 55.7332 29.9294 55.7238 29.9284C55.7096 29.9275 55.6954 29.9257 55.6812 29.9239C55.6718 29.923 55.6623 29.9221 55.6529 29.9202C55.6368 29.9175 55.6217 29.9139 55.6066 29.9111C55.599 29.9093 55.5905 29.9084 55.5829 29.9066C55.5593 29.9011 55.5366 29.8938 55.513 29.8856C55.1028 29.7443 54.6539 29.6723 54.1785 29.6723C54.0982 29.6723 54.0235 29.6759 53.9526 29.6814C53.1757 29.7416 52.8913 30.1098 52.8913 30.4307C52.8913 30.4471 52.8913 30.4626 52.8932 30.4781C52.9092 30.7087 53.05 30.8919 53.4007 31.0824C53.4404 31.1043 53.482 31.1253 53.5264 31.1472C53.5935 31.18 53.6672 31.2128 53.7466 31.2465C53.8269 31.2803 53.9129 31.3149 54.0065 31.3504C54.0689 31.3741 54.1341 31.3978 54.2031 31.4225C54.3061 31.4598 54.4167 31.4972 54.5348 31.5373C54.6114 31.5628 54.6879 31.5884 54.7645 31.6157C54.841 31.643 54.9166 31.6704 54.9932 31.6996C55.031 31.7141 55.0688 31.7287 55.1066 31.7442C55.2191 31.7898 55.3306 31.8372 55.4393 31.8882C55.4752 31.9056 55.5111 31.9229 55.547 31.9402C55.6179 31.9758 55.6878 32.0122 55.7559 32.0505C55.7899 32.0696 55.8239 32.0897 55.857 32.1098C55.9232 32.1499 55.9884 32.1918 56.0508 32.2355C56.615 32.6284 57.011 33.1717 57.011 33.9757C57.011 34.2081 56.9694 34.4324 56.891 34.6429L56.8919 34.6384Z" fill="white"/>
<path d="M45.5381 27.0343C46.1316 26.1538 46.8546 25.3862 47.6759 24.7472C47.2176 24.7627 46.7488 24.771 46.2715 24.771C42.216 24.771 38.7683 24.1848 37.5094 23.3681C37.2939 23.2286 36.999 23.3745 36.999 23.6197V25.8375C36.999 26.8948 40.4884 27.7681 45.0145 27.9057C45.0173 27.9012 45.0192 27.8966 45.0221 27.8921C45.1771 27.6013 45.35 27.3132 45.5372 27.0352L45.5381 27.0343Z" fill="white"/>
<path d="M43.9522 31.4589C44.0136 30.8017 44.1422 30.1591 44.3359 29.5356C41.1462 29.3833 38.5622 28.861 37.5094 28.1783C37.2939 28.0388 36.999 28.1847 36.999 28.4299V30.6476C36.999 31.6175 39.9355 32.4324 43.9163 32.6667C43.9125 32.5582 43.9097 32.4498 43.9097 32.3413C43.9097 32.0523 43.9239 31.7561 43.9513 31.4598L43.9522 31.4589Z" fill="white"/>
<path d="M44.6129 35.9172C44.5524 35.7696 44.4957 35.6192 44.4428 35.4688C44.4163 35.3931 44.3908 35.3175 44.3662 35.2409C44.2925 35.0112 44.2263 34.7769 44.1706 34.5426C44.1545 34.4743 44.1403 34.405 44.1252 34.3357C41.0338 34.1707 38.5396 33.6575 37.5113 32.9894C37.2959 32.8499 37.001 32.9958 37.001 33.241V35.4587C37.001 36.5426 40.6671 37.4331 45.3586 37.5361C45.3624 37.4887 45.369 37.4423 45.3737 37.3958C45.2905 37.2636 45.2093 37.1269 45.1327 36.991C44.938 36.6447 44.7632 36.2837 44.6138 35.9182L44.6129 35.9172Z" fill="white"/>
<path d="M54.9182 28.356C54.8624 28.3506 54.8171 28.3287 54.7915 28.3032C54.7755 28.2877 54.767 28.2713 54.767 28.2558V27.8118C54.767 27.7462 54.7556 27.6824 54.7339 27.6222C54.7197 27.5821 54.7008 27.5439 54.6781 27.5083C54.5534 27.3096 54.3105 27.1738 54.0317 27.1738C54.0166 27.1738 54.0014 27.1747 53.9863 27.1756C53.7264 27.1893 53.5024 27.3196 53.3852 27.5074C53.3625 27.5439 53.3436 27.5821 53.3295 27.6213C53.3077 27.6815 53.2964 27.7453 53.2964 27.8109V28.3478C53.2964 28.3478 53.2964 28.356 53.2945 28.3606C53.2917 28.3697 53.286 28.3788 53.2775 28.3879C53.2737 28.3925 53.268 28.3971 53.2633 28.4016C53.2472 28.4153 53.2246 28.4271 53.1981 28.4362C53.1896 28.439 53.1801 28.4417 53.1697 28.4435C51.873 28.7261 51.0669 29.5392 51.0669 30.5674C51.0669 30.7215 51.0848 30.8655 51.1179 31.0004C51.1642 31.1873 51.2389 31.3559 51.34 31.51C51.3788 31.5692 51.4213 31.6257 51.4666 31.6804C51.512 31.7351 51.5612 31.788 51.6131 31.8381C51.6651 31.8892 51.7209 31.9375 51.7785 31.9849C51.8362 32.0323 51.8976 32.0769 51.9609 32.1207C52.0243 32.1644 52.0904 32.2064 52.1585 32.2465C52.2265 32.2866 52.2965 32.3258 52.3692 32.3632C52.5186 32.4406 52.6754 32.5127 52.8389 32.5801C53.1111 32.6922 53.3994 32.7916 53.6914 32.8846C53.7321 32.8982 53.7718 32.911 53.8105 32.9247C53.8493 32.9383 53.8871 32.9511 53.923 32.9648C53.9958 32.9912 54.0648 33.0176 54.13 33.0441C54.1621 33.0568 54.1942 33.0705 54.2245 33.0833C54.285 33.1097 54.3426 33.1352 54.3965 33.1617C54.423 33.1744 54.4494 33.1872 54.474 33.2009C54.5487 33.2391 54.6158 33.2774 54.6762 33.3157C54.7159 33.3412 54.7528 33.3659 54.7868 33.3914C54.8208 33.416 54.852 33.4415 54.8804 33.4661C54.9087 33.4907 54.9343 33.5153 54.9579 33.54C54.9815 33.5646 55.0023 33.5883 55.0212 33.612C55.0401 33.6357 55.0562 33.6594 55.0713 33.6831C55.0789 33.6949 55.0855 33.7068 55.0921 33.7186C55.1044 33.7423 55.1157 33.7651 55.1252 33.7879C55.1346 33.8107 55.1422 33.8335 55.1479 33.8563C55.1573 33.89 55.163 33.9237 55.1677 33.9556C55.1705 33.9775 55.1715 33.9994 55.1724 34.0203C55.1724 34.0313 55.1724 34.0413 55.1724 34.0522C55.1724 34.1516 55.1507 34.2455 55.111 34.333C55.0704 34.4196 55.0108 34.4998 54.9343 34.5709C54.9021 34.601 54.8681 34.6292 54.8303 34.6557C54.5676 34.8435 54.1697 34.9538 53.6933 34.9538C53.0157 34.9538 52.4609 34.7951 52.114 34.6621C52.1112 34.6612 52.1074 34.6602 52.1046 34.6584C52.0838 34.6511 52.063 34.6438 52.0413 34.6375C52.0318 34.6347 52.0224 34.6329 52.0129 34.6311C51.9978 34.6274 51.9827 34.6238 51.9676 34.621C51.9562 34.6192 51.9449 34.6183 51.9345 34.6165C51.9203 34.6147 51.9071 34.6119 51.8929 34.611C51.8815 34.6101 51.8702 34.6101 51.8589 34.6092C51.8456 34.6092 51.8324 34.6074 51.8192 34.6074C51.8192 34.6074 51.8154 34.6074 51.8135 34.6074C51.7823 34.6074 51.7521 34.6101 51.7209 34.6137C51.7124 34.6147 51.7048 34.6156 51.6963 34.6165C51.6642 34.621 51.633 34.6265 51.6018 34.6347C51.6009 34.6347 51.599 34.6347 51.598 34.6356C51.5687 34.6438 51.5394 34.6539 51.5111 34.6648C51.5035 34.6675 51.4969 34.6703 51.4893 34.6739C51.46 34.6867 51.4317 34.6994 51.4052 34.7149L51.4033 34.7168C51.3769 34.7323 51.3523 34.7496 51.3287 34.7669C51.322 34.7714 51.3164 34.776 51.3107 34.7815C51.2871 34.8006 51.2644 34.8216 51.2436 34.8435C51.2228 34.8662 51.2048 34.8899 51.1878 34.9146C51.1831 34.9209 51.1793 34.9273 51.1756 34.9337C51.1595 34.9592 51.1434 34.9857 51.1311 35.0139L51.0867 35.1151C51.0706 35.1516 51.0584 35.1889 51.0499 35.2263C51.0461 35.2454 51.0423 35.2646 51.0404 35.2837C51.0385 35.3029 51.0366 35.322 51.0366 35.3412C51.0366 35.3986 51.0442 35.456 51.0612 35.5125C51.0669 35.5308 51.0735 35.5499 51.081 35.5681C51.0895 35.5882 51.099 35.6073 51.1094 35.6256C51.1406 35.6821 51.1803 35.7331 51.2275 35.7778C51.2436 35.7924 51.2597 35.807 51.2776 35.8206C51.3296 35.8616 51.3891 35.8954 51.4544 35.9218C51.7351 36.0348 52.0602 36.1269 52.4033 36.1916C52.5403 36.2181 52.6802 36.239 52.8219 36.2563C52.8928 36.2645 52.9637 36.2718 53.0346 36.2782C53.0818 36.2828 53.1225 36.2974 53.1508 36.3165C53.1726 36.3311 53.1867 36.3475 53.1924 36.3639C53.1943 36.3694 53.1953 36.3748 53.1953 36.3794V36.868C53.1953 37.2198 53.5251 37.5061 53.9305 37.5061H53.9457C54.3511 37.5061 54.681 37.2198 54.681 36.868V36.2946C54.681 36.2737 54.6999 36.2481 54.7339 36.2272C54.7443 36.2208 54.7556 36.2153 54.7679 36.2099C54.7802 36.2053 54.7944 36.2007 54.8086 36.1971C54.9966 36.1561 55.1762 36.1041 55.3444 36.0412C55.5127 35.9783 55.6714 35.9045 55.8179 35.8225C55.8831 35.786 55.9455 35.7468 56.006 35.7067C56.0665 35.6666 56.1242 35.6237 56.1799 35.58C56.2073 35.5581 56.2347 35.5362 56.2612 35.5134C56.3406 35.4451 56.4152 35.374 56.4833 35.2983C56.5287 35.2482 56.5712 35.1971 56.6109 35.1443C56.6307 35.1178 56.6506 35.0914 56.6685 35.0641C56.7243 34.9829 56.7734 34.8982 56.816 34.8116C56.8443 34.7532 56.8698 34.6949 56.8925 34.6347C56.971 34.4242 57.0126 34.1999 57.0126 33.9675C57.0126 33.1635 56.6166 32.6202 56.0523 32.2273C55.9899 32.1836 55.9247 32.1417 55.8586 32.1015C55.8255 32.0815 55.7915 32.0614 55.7574 32.0423C55.6894 32.004 55.6195 31.9666 55.5486 31.932C55.5127 31.9147 55.4768 31.8974 55.4408 31.88C55.3321 31.829 55.2216 31.7816 55.1082 31.736C55.0704 31.7205 55.0325 31.7059 54.9947 31.6914C54.9191 31.6622 54.8426 31.6348 54.766 31.6075C54.6895 31.5801 54.6129 31.5546 54.5364 31.5291C54.4182 31.4899 54.3076 31.4516 54.2046 31.4142C54.1356 31.3896 54.0704 31.3659 54.008 31.3422C53.9145 31.3067 53.8275 31.272 53.7481 31.2383C53.6678 31.2046 53.595 31.1718 53.5279 31.139C53.4835 31.1171 53.441 31.0952 53.4022 31.0742C53.0525 30.8828 52.9117 30.7005 52.8947 30.4699C52.8938 30.4544 52.8928 30.438 52.8928 30.4225C52.8928 30.1025 53.1773 29.7334 53.9542 29.6732C54.026 29.6677 54.0997 29.6641 54.1801 29.6641C54.6554 29.6641 55.1053 29.7361 55.5146 29.8774C55.5372 29.8856 55.5609 29.892 55.5845 29.8984C55.5921 29.9002 55.6006 29.902 55.6081 29.9029C55.6232 29.9066 55.6393 29.9102 55.6544 29.912C55.6639 29.9139 55.6733 29.9148 55.6828 29.9157C55.697 29.9175 55.7111 29.9193 55.7253 29.9202C55.7357 29.9202 55.7461 29.9202 55.7556 29.9211C55.7678 29.9211 55.7801 29.9221 55.7924 29.9221H55.7943C55.8264 29.9221 55.8576 29.9193 55.8898 29.9157C55.8973 29.9157 55.9039 29.9139 55.9115 29.9129C55.9399 29.9093 55.9673 29.9038 55.9937 29.8974C55.9985 29.8965 56.0022 29.8956 56.007 29.8947C56.0372 29.8865 56.0665 29.8765 56.0949 29.8655C56.1015 29.8628 56.1081 29.8601 56.1147 29.8573C56.1412 29.8464 56.1657 29.8346 56.1903 29.8209C56.1931 29.8191 56.196 29.8181 56.1988 29.8163C56.2253 29.8008 56.2499 29.7844 56.2744 29.7662C56.2801 29.7616 56.2858 29.7571 56.2914 29.7525C56.3141 29.7343 56.3349 29.7161 56.3548 29.6951C56.3557 29.6942 56.3576 29.6924 56.3585 29.6914C56.3793 29.6696 56.3973 29.6468 56.4152 29.6231C56.419 29.6176 56.4238 29.6112 56.4275 29.6048C56.4445 29.5802 56.4597 29.5538 56.4729 29.5265L56.5164 29.4335C56.5513 29.3578 56.5702 29.2785 56.5712 29.1992C56.5721 29.1199 56.5561 29.0397 56.523 28.964C56.5135 28.9431 56.5031 28.923 56.4918 28.9039C56.4805 28.8838 56.4682 28.8656 56.454 28.8464C56.4266 28.81 56.3954 28.7753 56.3595 28.7443C56.2886 28.6824 56.2035 28.6322 56.1081 28.5994C55.9276 28.5365 55.7367 28.4846 55.5382 28.4435C55.3397 28.4025 55.1318 28.3715 54.9182 28.3515V28.356Z" fill="#FF1E38"/>
<path d="M46.2715 23.1748C51.3921 23.1748 55.5431 22.2403 55.5431 21.0874C55.5431 19.9346 51.3921 19 46.2715 19C41.151 19 37 19.9346 37 21.0874C37 22.2403 41.151 23.1748 46.2715 23.1748Z" fill="white"/>
</g>
<defs>
<filter id="filter0_d_508_2221" x="0" y="0" width="100" height="100" filterUnits="userSpaceOnUse" color-interpolation-filters="sRGB">
<feFlood flood-opacity="0" result="BackgroundImageFix"/>
<feColorMatrix in="SourceAlpha" type="matrix" values="0 0 0 0 0 0 0 0 0 0 0 0 0 0 0 0 0 0 127 0" result="hardAlpha"/>
<feOffset dy="20"/>
<feGaussianBlur stdDeviation="10"/>
<feColorMatrix type="matrix" values="0 0 0 0 1 0 0 0 0 0.117647 0 0 0 0 0.219608 0 0 0 0.2 0"/>
<feBlend mode="normal" in2="BackgroundImageFix" result="effect1_dropShadow_508_2221"/>
<feBlend mode="normal" in="SourceGraphic" in2="effect1_dropShadow_508_2221" result="shape"/>
</filter>
<clipPath id="clip0_508_2221">
<rect width="26" height="22" fill="white" transform="translate(37 19)"/>
</clipPath>
</defs>
</svg>
