<svg width="100" height="100" viewBox="0 0 100 100" fill="none" xmlns="http://www.w3.org/2000/svg">
<g filter="url(#filter0_d_508_2281)">
<circle cx="50" cy="30" r="30" fill="#FF5200"/>
</g>
<g clip-path="url(#clip0_508_2281)">
<path d="M65.6255 29.0258H62.3019C61.5428 29.0258 60.9275 29.6514 60.9275 30.423V41.5618C60.9275 42.3335 61.5428 42.959 62.3019 42.959H65.6255C66.3846 42.959 67 42.3335 67 41.5618V30.423C67 29.6514 66.3846 29.0258 65.6255 29.0258Z" fill="white"/>
<path d="M65.6255 45.296H62.3019C61.5428 45.296 60.9275 45.9216 60.9275 46.6932V47.6028C60.9275 48.3744 61.5428 49 62.3019 49H65.6255C66.3846 49 67 48.3744 67 47.6028V46.6932C67 45.9216 66.3846 45.296 65.6255 45.296Z" fill="white"/>
<path d="M53.7902 26.9761C52.0682 26.9761 51.1261 27.5421 50.6959 27.9095C50.2733 27.8264 49.7094 27.806 49.005 27.9675C48.6092 27.6052 47.6607 26.9761 45.8453 26.9761C43.2964 26.9761 42.7271 29.126 42.7271 30.146C42.7271 31.166 44.1643 32.489 45.9811 32.489C47.6377 32.489 48.9785 30.0143 49.202 29.5778C49.5446 29.4367 49.9924 29.3511 50.4272 29.5642C50.6288 29.961 51.981 32.489 53.6552 32.489C55.472 32.489 56.9093 31.166 56.9093 30.146C56.9093 29.126 56.3399 26.9761 53.7911 26.9761H53.7902Z" fill="white"/>
<path d="M60.7968 26.3555L57.087 23.5223C56.6665 23.2014 56.3721 22.7393 56.2551 22.218L55.1264 17.1761C54.9956 16.5918 54.3382 16.2994 53.8166 16.593L50.3999 18.5179C50.1324 18.6688 49.8078 18.6718 49.5374 18.526L45.8951 16.5623C45.3744 16.2815 44.7291 16.576 44.5999 17.1535L43.4662 22.218C43.3496 22.7393 43.0549 23.2014 42.6344 23.5223L38.9245 26.3555C38.642 26.5712 38.8281 27.0277 39.1778 26.9769L45.8708 26.0094C48.5173 25.6266 51.2036 25.6266 53.8497 26.0094L60.5427 26.9769C60.8924 27.0277 61.0786 26.5712 60.796 26.3555H60.7968Z" fill="white"/>
<path d="M58.8365 33.0512C59.0336 32.8415 58.8499 32.4979 58.5694 32.5521L51.5544 33.9037C51.4601 33.922 51.38 33.9859 51.3406 34.0754L50.1046 36.8954C50.001 37.1311 49.6714 37.1311 49.5679 36.8954L48.3318 34.0754C48.2924 33.9859 48.2128 33.922 48.118 33.9037L41.103 32.5521C40.8225 32.4979 40.6384 32.8415 40.8359 33.0512L44.7684 37.2394C44.8975 37.3775 44.869 37.6012 44.7092 37.7006L42.7977 38.8876C42.5047 39.0696 42.6317 39.5278 42.9751 39.5278H56.6974C57.0407 39.5278 57.1674 39.0692 56.8747 38.8876L54.9632 37.7006C54.8035 37.6012 54.7749 37.3775 54.9041 37.2394L58.8365 33.0512Z" fill="white"/>
<path d="M59.7291 41.5616V39.112C54.0331 43.9157 45.5708 43.6058 40.2333 38.1799C34.5713 32.4244 34.5713 23.0925 40.2333 17.3366C45.8953 11.5808 55.0751 11.5808 60.737 17.3366C63.5802 20.2269 64.994 24.0191 64.9819 27.8075H65.6255C66.1156 27.8075 66.5743 27.9477 66.9646 28.1907C67.0762 23.7591 65.4691 19.2905 62.1421 15.9083C55.704 9.36351 45.2664 9.36351 38.8283 15.9083C32.3902 22.4531 32.3902 33.0638 38.8283 39.6086C44.5129 45.3879 53.3162 46.0626 59.7308 41.6354C59.7299 41.6106 59.7291 41.5863 59.7291 41.5616Z" fill="white"/>
</g>
<defs>
<filter id="filter0_d_508_2281" x="0" y="0" width="100" height="100" filterUnits="userSpaceOnUse" color-interpolation-filters="sRGB">
<feFlood flood-opacity="0" result="BackgroundImageFix"/>
<feColorMatrix in="SourceAlpha" type="matrix" values="0 0 0 0 0 0 0 0 0 0 0 0 0 0 0 0 0 0 127 0" result="hardAlpha"/>
<feOffset dy="20"/>
<feGaussianBlur stdDeviation="10"/>
<feColorMatrix type="matrix" values="0 0 0 0 1 0 0 0 0 0.911128 0 0 0 0 0.804167 0 0 0 1 0"/>
<feBlend mode="normal" in2="BackgroundImageFix" result="effect1_dropShadow_508_2281"/>
<feBlend mode="normal" in="SourceGraphic" in2="effect1_dropShadow_508_2281" result="shape"/>
</filter>
<clipPath id="clip0_508_2281">
<rect width="33" height="38" fill="white" transform="translate(34 11)"/>
</clipPath>
</defs>
</svg>
