<svg width="47" height="84" viewBox="0 0 47 84" fill="none" xmlns="http://www.w3.org/2000/svg">
<path d="M34.1417 38.2922L16.5129 33.1078C14.4725 32.5172 13.0524 30.5977 13.0524 28.4648C13.0524 25.7906 15.207 23.625 17.8677 23.625H28.6898C30.6812 23.625 32.64 24.232 34.2723 25.3477C35.2679 26.0203 36.6064 25.8563 37.4552 25.0195L43.1356 19.4414C44.2945 18.3094 44.1313 16.4227 42.8418 15.4219C38.8427 12.2719 33.8479 10.5164 28.7224 10.5V2.625C28.7224 1.18125 27.5472 0 26.1108 0H20.8874C19.451 0 18.2758 1.18125 18.2758 2.625V10.5H17.8677C7.46996 10.5 -0.887386 19.4742 0.0756681 30.1219C0.761232 37.6852 6.50691 43.8375 13.7543 45.9703L30.4853 50.8922C32.5257 51.4992 33.9458 53.4023 33.9458 55.5352C33.9458 58.2094 31.7912 60.375 29.1305 60.375H18.3084C16.317 60.375 14.3583 59.768 12.726 58.6523C11.7303 57.9797 10.3918 58.1437 9.54298 58.9805L3.86259 64.5586C2.70366 65.6906 2.86689 67.5773 4.15641 68.5781C8.15553 71.7281 13.1504 73.4836 18.2758 73.5V81.375C18.2758 82.8187 19.451 84 20.8874 84H26.1108C27.5472 84 28.7224 82.8187 28.7224 81.375V73.4672C36.3289 73.3195 43.4621 68.775 45.9758 61.5398C49.4852 51.4336 43.5927 41.0648 34.1417 38.2922Z" fill="#1A75FF"/>
</svg>
