<svg width="84" height="63" viewBox="0 0 84 63" fill="none" xmlns="http://www.w3.org/2000/svg">
<path d="M54.6 42H60.9C61.95 42 63 40.95 63 39.9V17.85C63 16.8 61.95 15.75 60.9 15.75H54.6C53.55 15.75 52.5 16.8 52.5 17.85V39.9C52.5 40.95 53.55 42 54.6 42ZM70.35 42H76.65C77.7 42 78.75 40.95 78.75 39.9V2.1C78.75 1.05 77.7 0 76.65 0H70.35C69.3 0 68.25 1.05 68.25 2.1V39.9C68.25 40.95 69.3 42 70.35 42ZM23.1 42H29.4C30.45 42 31.5 40.95 31.5 39.9V28.35C31.5 27.3 30.45 26.25 29.4 26.25H23.1C22.05 26.25 21 27.3 21 28.35V39.9C21 40.95 22.05 42 23.1 42ZM38.85 42H45.15C46.2 42 47.25 40.95 47.25 39.9V7.35C47.25 6.3 46.2 5.25 45.15 5.25H38.85C37.8 5.25 36.75 6.3 36.75 7.35V39.9C36.75 40.95 37.8 42 38.85 42ZM81.375 52.5H10.5V2.625C10.5 1.17469 9.32531 0 7.875 0H2.625C1.17469 0 0 1.17469 0 2.625V57.75C0 60.649 2.35102 63 5.25 63H81.375C82.8253 63 84 61.8253 84 60.375V55.125C84 53.6747 82.8253 52.5 81.375 52.5Z" fill="#1A75FF"/>
</svg>
