<svg width="84" height="84" viewBox="0 0 84 84" fill="none" xmlns="http://www.w3.org/2000/svg">
<path d="M84 78.1862L56.475 50.28C60.225 45.0476 62.4563 38.6149 62.4563 31.6758C62.4563 14.2157 48.45 1.85349e-05 31.2375 1.85349e-05C14.0063 -0.0187356 0 14.1969 0 31.6571C0 49.1172 14.0062 63.3329 31.2188 63.3329C38.6813 63.3329 45.525 60.6698 50.9062 56.2251L78.2812 84L84 78.1862ZM31.2188 56.0188C17.9813 56.0188 7.2 45.0851 7.2 31.6571C7.2 18.2291 17.9813 7.2954 31.2188 7.2954C44.4562 7.2954 55.2375 18.2291 55.2375 31.6571C55.2375 45.0851 44.475 56.0188 31.2188 56.0188Z" fill="#1A75FF"/>
</svg>
