<svg width="35" height="41" viewBox="0 0 35 41" fill="none" xmlns="http://www.w3.org/2000/svg">
<path d="M0 37.1562C0 39.2783 1.67969 41 3.75 41H31.25C33.3203 41 35 39.2783 35 37.1562V15.375H0V37.1562ZM25 21.4609C25 20.9324 25.4219 20.5 25.9375 20.5H29.0625C29.5781 20.5 30 20.9324 30 21.4609V24.6641C30 25.1926 29.5781 25.625 29.0625 25.625H25.9375C25.4219 25.625 25 25.1926 25 24.6641V21.4609ZM25 31.7109C25 31.1824 25.4219 30.75 25.9375 30.75H29.0625C29.5781 30.75 30 31.1824 30 31.7109V34.9141C30 35.4426 29.5781 35.875 29.0625 35.875H25.9375C25.4219 35.875 25 35.4426 25 34.9141V31.7109ZM15 21.4609C15 20.9324 15.4219 20.5 15.9375 20.5H19.0625C19.5781 20.5 20 20.9324 20 21.4609V24.6641C20 25.1926 19.5781 25.625 19.0625 25.625H15.9375C15.4219 25.625 15 25.1926 15 24.6641V21.4609ZM15 31.7109C15 31.1824 15.4219 30.75 15.9375 30.75H19.0625C19.5781 30.75 20 31.1824 20 31.7109V34.9141C20 35.4426 19.5781 35.875 19.0625 35.875H15.9375C15.4219 35.875 15 35.4426 15 34.9141V31.7109ZM5 21.4609C5 20.9324 5.42188 20.5 5.9375 20.5H9.0625C9.57812 20.5 10 20.9324 10 21.4609V24.6641C10 25.1926 9.57812 25.625 9.0625 25.625H5.9375C5.42188 25.625 5 25.1926 5 24.6641V21.4609ZM5 31.7109C5 31.1824 5.42188 30.75 5.9375 30.75H9.0625C9.57812 30.75 10 31.1824 10 31.7109V34.9141C10 35.4426 9.57812 35.875 9.0625 35.875H5.9375C5.42188 35.875 5 35.4426 5 34.9141V31.7109ZM31.25 5.125H27.5V1.28125C27.5 0.576562 26.9375 0 26.25 0H23.75C23.0625 0 22.5 0.576562 22.5 1.28125V5.125H12.5V1.28125C12.5 0.576562 11.9375 0 11.25 0H8.75C8.0625 0 7.5 0.576562 7.5 1.28125V5.125H3.75C1.67969 5.125 0 6.84668 0 8.96875V12.8125H35V8.96875C35 6.84668 33.3203 5.125 31.25 5.125Z" fill="#1A75FF"/>
</svg>
