<svg width="106" height="106" viewBox="0 0 106 106" fill="none" xmlns="http://www.w3.org/2000/svg">
<g filter="url(#filter0_d_1588_479)">
<circle cx="53" cy="53" r="43" fill="#FFFCE6" fill-opacity="0.1"/>
</g>
<g clip-path="url(#clip0_1588_479)">
<path d="M74.6078 39.1926L70.8036 42.9964C72.6708 46.0608 73.7472 49.6574 73.7472 53.5007C73.7472 64.666 64.6624 73.7497 53.4956 73.7497C42.3288 73.7497 33.2441 64.666 33.2441 53.5007C33.2441 42.3353 42.3289 33.2516 53.4957 33.2516C57.6572 33.2516 61.5293 34.5132 64.7501 36.6739L68.5258 32.8986C61.1097 27.4795 51.5761 26.6196 43.568 30.0063C42.0564 30.6456 40.5984 31.4367 39.235 32.3578C24.2143 42.5044 24.2957 64.5522 39.235 74.6436C41.9081 76.4494 44.9921 77.7933 48.3588 78.4821C50.0388 78.8258 51.7671 79.0001 53.4957 79.0001C55.2243 79.0001 56.9526 78.8258 58.6326 78.4821C60.2712 78.1468 61.8831 77.6465 63.4233 76.9952C64.9349 76.3559 66.3928 75.5648 67.7562 74.6436C69.1061 73.7318 70.3754 72.6848 71.5288 71.5315C72.6822 70.3783 73.7293 69.1092 74.6413 67.7595C80.4598 59.148 80.4571 47.8043 74.6078 39.1928V39.1926Z" fill="#FFD700"/>
<path d="M53.4784 50.4195L44.8287 41.7709L41.1157 45.4834L53.4786 57.8447C53.7063 57.6169 77.5431 33.7832 77.7603 33.566L74.0473 29.8535C73.9981 29.9027 54.1876 49.7106 53.4787 50.4195H53.4784Z" fill="#FFD700"/>
<path d="M54.5348 39.7704V36.1096C54.5348 35.5356 54.0695 35.0703 53.4954 35.0703C52.9214 35.0703 52.4561 35.5356 52.4561 36.1096V39.7704C52.4561 40.3444 52.9214 40.8096 53.4954 40.8096C54.0695 40.8096 54.5348 40.345 54.5348 39.7704Z" fill="#FFD700"/>
<path d="M53.4954 66.1924C52.9214 66.1924 52.4561 66.6577 52.4561 67.2316V70.8924C52.4561 71.4658 52.9208 71.9317 53.4954 71.9317C54.0701 71.9317 54.5348 71.4664 54.5348 70.8924V67.2316C54.5348 66.6577 54.0695 66.1924 53.4954 66.1924Z" fill="#FFD700"/>
<path d="M36.1019 52.4619C35.5278 52.4619 35.0625 52.9272 35.0625 53.5012C35.0625 54.0752 35.5278 54.5404 36.1019 54.5404H39.7632C40.3372 54.5404 40.8026 54.0752 40.8026 53.5012C40.8026 52.9272 40.3372 52.4619 39.7632 52.4619H36.1019Z" fill="#FFD700"/>
<path d="M66.189 53.5012C66.189 54.0752 66.6543 54.5404 67.2284 54.5404H70.8896C71.4637 54.5404 71.929 54.0752 71.929 53.5012C71.929 52.9272 71.4637 52.4619 70.8896 52.4619H67.2284C66.6543 52.4619 66.189 52.9272 66.189 53.5012Z" fill="#FFD700"/>
</g>
<defs>
<filter id="filter0_d_1588_479" x="0" y="0" width="106" height="106" filterUnits="userSpaceOnUse" color-interpolation-filters="sRGB">
<feFlood flood-opacity="0" result="BackgroundImageFix"/>
<feColorMatrix in="SourceAlpha" type="matrix" values="0 0 0 0 0 0 0 0 0 0 0 0 0 0 0 0 0 0 127 0" result="hardAlpha"/>
<feOffset/>
<feGaussianBlur stdDeviation="5"/>
<feColorMatrix type="matrix" values="0 0 0 0 0.988235 0 0 0 0 0.862745 0 0 0 0 0 0 0 0 0.25 0"/>
<feBlend mode="normal" in2="BackgroundImageFix" result="effect1_dropShadow_1588_479"/>
<feBlend mode="normal" in="SourceGraphic" in2="effect1_dropShadow_1588_479" result="shape"/>
</filter>
<clipPath id="clip0_1588_479">
<rect width="51" height="51" fill="white" transform="translate(28 28)"/>
</clipPath>
</defs>
</svg>
