<svg width="106" height="106" viewBox="0 0 106 106" fill="none" xmlns="http://www.w3.org/2000/svg">
<g filter="url(#filter0_d_1588_489)">
<circle cx="53" cy="53" r="43" fill="#FD346E" fill-opacity="0.1"/>
</g>
<path d="M75.5782 43.8795C75.4931 43.7015 75.4029 43.5236 75.3152 43.3482C75.1346 42.9948 74.9464 42.6492 74.7504 42.3061C74.3583 41.6226 73.9328 40.9597 73.4763 40.3174C73.3628 40.1575 73.2467 39.9976 73.1281 39.8402C72.5401 39.0535 71.9056 38.3055 71.2299 37.5962C70.825 37.1706 70.4046 36.7605 69.9687 36.3633C69.5329 35.9686 69.0841 35.5869 68.6225 35.2232C68.313 34.9807 67.9983 34.746 67.6785 34.519C67.5186 34.4055 67.3561 34.292 67.1936 34.1837C66.7062 33.8536 66.2033 33.5415 65.69 33.2448C65.347 33.0488 65.0014 32.8605 64.6481 32.6799C64.1194 32.4091 63.5803 32.1563 63.031 31.9242C60.1012 30.6835 56.8773 30 53.4961 30C53.4729 30 53.4497 30 53.4265 30C44.8407 30.0232 37.2969 34.4649 32.9408 41.1686C32.4895 41.8625 32.0717 42.5795 31.6926 43.3198C30.2895 46.0487 29.3869 49.0769 29.1006 52.2805C29.0361 53.0104 29 53.7507 29 54.4987C29 55.7678 29.0954 57.0136 29.2811 58.231C29.374 58.8398 29.49 59.4408 29.6267 60.034C29.7634 60.6273 29.9207 61.2102 30.1013 61.7854C30.1606 61.9763 30.2225 62.1671 30.287 62.358C30.4159 62.7372 30.5526 63.1138 30.6996 63.4826C31.0658 64.4086 31.4862 65.3088 31.9582 66.178C32.1465 66.5262 32.3425 66.8667 32.5488 67.2046C32.652 67.3723 32.7551 67.5399 32.8609 67.705C33.0724 68.0352 33.2942 68.3627 33.5211 68.6826C33.6346 68.8425 33.7507 69.0024 33.8693 69.1598C34.4573 69.9465 35.0918 70.6945 35.7675 71.4038C36.5799 72.255 37.4517 73.0469 38.375 73.7742C38.8366 74.1379 39.3138 74.4861 39.8038 74.8163C40.1287 75.0355 40.4614 75.2496 40.7967 75.4534C41.132 75.6572 41.475 75.8558 41.8232 76.0441C42.3442 76.3278 42.8755 76.5909 43.4197 76.8359C46.4939 78.2262 49.9086 79 53.5013 79C56.885 79 60.1063 78.3139 63.0362 77.0758C63.3044 76.9623 63.57 76.8411 63.8331 76.7199C64.2896 76.5083 64.7383 76.2839 65.1768 76.0441C65.4605 75.8893 65.739 75.7294 66.0124 75.5669C66.4148 75.327 66.8094 75.0794 67.1962 74.8189C67.6837 74.4887 68.1608 74.1405 68.625 73.7768C69.0867 73.4131 69.538 73.034 69.9713 72.6367C70.4072 72.2421 70.8276 71.8294 71.2325 71.4038C71.9082 70.6945 72.5427 69.9439 73.1307 69.1598C73.2493 69.0024 73.3628 68.8451 73.4789 68.6826C73.8915 68.1022 74.2784 67.5012 74.642 66.8848C74.7143 66.761 74.7865 66.6346 74.8587 66.5108C75.0186 66.2296 75.1733 65.9433 75.3203 65.6544C75.4106 65.479 75.4983 65.301 75.5834 65.1231C77.1308 61.9092 78 58.3058 78 54.5013C78 50.6967 77.1334 47.0934 75.5834 43.8795H75.5782ZM61.3262 61.0013C61.2643 61.1715 61.1947 61.3392 61.1173 61.5017C61.0013 61.7467 60.8672 61.9866 60.715 62.2161C60.6634 62.2935 60.6118 62.3683 60.5577 62.4431C60.4493 62.5927 60.3333 62.7372 60.2095 62.879C60.0238 63.0905 59.8226 63.2943 59.6034 63.4878C59.5312 63.5522 59.4564 63.6142 59.3816 63.6761C59.2294 63.7999 59.0721 63.9185 58.907 64.0346C58.742 64.1481 58.5692 64.259 58.3938 64.3622C57.9941 64.5969 57.5633 64.8032 57.1017 64.9812C56.6426 65.1592 56.1526 65.3088 55.6394 65.4223C55.5981 65.4326 55.562 65.4429 55.5285 65.4584C55.4949 65.4713 55.464 65.4893 55.4356 65.5074C55.3453 65.5667 55.2912 65.6389 55.2912 65.6983V67.3207C55.2912 68.3163 54.3911 69.1262 53.2846 69.1262H53.2434C52.137 69.1262 51.2369 68.3163 51.2369 67.3207V65.9381C51.2369 65.9227 51.2343 65.9072 51.2291 65.8943C51.2136 65.8479 51.1724 65.8014 51.1156 65.7602C51.0383 65.706 50.9274 65.6647 50.7984 65.6518C50.605 65.6338 50.4115 65.6132 50.2181 65.5899C49.8313 65.5409 49.4496 65.479 49.0756 65.4068C48.1394 65.2237 47.2547 64.9632 46.4862 64.6433C46.3082 64.5685 46.1457 64.4731 46.0039 64.357C45.9575 64.3183 45.911 64.277 45.8672 64.2358C45.7383 64.1094 45.6299 63.9649 45.5448 63.805C45.5164 63.7534 45.4907 63.6967 45.4674 63.6425C45.4468 63.5909 45.4288 63.5394 45.4133 63.4852C45.3669 63.3278 45.3436 63.1628 45.3462 63.0003C45.3462 62.9461 45.3488 62.8919 45.3565 62.8378C45.3617 62.7836 45.372 62.7294 45.3823 62.6753C45.4055 62.5695 45.4391 62.4638 45.4829 62.3606L45.6041 62.0743C45.6377 61.9943 45.6789 61.9195 45.7254 61.8473C45.7357 61.8292 45.7486 61.8112 45.7589 61.7931C45.8053 61.7235 45.8543 61.6564 45.911 61.5945C45.9678 61.5275 46.0297 61.4707 46.0942 61.4165C46.1096 61.4036 46.1277 61.3882 46.1432 61.3753C46.2076 61.3237 46.2747 61.2747 46.3469 61.2334L46.3521 61.2282C46.4243 61.1844 46.5017 61.1457 46.5816 61.1122C46.6022 61.1044 46.6203 61.0941 46.6409 61.0864C46.7183 61.0554 46.7957 61.0271 46.8782 61.0038C46.8808 61.0038 46.8859 61.0038 46.8885 61.0013C46.9736 60.9781 47.0587 60.9626 47.1464 60.9497C47.1696 60.9471 47.1903 60.9445 47.2135 60.9419C47.296 60.9316 47.3811 60.9265 47.4662 60.9239C47.4714 60.9239 47.4766 60.9239 47.4817 60.9239C47.5178 60.9239 47.5539 60.9265 47.59 60.929C47.621 60.929 47.6519 60.929 47.6829 60.9342C47.7216 60.9368 47.7577 60.9445 47.7964 60.9497C47.8273 60.9548 47.8583 60.9574 47.8866 60.9626C47.9279 60.9703 47.9692 60.9806 48.0104 60.9909C48.0362 60.9961 48.062 61.0013 48.0878 61.009C48.1471 61.0271 48.2039 61.0451 48.2606 61.0683C48.2683 61.0709 48.2786 61.0735 48.2864 61.0786C49.2303 61.4552 50.7442 61.904 52.596 61.904C53.8959 61.904 54.9817 61.5894 55.6987 61.0606C55.8018 60.9858 55.8947 60.9058 55.9824 60.8207C56.1913 60.6195 56.3538 60.3925 56.4647 60.1475C56.5756 59.9025 56.6323 59.6368 56.6323 59.3531C56.6323 59.3221 56.6323 59.2937 56.6323 59.2628C56.6323 59.2035 56.6271 59.1416 56.6194 59.0796C56.6091 58.9868 56.591 58.8939 56.5652 58.7985C56.5472 58.734 56.5266 58.6695 56.5033 58.605C56.4776 58.5406 56.4492 58.4735 56.4131 58.409C56.395 58.3755 56.377 58.3419 56.3563 58.3084C56.3176 58.2414 56.2712 58.1743 56.2196 58.1072C56.1681 58.0402 56.1113 57.9705 56.0468 57.9035C55.9824 57.8338 55.9127 57.7642 55.8354 57.6945C55.758 57.6249 55.6729 57.5552 55.58 57.483C55.4872 57.4134 55.3866 57.3412 55.2757 57.2689C55.1106 57.1606 54.9275 57.0523 54.7238 56.9439C54.6567 56.9078 54.5845 56.8717 54.5123 56.833C54.3653 56.7608 54.2105 56.686 54.0429 56.6112C53.9604 56.5751 53.8753 56.5364 53.785 56.5003C53.607 56.4255 53.4213 56.3507 53.2202 56.2759C53.1196 56.2372 53.019 56.2011 52.9133 56.1624C52.8075 56.1237 52.6992 56.0876 52.5883 56.0489C51.7888 55.7858 51.0047 55.5047 50.262 55.1874C49.8158 54.9965 49.3877 54.7928 48.9802 54.5735C48.7841 54.4678 48.5907 54.3568 48.405 54.2434C48.2193 54.1299 48.0388 54.0112 47.866 53.8874C47.6932 53.7636 47.5281 53.6346 47.3682 53.5031C47.2109 53.369 47.0587 53.2323 46.9169 53.0878C46.775 52.9434 46.6409 52.7963 46.5171 52.6416C46.3933 52.4868 46.2773 52.3269 46.1715 52.1592C45.8956 51.7233 45.6892 51.2436 45.5655 50.7174C45.4752 50.3356 45.4262 49.9281 45.4262 49.4922C45.4262 46.5853 47.6261 44.2819 51.1646 43.4823C51.1904 43.4771 51.2162 43.4694 51.242 43.4617C51.3142 43.4359 51.3735 43.4023 51.42 43.3636C51.4354 43.3507 51.4483 43.3378 51.4587 43.3249C51.4819 43.2992 51.4973 43.2708 51.5051 43.2476C51.5102 43.2347 51.5102 43.2218 51.5102 43.2115V41.6922C51.5102 41.5065 51.5412 41.3259 51.6005 41.1557C51.6392 41.0422 51.6908 40.9339 51.7527 40.8333C52.0751 40.3019 52.6863 39.9331 53.393 39.8944C53.4342 39.8944 53.4755 39.8892 53.5168 39.8892C54.2776 39.8892 54.9404 40.271 55.2809 40.8359C55.3428 40.939 55.3943 41.0474 55.433 41.1583C55.4923 41.3285 55.5233 41.5091 55.5233 41.6948V42.9509C55.5233 42.9948 55.5465 43.0412 55.5903 43.0851C55.6626 43.1573 55.7838 43.2192 55.9359 43.2347C56.5214 43.2914 57.0862 43.3765 57.6278 43.4952C58.1694 43.6113 58.6904 43.7609 59.183 43.9363C59.4435 44.0291 59.6756 44.171 59.869 44.3464C59.9645 44.4341 60.0522 44.5321 60.127 44.6353C60.1631 44.6868 60.1992 44.741 60.2301 44.7978C60.2611 44.8545 60.2894 44.9112 60.3152 44.968C60.4055 45.1821 60.4493 45.4091 60.4468 45.6335C60.4442 45.8579 60.3952 46.0823 60.2972 46.2964L60.1785 46.5595C60.1424 46.6368 60.1012 46.7091 60.0547 46.7813C60.0444 46.7993 60.0315 46.8148 60.0212 46.8329C59.9748 46.8999 59.9232 46.967 59.8665 47.0263C59.8639 47.0289 59.8587 47.0341 59.8562 47.0366C59.802 47.0934 59.7427 47.1476 59.6834 47.1991C59.6679 47.212 59.6524 47.2249 59.6369 47.2378C59.5725 47.2894 59.5028 47.3358 59.4306 47.3797C59.4229 47.3848 59.4151 47.3874 59.4074 47.3926C59.3403 47.4313 59.2707 47.4648 59.2011 47.4958C59.183 47.5035 59.165 47.5112 59.1469 47.519C59.0695 47.5499 58.9896 47.5783 58.907 47.6015C58.8942 47.6041 58.8838 47.6067 58.8709 47.6093C58.7961 47.6273 58.7214 47.6428 58.6466 47.6531C58.6259 47.6557 58.6079 47.6583 58.5872 47.6608C58.5021 47.6712 58.4144 47.6763 58.3268 47.6789C58.2906 47.6789 58.2571 47.6789 58.221 47.6763C58.1926 47.6763 58.1643 47.6763 58.1385 47.6737C58.0998 47.6712 58.0611 47.666 58.0224 47.6608C57.9966 47.6583 57.9708 47.6557 57.9451 47.6505C57.9012 47.6428 57.8599 47.6325 57.8187 47.6247C57.798 47.6196 57.7748 47.617 57.7542 47.6118C57.6897 47.5964 57.6278 47.5757 57.5633 47.5525C56.444 47.1527 55.219 46.9489 53.9217 46.9489C53.7025 46.9489 53.4987 46.9593 53.3053 46.9747C51.1853 47.145 50.409 48.187 50.409 49.095C50.409 49.1414 50.409 49.1852 50.4141 49.2291C50.458 49.8817 50.8423 50.4001 51.7991 50.9392C51.9074 51.0011 52.0209 51.0604 52.1421 51.1223C52.3252 51.2152 52.5264 51.3081 52.743 51.4035C52.9623 51.4989 53.197 51.5969 53.4523 51.6975C53.6225 51.7646 53.8005 51.8317 53.9887 51.9013C54.2699 52.0071 54.5716 52.1128 54.894 52.2263C55.1029 52.2985 55.3118 52.3707 55.5207 52.4481C55.7296 52.5255 55.9359 52.6029 56.1449 52.6854C56.248 52.7267 56.3512 52.768 56.4543 52.8118C56.7613 52.9408 57.0656 53.0749 57.3622 53.2194C57.4602 53.2684 57.5582 53.3174 57.6562 53.3664C57.8496 53.467 58.0405 53.5701 58.2262 53.6785C58.319 53.7326 58.4119 53.7894 58.5021 53.8461C58.6827 53.9596 58.8606 54.0783 59.0308 54.2021C60.5706 55.3138 61.6512 56.8511 61.6512 59.1261C61.6512 59.7838 61.5377 60.4183 61.3237 61.0142L61.3262 61.0013Z" fill="#fff"/>
<defs>
<filter id="filter0_d_1588_489" x="0" y="0" width="106" height="106" filterUnits="userSpaceOnUse" color-interpolation-filters="sRGB">
<feFlood flood-opacity="0" result="BackgroundImageFix"/>
<feColorMatrix in="SourceAlpha" type="matrix" values="0 0 0 0 0 0 0 0 0 0 0 0 0 0 0 0 0 0 127 0" result="hardAlpha"/>
<feOffset/>
<feGaussianBlur stdDeviation="5"/>
<feColorMatrix type="matrix" values="0 0 0 0 0.992157 0 0 0 0 0.203922 0 0 0 0 0.431373 0 0 0 0.25 0"/>
<feBlend mode="normal" in2="BackgroundImageFix" result="effect1_dropShadow_1588_489"/>
<feBlend mode="normal" in="SourceGraphic" in2="effect1_dropShadow_1588_489" result="shape"/>
</filter>
</defs>
</svg>
