<svg width="23" height="41" viewBox="0 0 23 41" fill="none" xmlns="http://www.w3.org/2000/svg">
<path d="M16.7076 18.6902L8.08077 16.1598C7.08229 15.8715 6.38735 14.9346 6.38735 13.8936C6.38735 12.5883 7.44175 11.5312 8.74376 11.5312H14.0397C15.0142 11.5312 15.9727 11.8275 16.7715 12.3721C17.2588 12.7004 17.9138 12.6203 18.3292 12.2119L21.1089 9.48926C21.6761 8.93672 21.5962 8.01582 20.9651 7.52734C19.0081 5.98984 16.5638 5.13301 14.0557 5.125V1.28125C14.0557 0.576562 13.4805 0 12.7776 0H10.2215C9.51858 0 8.94346 0.576562 8.94346 1.28125V5.125H8.74376C3.65552 5.125 -0.434253 9.50527 0.037029 14.7023C0.372518 18.3939 3.18423 21.3969 6.73083 22.4379L14.9184 24.8402C15.9168 25.1365 16.6118 26.0654 16.6118 27.1064C16.6118 28.4117 15.5574 29.4688 14.2554 29.4688H8.95943C7.98492 29.4688 7.02638 29.1725 6.2276 28.6279C5.74034 28.2996 5.08534 28.3797 4.66997 28.7881L1.8902 31.5107C1.32307 32.0633 1.40295 32.9842 2.03399 33.4727C3.991 35.0102 6.43528 35.867 8.94346 35.875V39.7188C8.94346 40.4234 9.51858 41 10.2215 41H12.7776C13.4805 41 14.0557 40.4234 14.0557 39.7188V35.859C17.778 35.7869 21.2687 33.5688 22.4988 30.0373C24.2162 25.1045 21.3326 20.0436 16.7076 18.6902Z" fill="#1A75FF"/>
</svg>
