<svg width="56" height="42" viewBox="0 0 56 42" fill="none" xmlns="http://www.w3.org/2000/svg">
<path d="M54.25 35H7V1.75C7 0.783125 6.21688 0 5.25 0H1.75C0.783125 0 0 0.783125 0 1.75V38.5C0 40.4327 1.56734 42 3.5 42H54.25C55.2169 42 56 41.2169 56 40.25V36.75C56 35.7831 55.2169 35 54.25 35ZM50.75 3.5H37.8372C35.4988 3.5 34.3273 6.32734 35.9811 7.98109L39.5248 11.5248L31.5 19.5508L23.4752 11.5259C22.108 10.1588 19.892 10.1588 18.5259 11.5259L11.013 19.0389C10.3294 19.7225 10.3294 20.8305 11.013 21.5141L13.487 23.9881C14.1706 24.6717 15.2786 24.6717 15.9622 23.9881L21 18.9492L29.0248 26.9741C30.392 28.3412 32.608 28.3412 33.9741 26.9741L44.4741 16.4741L48.0178 20.0178C49.6716 21.6716 52.4989 20.5002 52.4989 18.1617V5.25C52.5 4.28312 51.7169 3.5 50.75 3.5Z" fill="#1A75FF"/>
</svg>
