<svg width="106" height="106" viewBox="0 0 106 106" fill="none" xmlns="http://www.w3.org/2000/svg">
<g filter="url(#filter0_d_1588_461)">
<circle cx="53" cy="53" r="43" fill="#6001D3" fill-opacity="0.1"/>
</g>
<path d="M66.4424 34.6057H58.9939C58.9939 31.2747 56.3217 28.5664 53.0351 28.5664C49.7484 28.5664 47.0763 31.2747 47.0763 34.6057H39.6278C37.1605 34.6057 35.1587 36.6346 35.1587 39.1352V72.3515C35.1587 74.8522 37.1605 76.881 39.6278 76.881H66.4424C68.9097 76.881 70.9115 74.8522 70.9115 72.3515V39.1352C70.9115 36.6346 68.9097 34.6057 66.4424 34.6057ZM44.0969 68.5769C42.8586 68.5769 41.8623 67.5672 41.8623 66.3122C41.8623 65.0571 42.8586 64.0474 44.0969 64.0474C45.3352 64.0474 46.3314 65.0571 46.3314 66.3122C46.3314 67.5672 45.3352 68.5769 44.0969 68.5769ZM44.0969 59.518C42.8586 59.518 41.8623 58.5083 41.8623 57.2532C41.8623 55.9982 42.8586 54.9885 44.0969 54.9885C45.3352 54.9885 46.3314 55.9982 46.3314 57.2532C46.3314 58.5083 45.3352 59.518 44.0969 59.518ZM44.0969 50.459C42.8586 50.459 41.8623 49.4493 41.8623 48.1942C41.8623 46.9392 42.8586 45.9295 44.0969 45.9295C45.3352 45.9295 46.3314 46.9392 46.3314 48.1942C46.3314 49.4493 45.3352 50.459 44.0969 50.459ZM53.0351 32.341C54.2734 32.341 55.2696 33.3507 55.2696 34.6057C55.2696 35.8608 54.2734 36.8705 53.0351 36.8705C51.7968 36.8705 50.8005 35.8608 50.8005 34.6057C50.8005 33.3507 51.7968 32.341 53.0351 32.341ZM64.9527 67.0671C64.9527 67.4823 64.6175 67.822 64.2078 67.822H50.8005C50.3909 67.822 50.0557 67.4823 50.0557 67.0671V65.5573C50.0557 65.1421 50.3909 64.8024 50.8005 64.8024H64.2078C64.6175 64.8024 64.9527 65.1421 64.9527 65.5573V67.0671ZM64.9527 58.0081C64.9527 58.4233 64.6175 58.763 64.2078 58.763H50.8005C50.3909 58.763 50.0557 58.4233 50.0557 58.0081V56.4983C50.0557 56.0831 50.3909 55.7434 50.8005 55.7434H64.2078C64.6175 55.7434 64.9527 56.0831 64.9527 56.4983V58.0081ZM64.9527 48.9491C64.9527 49.3643 64.6175 49.704 64.2078 49.704H50.8005C50.3909 49.704 50.0557 49.3643 50.0557 48.9491V47.4393C50.0557 47.0241 50.3909 46.6844 50.8005 46.6844H64.2078C64.6175 46.6844 64.9527 47.0241 64.9527 47.4393V48.9491Z" fill="#6001D3"/>
<defs>
<filter id="filter0_d_1588_461" x="0" y="0" width="106" height="106" filterUnits="userSpaceOnUse" color-interpolation-filters="sRGB">
<feFlood flood-opacity="0" result="BackgroundImageFix"/>
<feColorMatrix in="SourceAlpha" type="matrix" values="0 0 0 0 0 0 0 0 0 0 0 0 0 0 0 0 0 0 127 0" result="hardAlpha"/>
<feOffset/>
<feGaussianBlur stdDeviation="5"/>
<feColorMatrix type="matrix" values="0 0 0 0 0.376471 0 0 0 0 0.00392157 0 0 0 0 0.827451 0 0 0 0.25 0"/>
<feBlend mode="normal" in2="BackgroundImageFix" result="effect1_dropShadow_1588_461"/>
<feBlend mode="normal" in="SourceGraphic" in2="effect1_dropShadow_1588_461" result="shape"/>
</filter>
</defs>
</svg>
