<svg width="51" height="41" viewBox="0 0 51 41" fill="none" xmlns="http://www.w3.org/2000/svg">
<path d="M39.525 17.9375C33.1819 17.9375 28.05 23.0945 28.05 29.4688C28.05 35.843 33.1819 41 39.525 41C45.8681 41 51 35.843 51 29.4688C51 23.0945 45.8681 17.9375 39.525 17.9375ZM44.625 29.9732C44.625 30.3977 44.2744 30.75 43.852 30.75H39.023C38.6006 30.75 38.25 30.3977 38.25 29.9732V23.8393C38.25 23.4148 38.6006 23.0625 39.023 23.0625H40.027C40.4494 23.0625 40.8 23.4148 40.8 23.8393V28.1875H43.852C44.2744 28.1875 44.625 28.5398 44.625 28.9643V29.9732ZM25.5 29.4688C25.5 27.2426 26.0339 25.1365 26.9503 23.2627C26.3128 23.1426 25.6594 23.0625 24.99 23.0625H23.6592C21.8902 23.8793 19.9219 24.3438 17.85 24.3438C15.7781 24.3438 13.8178 23.8793 12.0408 23.0625H10.71C4.79719 23.0625 0 27.8832 0 33.825V37.1562C0 39.2783 1.71328 41 3.825 41H31.4845C27.8747 38.4455 25.5 34.2334 25.5 29.4688ZM17.85 20.5C23.4839 20.5 28.05 15.9115 28.05 10.25C28.05 4.58848 23.4839 0 17.85 0C12.2161 0 7.65 4.58848 7.65 10.25C7.65 15.9115 12.2161 20.5 17.85 20.5Z" fill="#1A75FF"/>
</svg>
