<svg width="71" height="65" viewBox="0 0 71 65" fill="none" xmlns="http://www.w3.org/2000/svg">
<rect opacity="0.1" width="70.2" height="65" rx="32.5" fill="#FD346E"/>
<path d="M47.5667 25.9311C47.5163 25.8294 47.4629 25.7277 47.411 25.6275C47.3042 25.4256 47.1927 25.2281 47.0767 25.0321C46.8447 24.6415 46.5929 24.2627 46.3227 23.8957C46.2555 23.8043 46.1869 23.7129 46.1166 23.623C45.7686 23.1734 45.3931 22.746 44.9932 22.3407C44.7536 22.0975 44.5048 21.8631 44.2468 21.6362C43.9888 21.4106 43.7233 21.1925 43.45 20.9847C43.2669 20.8461 43.0806 20.712 42.8914 20.5823C42.7967 20.5175 42.7006 20.4526 42.6044 20.3907C42.3159 20.202 42.0183 20.0237 41.7145 19.8542C41.5115 19.7422 41.307 19.6346 41.0978 19.5314C40.7849 19.3766 40.4659 19.2322 40.1408 19.0995C38.4068 18.3906 36.4988 18 34.4977 18C34.484 18 34.4702 18 34.4565 18C29.3751 18.0133 24.9104 20.5514 22.3323 24.3821C22.0652 24.7785 21.8179 25.1883 21.5936 25.6113C20.7632 27.1707 20.229 28.9011 20.0595 30.7317C20.0214 31.1488 20 31.5718 20 31.9993C20 32.7244 20.0565 33.4363 20.1664 34.132C20.2213 34.4799 20.29 34.8233 20.3709 35.1623C20.4518 35.5013 20.5449 35.8344 20.6518 36.1631C20.6869 36.2722 20.7235 36.3812 20.7617 36.4903C20.838 36.707 20.9189 36.9221 21.0059 37.1329C21.2226 37.6621 21.4714 38.1765 21.7508 38.6732C21.8622 38.8721 21.9782 39.0667 22.1003 39.2598C22.1614 39.3556 22.2224 39.4514 22.285 39.5457C22.4102 39.7344 22.5415 39.9216 22.6758 40.1043C22.7429 40.1957 22.8116 40.2871 22.8818 40.377C23.2299 40.8266 23.6053 41.254 24.0053 41.6593C24.4861 42.1457 25.002 42.5982 25.5485 43.0138C25.8217 43.2217 26.1041 43.4206 26.3941 43.6093C26.5864 43.7346 26.7833 43.8569 26.9817 43.9734C27.1802 44.0898 27.3832 44.2033 27.5892 44.3109C27.8976 44.473 28.212 44.6234 28.5341 44.7634C30.3535 45.5578 32.3745 46 34.5008 46C36.5034 46 38.4099 45.6079 40.1439 44.9005C40.3026 44.8356 40.4598 44.7663 40.6155 44.6971C40.8857 44.5762 41.1513 44.448 41.4108 44.3109C41.5787 44.2225 41.7435 44.1311 41.9053 44.0382C42.1434 43.9011 42.377 43.7596 42.6059 43.6108C42.8944 43.4221 43.1768 43.2231 43.4516 43.0153C43.7248 42.8075 43.9919 42.5908 44.2483 42.3638C44.5063 42.1383 44.7551 41.9025 44.9947 41.6593C45.3947 41.254 45.7701 40.8251 46.1182 40.377C46.1884 40.2871 46.2555 40.1972 46.3242 40.1043C46.5685 39.7727 46.7974 39.4293 47.0126 39.077C47.0554 39.0063 47.0981 38.934 47.1409 38.8633C47.2355 38.7026 47.3271 38.539 47.4141 38.374C47.4675 38.2737 47.5194 38.172 47.5698 38.0703C48.4856 36.2338 49 34.1748 49 32.0007C49 29.8267 48.4871 27.7676 47.5698 25.9311H47.5667ZM39.1319 35.715C39.0952 35.8123 39.054 35.9081 39.0082 36.0009C38.9395 36.141 38.8602 36.278 38.7701 36.4092C38.7396 36.4534 38.709 36.4962 38.677 36.5389C38.6129 36.6244 38.5442 36.707 38.4709 36.788C38.361 36.9089 38.242 37.0253 38.1122 37.1359C38.0695 37.1727 38.0252 37.2081 37.9809 37.2435C37.8909 37.3142 37.7978 37.382 37.7001 37.4483C37.6024 37.5132 37.5001 37.5766 37.3963 37.6355C37.1597 37.7696 36.9048 37.8876 36.6316 37.9893C36.3599 38.091 36.0699 38.1764 35.7661 38.2413C35.7417 38.2472 35.7204 38.2531 35.7005 38.2619C35.6807 38.2693 35.6624 38.2796 35.6456 38.2899C35.5921 38.3238 35.5601 38.3651 35.5601 38.399V39.3261C35.5601 39.895 35.0274 40.3578 34.3725 40.3578H34.3481C33.6933 40.3578 33.1606 39.895 33.1606 39.3261V38.5361C33.1606 38.5272 33.1591 38.5184 33.156 38.511C33.1469 38.4845 33.1224 38.458 33.0888 38.4344C33.0431 38.4034 32.9774 38.3798 32.9011 38.3725C32.7866 38.3622 32.6721 38.3504 32.5577 38.3371C32.3287 38.3091 32.1028 38.2737 31.8815 38.2325C31.3274 38.1278 30.8038 37.9789 30.349 37.7962C30.2436 37.7534 30.1475 37.6989 30.0635 37.6326C30.0361 37.6105 30.0086 37.5869 29.9826 37.5633C29.9063 37.4911 29.8422 37.4085 29.7918 37.3172C29.775 37.2877 29.7598 37.2553 29.746 37.2243C29.7338 37.1948 29.7231 37.1653 29.714 37.1344C29.6865 37.0445 29.6728 36.9501 29.6743 36.8573C29.6743 36.8263 29.6758 36.7954 29.6804 36.7644C29.6835 36.7335 29.6896 36.7025 29.6957 36.6716C29.7094 36.6112 29.7292 36.5507 29.7552 36.4918L29.8269 36.3282C29.8468 36.2825 29.8712 36.2397 29.8987 36.1985C29.9048 36.1881 29.9124 36.1778 29.9185 36.1675C29.946 36.1277 29.975 36.0894 30.0086 36.054C30.0422 36.0157 30.0788 35.9833 30.117 35.9523C30.1261 35.9449 30.1368 35.9361 30.146 35.9287C30.1841 35.8992 30.2238 35.8712 30.2665 35.8477L30.2696 35.8447C30.3123 35.8197 30.3581 35.7975 30.4054 35.7784C30.4177 35.774 30.4283 35.7681 30.4406 35.7636C30.4863 35.746 30.5321 35.7297 30.581 35.7165C30.5825 35.7165 30.5856 35.7165 30.5871 35.715C30.6375 35.7017 30.6878 35.6929 30.7397 35.6855C30.7535 35.6841 30.7657 35.6826 30.7794 35.6811C30.8283 35.6752 30.8786 35.6723 30.929 35.6708C30.932 35.6708 30.9351 35.6708 30.9382 35.6708C30.9595 35.6708 30.9809 35.6723 31.0023 35.6737C31.0206 35.6737 31.0389 35.6737 31.0572 35.6767C31.0801 35.6782 31.1015 35.6826 31.1244 35.6855C31.1427 35.6885 31.161 35.69 31.1778 35.6929C31.2022 35.6973 31.2266 35.7032 31.2511 35.7091C31.2663 35.7121 31.2816 35.715 31.2969 35.7194C31.332 35.7297 31.3655 35.7401 31.3991 35.7533C31.4037 35.7548 31.4098 35.7563 31.4144 35.7592C31.9731 35.9744 32.869 36.2309 33.965 36.2309C34.7343 36.2309 35.3769 36.0511 35.8013 35.7489C35.8623 35.7062 35.9173 35.6605 35.9692 35.6118C36.0928 35.4969 36.189 35.3672 36.2546 35.2271C36.3202 35.0871 36.3538 34.9353 36.3538 34.7732C36.3538 34.7555 36.3538 34.7393 36.3538 34.7216C36.3538 34.6877 36.3508 34.6523 36.3462 34.6169C36.3401 34.5639 36.3294 34.5108 36.3141 34.4563C36.3034 34.4194 36.2912 34.3826 36.2775 34.3457C36.2622 34.3089 36.2454 34.2706 36.2241 34.2337C36.2134 34.2146 36.2027 34.1954 36.1905 34.1762C36.1676 34.1379 36.1401 34.0996 36.1096 34.0613C36.0791 34.023 36.0455 33.9832 36.0073 33.9448C35.9692 33.905 35.9279 33.8652 35.8822 33.8254C35.8364 33.7857 35.786 33.7459 35.731 33.7046C35.6761 33.6648 35.6166 33.6235 35.5509 33.5822C35.4532 33.5203 35.3449 33.4584 35.2243 33.3965C35.1846 33.3759 35.1419 33.3553 35.0991 33.3332C35.0121 33.2919 34.9205 33.2491 34.8213 33.2064C34.7725 33.1858 34.7221 33.1637 34.6687 33.143C34.5633 33.1003 34.4534 33.0575 34.3344 33.0148C34.2749 32.9927 34.2153 32.972 34.1527 32.9499C34.0902 32.9278 34.0261 32.9072 33.9604 32.8851C33.4872 32.7347 33.0232 32.5741 32.5836 32.3928C32.3195 32.2837 32.0662 32.1673 31.825 32.042C31.709 31.9816 31.5945 31.9182 31.4846 31.8533C31.3747 31.7885 31.2679 31.7207 31.1656 31.6499C31.0633 31.5792 30.9656 31.5055 30.871 31.4303C30.7779 31.3537 30.6878 31.2756 30.6039 31.193C30.5199 31.1105 30.4406 31.0265 30.3673 30.938C30.294 30.8496 30.2253 30.7582 30.1627 30.6624C29.9994 30.4133 29.8773 30.1392 29.804 29.8385C29.7506 29.6204 29.7216 29.3875 29.7216 29.1384C29.7216 27.4773 31.0236 26.1611 33.1179 25.7042C33.1331 25.7012 33.1484 25.6968 33.1636 25.6924C33.2064 25.6776 33.2415 25.6585 33.269 25.6364C33.2781 25.629 33.2858 25.6216 33.2919 25.6143C33.3056 25.5995 33.3148 25.5833 33.3193 25.57C33.3224 25.5627 33.3224 25.5553 33.3224 25.5494V24.6813C33.3224 24.5751 33.3407 24.472 33.3758 24.3747C33.3987 24.3098 33.4292 24.2479 33.4659 24.1905C33.6567 23.8868 34.0184 23.6761 34.4367 23.6539C34.4611 23.6539 34.4855 23.651 34.5099 23.651C34.9602 23.651 35.3525 23.8691 35.554 24.1919C35.5906 24.2509 35.6211 24.3128 35.644 24.3762C35.6791 24.4734 35.6975 24.5766 35.6975 24.6827V25.4005C35.6975 25.4256 35.7112 25.4521 35.7371 25.4772C35.7799 25.5185 35.8516 25.5538 35.9417 25.5627C36.2882 25.5951 36.6225 25.6437 36.943 25.7115C37.2635 25.7779 37.5719 25.8633 37.8634 25.9636C38.0176 26.0166 38.155 26.0977 38.2694 26.1979C38.3259 26.248 38.3778 26.304 38.4221 26.363C38.4434 26.3925 38.4648 26.4234 38.4831 26.4559C38.5014 26.4883 38.5182 26.5207 38.5335 26.5531C38.5869 26.6755 38.6129 26.8052 38.6113 26.9334C38.6098 27.0616 38.5808 27.1899 38.5228 27.3122L38.4526 27.4625C38.4312 27.5068 38.4068 27.548 38.3793 27.5893C38.3732 27.5996 38.3656 27.6085 38.3595 27.6188C38.332 27.6571 38.3015 27.6954 38.2679 27.7293C38.2664 27.7308 38.2633 27.7337 38.2618 27.7352C38.2298 27.7676 38.1946 27.7986 38.1595 27.8281C38.1504 27.8354 38.1412 27.8428 38.1321 27.8502C38.0939 27.8797 38.0527 27.9062 38.0099 27.9313C38.0054 27.9342 38.0008 27.9357 37.9962 27.9386C37.9565 27.9607 37.9153 27.9799 37.8741 27.9976C37.8634 28.002 37.8527 28.0064 37.842 28.0108C37.7963 28.0285 37.7489 28.0447 37.7001 28.058C37.6925 28.0595 37.6864 28.061 37.6787 28.0624C37.6345 28.0727 37.5902 28.0816 37.5459 28.0875C37.5337 28.089 37.523 28.0904 37.5108 28.0919C37.4604 28.0978 37.4086 28.1008 37.3567 28.1022C37.3353 28.1022 37.3154 28.1022 37.2941 28.1008C37.2773 28.1008 37.2605 28.1008 37.2452 28.0993C37.2223 28.0978 37.1994 28.0949 37.1765 28.0919C37.1613 28.0904 37.146 28.089 37.1307 28.086C37.1048 28.0816 37.0804 28.0757 37.056 28.0713C37.0437 28.0683 37.03 28.0669 37.0178 28.0639C36.9796 28.0551 36.943 28.0433 36.9048 28.03C36.2424 27.8015 35.5173 27.6851 34.7496 27.6851C34.6198 27.6851 34.4992 27.691 34.3848 27.6998C33.1301 27.7971 32.6706 28.3926 32.6706 28.9114C32.6706 28.9379 32.6706 28.963 32.6737 28.9881C32.6996 29.361 32.9271 29.6572 33.4933 29.9653C33.5575 30.0006 33.6246 30.0345 33.6964 30.0699C33.8047 30.123 33.9238 30.176 34.052 30.2306C34.1817 30.2851 34.3207 30.3411 34.4718 30.3986C34.5725 30.4369 34.6778 30.4752 34.7893 30.515C34.9556 30.5755 35.1342 30.6359 35.325 30.7007C35.4487 30.742 35.5723 30.7833 35.6959 30.8275C35.8196 30.8717 35.9417 30.9159 36.0653 30.9631C36.1264 30.9867 36.1874 31.0103 36.2485 31.0353C36.4301 31.109 36.6102 31.1857 36.7858 31.2682C36.8438 31.2962 36.9018 31.3242 36.9598 31.3522C37.0743 31.4097 37.1872 31.4687 37.2971 31.5306C37.3521 31.5615 37.407 31.5939 37.4604 31.6264C37.5673 31.6912 37.6726 31.759 37.7734 31.8298C38.6846 32.465 39.3242 33.3435 39.3242 34.6435C39.3242 35.0193 39.257 35.3819 39.1303 35.7224L39.1319 35.715Z" fill="#FD346E"/>
</svg>
