<svg width="68" height="65" viewBox="0 0 68 65" fill="none" xmlns="http://www.w3.org/2000/svg">
<rect opacity="0.1" x="0.000488281" width="67.5" height="65" rx="32.5" fill="#1DE2CF"/>
<path d="M45.2272 34.125H35.0436L41.8326 40.957C42.0904 41.2148 42.5201 41.2148 42.7779 40.957C44.4537 39.4102 45.6139 37.3047 45.9147 34.8984C46.0006 34.5117 45.6569 34.125 45.2272 34.125ZM44.5397 31.375C44.1959 26.2188 40.1139 22.1367 34.9576 21.793C34.5709 21.75 34.2701 22.0938 34.2701 22.4805V32.0625H43.8522C44.2389 32.0625 44.5826 31.7617 44.5397 31.375ZM32.2076 34.125V23.9414C32.2076 23.5547 31.8209 23.2109 31.4342 23.2539C26.2779 23.9844 22.3678 28.4531 22.5826 33.8242C22.7545 39.3242 27.4811 43.8359 33.024 43.75C35.1725 43.75 37.192 43.0625 38.8248 41.8594C39.1686 41.6445 39.1686 41.1289 38.8678 40.8281L32.2076 34.125Z" fill="#1DE2CF"/>
</svg>
