<svg width="100" height="100" viewBox="0 0 100 100" fill="none" xmlns="http://www.w3.org/2000/svg">
<g filter="url(#filter0_d_506_8325)">
<circle cx="50" cy="30" r="30" fill="#FFFCE6"/>
</g>
<g clip-path="url(#clip0_506_8325)">
<path d="M63.2441 21.0228L60.8571 23.4095C62.0288 25.3323 62.7041 27.589 62.7041 30.0004C62.7041 37.0061 57.0038 42.7057 49.9972 42.7057C42.9906 42.7057 37.2904 37.0061 37.2904 30.0004C37.2904 22.9947 42.9907 17.2951 49.9973 17.2951C52.6084 17.2951 55.038 18.0867 57.0589 19.4424L59.428 17.0736C54.7747 13.6734 48.7928 13.1339 43.7682 15.2588C42.8197 15.66 41.9049 16.1564 41.0494 16.7343C31.6247 23.1008 31.6758 36.9347 41.0494 43.2666C42.7267 44.3996 44.6617 45.2428 46.7741 45.675C47.8283 45.8907 48.9127 46.0001 49.9973 46.0001C51.0819 46.0001 52.1663 45.8907 53.2205 45.675C54.2486 45.4647 55.26 45.1508 56.2264 44.7421C57.1748 44.341 58.0896 43.8446 58.9451 43.2666C59.792 42.6945 60.5885 42.0375 61.3122 41.3139C62.0359 40.5903 62.6929 39.794 63.2651 38.9471C66.916 33.5439 66.9142 26.4262 63.2441 21.0229V21.0228Z" fill="#FFD700"/>
<path d="M49.9865 28.0672L44.5592 22.6407L42.2295 24.9701L49.9866 32.7262C50.1295 32.5833 65.0859 17.6288 65.2222 17.4925L62.8924 15.1631C62.8616 15.194 50.4315 27.6225 49.9866 28.0672H49.9865Z" fill="#FFD700"/>
<path d="M50.6495 21.3846V19.0876C50.6495 18.7275 50.3576 18.4355 49.9974 18.4355C49.6372 18.4355 49.3452 18.7275 49.3452 19.0876V21.3846C49.3452 21.7448 49.6372 22.0367 49.9974 22.0367C50.3576 22.0367 50.6495 21.7451 50.6495 21.3846Z" fill="#FFD700"/>
<path d="M49.9974 37.9639C49.6372 37.9639 49.3452 38.2558 49.3452 38.616V40.9129C49.3452 41.2727 49.6368 41.565 49.9974 41.565C50.358 41.565 50.6495 41.2731 50.6495 40.9129V38.616C50.6495 38.2558 50.3576 37.9639 49.9974 37.9639Z" fill="#FFD700"/>
<path d="M39.0833 29.3486C38.7231 29.3486 38.4312 29.6406 38.4312 30.0007C38.4312 30.3609 38.7231 30.6528 39.0833 30.6528H41.3806C41.7408 30.6528 42.0328 30.3609 42.0328 30.0007C42.0328 29.6406 41.7408 29.3486 41.3806 29.3486H39.0833Z" fill="#FFD700"/>
<path d="M57.9614 30.0007C57.9614 30.3609 58.2534 30.6528 58.6136 30.6528H60.9109C61.2711 30.6528 61.563 30.3609 61.563 30.0007C61.563 29.6406 61.2711 29.3486 60.9109 29.3486H58.6136C58.2534 29.3486 57.9614 29.6406 57.9614 30.0007Z" fill="#FFD700"/>
</g>
<defs>
<filter id="filter0_d_506_8325" x="0" y="0" width="100" height="100" filterUnits="userSpaceOnUse" color-interpolation-filters="sRGB">
<feFlood flood-opacity="0" result="BackgroundImageFix"/>
<feColorMatrix in="SourceAlpha" type="matrix" values="0 0 0 0 0 0 0 0 0 0 0 0 0 0 0 0 0 0 127 0" result="hardAlpha"/>
<feOffset dy="20"/>
<feGaussianBlur stdDeviation="10"/>
<feColorMatrix type="matrix" values="0 0 0 0 0.988235 0 0 0 0 0.862745 0 0 0 0 0 0 0 0 0.2 0"/>
<feBlend mode="normal" in2="BackgroundImageFix" result="effect1_dropShadow_506_8325"/>
<feBlend mode="normal" in="SourceGraphic" in2="effect1_dropShadow_506_8325" result="shape"/>
</filter>
<clipPath id="clip0_506_8325">
<rect width="32" height="32" fill="white" transform="translate(34 14)"/>
</clipPath>
</defs>
</svg>
