<svg width="68" height="65" viewBox="0 0 68 65" fill="none" xmlns="http://www.w3.org/2000/svg">
<rect opacity="0.1" width="67.5" height="65" rx="32.5" fill="#1DE2CF"/>
<path d="M45.2262 34.125H35.0426L41.8317 40.957C42.0895 41.2148 42.5192 41.2148 42.777 40.957C44.4527 39.4102 45.6129 37.3047 45.9137 34.8984C45.9996 34.5117 45.6559 34.125 45.2262 34.125ZM44.5387 31.375C44.1949 26.2188 40.1129 22.1367 34.9567 21.793C34.5699 21.75 34.2692 22.0938 34.2692 22.4805V32.0625H43.8512C44.2379 32.0625 44.5817 31.7617 44.5387 31.375ZM32.2067 34.125V23.9414C32.2067 23.5547 31.8199 23.2109 31.4332 23.2539C26.277 23.9844 22.3668 28.4531 22.5817 33.8242C22.7535 39.3242 27.4801 43.8359 33.0231 43.75C35.1715 43.75 37.191 43.0625 38.8238 41.8594C39.1676 41.6445 39.1676 41.1289 38.8668 40.8281L32.2067 34.125Z" fill="#1DE2CF"/>
</svg>
