<svg width="71" height="65" viewBox="0 0 71 65" fill="none" xmlns="http://www.w3.org/2000/svg">
<rect opacity="0.1" width="70.2" height="65" rx="32.5" fill="#FD346E"/>
<path d="M49.4661 26.2144C49.4105 26.1091 49.3514 26.0037 49.2941 25.8999C49.176 25.6908 49.0528 25.4862 48.9246 25.2832C48.6682 24.8787 48.3899 24.4863 48.0913 24.1062C48.0171 24.0116 47.9412 23.9169 47.8636 23.8238C47.4789 23.3582 47.0639 22.9155 46.622 22.4957C46.3571 22.2438 46.0821 22.0011 45.7971 21.766C45.512 21.5325 45.2184 21.3065 44.9165 21.0913C44.714 20.9478 44.5082 20.8089 44.299 20.6745C44.1945 20.6074 44.0882 20.5402 43.9819 20.4761C43.6631 20.2807 43.3341 20.096 42.9984 19.9204C42.7741 19.8044 42.548 19.693 42.3169 19.5861C41.9711 19.4258 41.6185 19.2762 41.2592 19.1388C39.3428 18.4045 37.2341 18 35.0226 18C35.0074 18 34.9922 18 34.977 18C29.3612 18.0137 24.4269 20.6425 21.5776 24.61C21.2824 25.0206 21.0091 25.445 20.7612 25.8831C19.8435 27.4982 19.253 29.2904 19.0658 31.1864C19.0236 31.6184 19 32.0565 19 32.4992C19 33.2503 19.0624 33.9876 19.1839 34.7082C19.2446 35.0684 19.3205 35.4241 19.4099 35.7752C19.4993 36.1263 19.6022 36.4713 19.7203 36.8118C19.7591 36.9247 19.7996 37.0377 19.8418 37.1507C19.9261 37.3751 20.0155 37.5979 20.1117 37.8162C20.3512 38.3643 20.6262 38.897 20.9349 39.4115C21.0581 39.6176 21.1863 39.8191 21.3212 40.0191C21.3887 40.1183 21.4562 40.2175 21.5254 40.3152C21.6637 40.5106 21.8088 40.7045 21.9572 40.8938C22.0314 40.9884 22.1073 41.0831 22.1849 41.1762C22.5696 41.6418 22.9846 42.0845 23.4265 42.5043C23.9579 43.0081 24.5281 43.4767 25.132 43.9072C25.434 44.1224 25.7461 44.3285 26.0666 44.5239C26.2791 44.6537 26.4968 44.7804 26.7161 44.901C26.9354 45.0216 27.1597 45.1391 27.3875 45.2506C27.7282 45.4185 28.0757 45.5742 28.4317 45.7192C30.4425 46.542 32.676 47 35.0259 47C37.2392 47 39.3462 46.5939 41.2626 45.8612C41.438 45.794 41.6118 45.7223 41.7838 45.6505C42.0824 45.5253 42.3759 45.3925 42.6627 45.2506C42.8483 45.159 43.0305 45.0643 43.2093 44.9682C43.4725 44.8262 43.7306 44.6796 43.9836 44.5255C44.3024 44.3301 44.6145 44.124 44.9182 43.9087C45.2201 43.6935 45.5153 43.4691 45.7987 43.234C46.0838 43.0004 46.3588 42.7562 46.6237 42.5043C47.0656 42.0845 47.4806 41.6403 47.8652 41.1762C47.9428 41.0831 48.0171 40.9899 48.093 40.8938C48.3629 40.5503 48.6159 40.1946 48.8538 39.8298C48.901 39.7565 48.9483 39.6817 48.9955 39.6084C49.1001 39.442 49.2013 39.2726 49.2975 39.1016C49.3565 38.9978 49.4139 38.8925 49.4695 38.7871C50.4817 36.885 51.0502 34.7524 51.0502 32.5008C51.0502 30.2491 50.4834 28.1165 49.4695 26.2144H49.4661ZM40.1441 36.3477C40.1036 36.4484 40.0581 36.5477 40.0075 36.6438C39.9316 36.7889 39.8438 36.9308 39.7443 37.0667C39.7106 37.1125 39.6768 37.1568 39.6414 37.201C39.5706 37.2896 39.4946 37.3751 39.4137 37.459C39.2922 37.5842 39.1606 37.7048 39.0172 37.8193C38.97 37.8575 38.9211 37.8941 38.8722 37.9307C38.7726 38.004 38.6697 38.0742 38.5618 38.1429C38.4538 38.2101 38.3408 38.2757 38.2261 38.3368C37.9646 38.4757 37.6829 38.5978 37.3809 38.7032C37.0806 38.8085 36.7601 38.897 36.4244 38.9642C36.3974 38.9703 36.3738 38.9764 36.3519 38.9856C36.3299 38.9932 36.3097 39.0039 36.2911 39.0146C36.2321 39.0497 36.1967 39.0924 36.1967 39.1275V40.0877C36.1967 40.677 35.6079 41.1563 34.8842 41.1563H34.8572C34.1335 41.1563 33.5448 40.677 33.5448 40.0877V39.2695C33.5448 39.2604 33.5431 39.2512 33.5397 39.2436C33.5296 39.2161 33.5026 39.1886 33.4655 39.1642C33.4149 39.1321 33.3424 39.1077 33.258 39.1001C33.1315 39.0894 33.005 39.0772 32.8785 39.0634C32.6254 39.0344 32.3758 38.9978 32.1311 38.955C31.5188 38.8467 30.9402 38.6925 30.4375 38.5032C30.3211 38.4589 30.2148 38.4024 30.122 38.3337C30.0916 38.3108 30.0613 38.2864 30.0326 38.262C29.9482 38.1872 29.8774 38.1017 29.8217 38.0071C29.8032 37.9765 29.7863 37.9429 29.7711 37.9109C29.7576 37.8804 29.7458 37.8498 29.7357 37.8178C29.7053 37.7246 29.6901 37.6269 29.6918 37.5308C29.6918 37.4987 29.6935 37.4667 29.6986 37.4346C29.702 37.4025 29.7087 37.3705 29.7154 37.3384C29.7306 37.2758 29.7526 37.2132 29.7812 37.1522L29.8605 36.9827C29.8825 36.9354 29.9094 36.8911 29.9398 36.8484C29.9466 36.8377 29.955 36.827 29.9617 36.8163C29.9921 36.7751 30.0242 36.7354 30.0613 36.6988C30.0984 36.6591 30.1389 36.6255 30.181 36.5935C30.1912 36.5858 30.203 36.5767 30.2131 36.569C30.2553 36.5385 30.2991 36.5095 30.3464 36.4851L30.3497 36.482C30.397 36.4561 30.4476 36.4332 30.4999 36.4133C30.5134 36.4087 30.5252 36.4026 30.5387 36.3981C30.5893 36.3797 30.6399 36.363 30.6939 36.3492C30.6956 36.3492 30.6989 36.3492 30.7006 36.3477C30.7563 36.3339 30.812 36.3248 30.8693 36.3172C30.8845 36.3156 30.898 36.3141 30.9132 36.3126C30.9672 36.3065 31.0228 36.3034 31.0785 36.3019C31.0819 36.3019 31.0852 36.3019 31.0886 36.3019C31.1122 36.3019 31.1359 36.3034 31.1595 36.3049C31.1797 36.3049 31.2 36.3049 31.2202 36.308C31.2455 36.3095 31.2691 36.3141 31.2944 36.3172C31.3147 36.3202 31.3349 36.3217 31.3535 36.3248C31.3805 36.3294 31.4074 36.3355 31.4344 36.3416C31.4513 36.3446 31.4682 36.3477 31.485 36.3523C31.5238 36.363 31.561 36.3736 31.5981 36.3874C31.6031 36.3889 31.6099 36.3904 31.6149 36.3935C32.2324 36.6164 33.2226 36.882 34.4338 36.882C35.284 36.882 35.9942 36.6957 36.4632 36.3828C36.5307 36.3385 36.5914 36.2912 36.6488 36.2408C36.7854 36.1218 36.8917 35.9874 36.9642 35.8424C37.0368 35.6974 37.0739 35.5401 37.0739 35.3722C37.0739 35.3539 37.0739 35.3371 37.0739 35.3188C37.0739 35.2837 37.0705 35.247 37.0654 35.2104C37.0587 35.1554 37.0469 35.1005 37.03 35.044C37.0182 35.0058 37.0047 34.9677 36.9895 34.9295C36.9727 34.8914 36.9541 34.8517 36.9305 34.8135C36.9187 34.7937 36.9069 34.7738 36.8934 34.754C36.8681 34.7143 36.8377 34.6746 36.804 34.6349C36.7702 34.5952 36.7331 34.554 36.6909 34.5143C36.6488 34.4731 36.6032 34.4319 36.5526 34.3906C36.502 34.3494 36.4463 34.3082 36.3856 34.2655C36.3249 34.2242 36.2591 34.1815 36.1866 34.1388C36.0786 34.0746 35.9588 34.0105 35.8255 33.9464C35.7817 33.925 35.7345 33.9037 35.6872 33.8808C35.5911 33.838 35.4898 33.7938 35.3802 33.7495C35.3262 33.7281 35.2705 33.7052 35.2115 33.6838C35.0951 33.6396 34.9736 33.5953 34.8421 33.551C34.7763 33.5281 34.7105 33.5068 34.6413 33.4839C34.5722 33.461 34.5013 33.4396 34.4288 33.4167C33.9058 33.261 33.393 33.0946 32.9071 32.9068C32.6153 32.7939 32.3353 32.6733 32.0687 32.5435C31.9405 32.4809 31.814 32.4153 31.6925 32.3481C31.5711 32.2809 31.453 32.2107 31.34 32.1374C31.2269 32.0642 31.119 31.9878 31.0144 31.91C30.9115 31.8306 30.812 31.7497 30.7192 31.6642C30.6264 31.5787 30.5387 31.4917 30.4577 31.4001C30.3767 31.3085 30.3008 31.2139 30.2317 31.1146C30.0511 30.8567 29.9162 30.5727 29.8352 30.2613C29.7762 30.0354 29.7441 29.7942 29.7441 29.5362C29.7441 27.8158 31.1831 26.4525 33.4976 25.9793C33.5144 25.9763 33.5313 25.9717 33.5482 25.9671C33.5954 25.9518 33.6342 25.932 33.6646 25.9091C33.6747 25.9015 33.6831 25.8938 33.6899 25.8862C33.7051 25.8709 33.7152 25.8541 33.7202 25.8404C33.7236 25.8328 33.7236 25.8251 33.7236 25.819V24.9199C33.7236 24.81 33.7439 24.7031 33.7827 24.6024C33.808 24.5352 33.8417 24.4711 33.8822 24.4115C34.0931 24.0971 34.4929 23.8788 34.9551 23.8559C34.9821 23.8559 35.0091 23.8528 35.0361 23.8528C35.5337 23.8528 35.9672 24.0787 36.1899 24.4131C36.2304 24.4741 36.2642 24.5382 36.2895 24.6039C36.3283 24.7046 36.3485 24.8115 36.3485 24.9214V25.6648C36.3485 25.6908 36.3637 25.7183 36.3924 25.7442C36.4396 25.787 36.5189 25.8236 36.6184 25.8328C37.0013 25.8663 37.3708 25.9167 37.725 25.9869C38.0793 26.0556 38.4201 26.1442 38.7423 26.248C38.9126 26.3029 39.0645 26.3869 39.191 26.4907C39.2534 26.5426 39.3108 26.6006 39.3597 26.6617C39.3833 26.6922 39.4069 26.7243 39.4272 26.7579C39.4474 26.7914 39.466 26.825 39.4828 26.8586C39.5419 26.9853 39.5706 27.1197 39.5689 27.2525C39.5672 27.3853 39.5351 27.5181 39.471 27.6448L39.3934 27.8005C39.3698 27.8463 39.3428 27.889 39.3125 27.9318C39.3057 27.9425 39.2973 27.9516 39.2905 27.9623C39.2602 28.002 39.2264 28.0417 39.1893 28.0768C39.1876 28.0783 39.1842 28.0814 39.1826 28.0829C39.1471 28.1165 39.1083 28.1486 39.0695 28.1791C39.0594 28.1867 39.0493 28.1943 39.0392 28.202C38.997 28.2325 38.9514 28.26 38.9042 28.2859C38.8992 28.289 38.8941 28.2905 38.889 28.2936C38.8452 28.3165 38.7996 28.3363 38.7541 28.3546C38.7423 28.3592 38.7305 28.3638 38.7187 28.3684C38.668 28.3867 38.6157 28.4035 38.5618 28.4172C38.5533 28.4188 38.5466 28.4203 38.5381 28.4218C38.4892 28.4325 38.4403 28.4416 38.3914 28.4478C38.3779 28.4493 38.3661 28.4508 38.3526 28.4523C38.2969 28.4584 38.2396 28.4615 38.1822 28.463C38.1586 28.463 38.1367 28.463 38.113 28.4615C38.0945 28.4615 38.0759 28.4615 38.0591 28.46C38.0338 28.4584 38.0084 28.4554 37.9831 28.4523C37.9663 28.4508 37.9494 28.4493 37.9325 28.4462C37.9039 28.4416 37.8769 28.4355 37.8499 28.431C37.8364 28.4279 37.8212 28.4264 37.8077 28.4233C37.7655 28.4142 37.725 28.402 37.6829 28.3882C36.9507 28.1516 36.1494 28.031 35.3009 28.031C35.1575 28.031 35.0242 28.0371 34.8977 28.0463C33.5111 28.147 33.0033 28.7638 33.0033 29.3011C33.0033 29.3286 33.0033 29.3545 33.0067 29.3805C33.0353 29.7667 33.2867 30.0735 33.9126 30.3926C33.9834 30.4292 34.0576 30.4643 34.1369 30.501C34.2567 30.5559 34.3883 30.6109 34.53 30.6674C34.6734 30.7239 34.8269 30.7819 34.9939 30.8414C35.1052 30.8811 35.2216 30.9208 35.3448 30.962C35.5286 31.0246 35.726 31.0872 35.9369 31.1543C36.0735 31.1971 36.2102 31.2398 36.3468 31.2856C36.4835 31.3314 36.6184 31.3772 36.7551 31.4261C36.8225 31.4505 36.89 31.4749 36.9575 31.5009C37.1582 31.5772 37.3573 31.6566 37.5513 31.7421C37.6154 31.7711 37.6795 31.8001 37.7436 31.8291C37.8701 31.8886 37.995 31.9497 38.1164 32.0138C38.1771 32.0458 38.2379 32.0794 38.2969 32.113C38.415 32.1802 38.5314 32.2504 38.6427 32.3237C39.6498 32.9816 40.3567 33.8915 40.3567 35.2379C40.3567 35.6272 40.2824 36.0027 40.1424 36.3553L40.1441 36.3477Z" fill="#FD346E"/>
</svg>
