<svg width="100" height="100" viewBox="0 0 100 100" fill="none" xmlns="http://www.w3.org/2000/svg">
<g filter="url(#filter0_d_506_2597)">
<circle cx="50" cy="30" r="30" fill="#FFFCE6"/>
</g>
<g clip-path="url(#clip0_506_2597)">
<path d="M63.2441 21.0231L60.8571 23.4097C62.0288 25.3325 62.7041 27.5892 62.7041 30.0007C62.7041 37.0064 57.0038 42.7059 49.9972 42.7059C42.9906 42.7059 37.2904 37.0064 37.2904 30.0007C37.2904 22.995 42.9907 17.2954 49.9973 17.2954C52.6084 17.2954 55.038 18.087 57.0589 19.4427L59.428 17.0739C54.7747 13.6736 48.7928 13.1341 43.7682 15.2591C42.8197 15.6602 41.9049 16.1566 41.0494 16.7346C31.6247 23.1011 31.6758 36.9349 41.0494 43.2668C42.7267 44.3999 44.6617 45.2431 46.7741 45.6753C47.8283 45.891 48.9127 46.0003 49.9973 46.0003C51.0819 46.0003 52.1663 45.891 53.2205 45.6753C54.2486 45.4649 55.26 45.151 56.2264 44.7423C57.1748 44.3412 58.0896 43.8448 58.9451 43.2668C59.792 42.6947 60.5885 42.0378 61.3122 41.3141C62.0359 40.5905 62.6929 39.7942 63.2651 38.9474C66.916 33.5441 66.9142 26.4264 63.2441 21.0232V21.0231Z" fill="#FFD700"/>
<path d="M49.9865 28.067L44.5592 22.6404L42.2295 24.9698L49.9866 32.7259C50.1295 32.583 65.0859 17.6285 65.2222 17.4923L62.8924 15.1628C62.8616 15.1937 50.4315 27.6222 49.9866 28.067H49.9865Z" fill="#FFD700"/>
<path d="M50.6491 21.3851V19.0881C50.6491 18.728 50.3571 18.436 49.9969 18.436C49.6367 18.436 49.3447 18.728 49.3447 19.0881V21.3851C49.3447 21.7452 49.6367 22.0372 49.9969 22.0372C50.3571 22.0372 50.6491 21.7456 50.6491 21.3851Z" fill="#FFD700"/>
<path d="M49.9969 37.9639C49.6367 37.9639 49.3447 38.2558 49.3447 38.616V40.9129C49.3447 41.2727 49.6363 41.565 49.9969 41.565C50.3575 41.565 50.6491 41.2731 50.6491 40.9129V38.616C50.6491 38.2558 50.3571 37.9639 49.9969 37.9639Z" fill="#FFD700"/>
<path d="M39.0838 29.3484C38.7236 29.3484 38.4316 29.6403 38.4316 30.0005C38.4316 30.3606 38.7236 30.6526 39.0838 30.6526H41.3811C41.7413 30.6526 42.0332 30.3606 42.0332 30.0005C42.0332 29.6403 41.7413 29.3484 41.3811 29.3484H39.0838Z" fill="#FFD700"/>
<path d="M57.9619 30.0005C57.9619 30.3606 58.2539 30.6526 58.6141 30.6526H60.9113C61.2715 30.6526 61.5635 30.3606 61.5635 30.0005C61.5635 29.6403 61.2715 29.3484 60.9113 29.3484H58.6141C58.2539 29.3484 57.9619 29.6403 57.9619 30.0005Z" fill="#FFD700"/>
</g>
<defs>
<filter id="filter0_d_506_2597" x="0" y="0" width="100" height="100" filterUnits="userSpaceOnUse" color-interpolation-filters="sRGB">
<feFlood flood-opacity="0" result="BackgroundImageFix"/>
<feColorMatrix in="SourceAlpha" type="matrix" values="0 0 0 0 0 0 0 0 0 0 0 0 0 0 0 0 0 0 127 0" result="hardAlpha"/>
<feOffset dy="20"/>
<feGaussianBlur stdDeviation="10"/>
<feColorMatrix type="matrix" values="0 0 0 0 0.988235 0 0 0 0 0.862745 0 0 0 0 0 0 0 0 0.2 0"/>
<feBlend mode="normal" in2="BackgroundImageFix" result="effect1_dropShadow_506_2597"/>
<feBlend mode="normal" in="SourceGraphic" in2="effect1_dropShadow_506_2597" result="shape"/>
</filter>
<clipPath id="clip0_506_2597">
<rect width="32" height="32" fill="white" transform="translate(34 14)"/>
</clipPath>
</defs>
</svg>
