<svg width="120" height="96" viewBox="0 0 120 96" fill="none" xmlns="http://www.w3.org/2000/svg">
<path d="M5.952 42H11.904V78H5.952C5.17011 78.0009 4.39572 77.8464 3.67317 77.5452C2.95062 77.244 2.29411 76.8021 1.74123 76.2447C1.18835 75.6874 0.749965 75.0256 0.451179 74.2972C0.152392 73.5688 -0.000925944 72.7882 4.207e-06 72V48C-0.000925944 47.2118 0.152392 46.4312 0.451179 45.7028C0.749965 44.9744 1.18835 44.3126 1.74123 43.7553C2.29411 43.1979 2.95062 42.756 3.67317 42.4548C4.39572 42.1536 5.17011 41.9991 5.952 42ZM101.184 33V84C101.181 87.1816 99.9257 90.2321 97.694 92.4818C95.4622 94.7316 92.4362 95.9969 89.28 96H29.76C26.6038 95.9969 23.5778 94.7316 21.346 92.4818C19.1143 90.2321 17.8591 87.1816 17.856 84V33C17.8554 31.03 18.2398 29.0792 18.9874 27.259C19.7349 25.4388 20.831 23.785 22.2128 22.392C23.5947 20.999 25.2353 19.8941 27.0409 19.1405C28.8465 18.3869 30.7818 17.9994 32.736 18H53.568V6C53.568 4.4087 54.1951 2.88258 55.3113 1.75736C56.4275 0.632141 57.9414 0 59.52 0C61.0986 0 62.6125 0.632141 63.7287 1.75736C64.8449 2.88258 65.472 4.4087 65.472 6V18H86.304C88.2582 17.9994 90.1935 18.3869 91.9991 19.1405C93.8047 19.8941 95.4453 20.999 96.8272 22.392C98.209 23.785 99.305 25.4388 100.053 27.259C100.8 29.0792 101.185 31.03 101.184 33ZM49.104 48C49.104 46.5166 48.6677 45.0666 47.8501 43.8332C47.0326 42.5999 45.8706 41.6386 44.5112 41.0709C43.1517 40.5032 41.6557 40.3547 40.2125 40.6441C38.7693 40.9335 37.4436 41.6478 36.4031 42.6967C35.3626 43.7456 34.654 45.082 34.367 46.5368C34.0799 47.9917 34.2272 49.4997 34.7903 50.8701C35.3535 52.2406 36.3071 53.4119 37.5306 54.236C38.7541 55.0601 40.1925 55.5 41.664 55.5C42.6411 55.5001 43.6086 55.3061 44.5112 54.9292C45.4139 54.5524 46.2342 53.9999 46.925 53.3035C47.6159 52.607 48.1639 51.7802 48.5378 50.8702C48.9117 49.9602 49.1041 48.9849 49.104 48ZM47.616 72H35.712V78H47.616V72ZM65.472 72H53.568V78H65.472V72ZM84.816 48C84.816 46.5166 84.3797 45.0666 83.5621 43.8332C82.7446 42.5999 81.5826 41.6386 80.2232 41.0709C78.8637 40.5032 77.3677 40.3547 75.9245 40.6441C74.4813 40.9335 73.1556 41.6478 72.1151 42.6967C71.0746 43.7456 70.366 45.082 70.079 46.5368C69.7919 47.9917 69.9392 49.4997 70.5023 50.8701C71.0655 52.2406 72.0191 53.4119 73.2426 54.236C74.4661 55.0601 75.9045 55.5 77.376 55.5C78.3531 55.5001 79.3206 55.3061 80.2233 54.9292C81.1259 54.5524 81.9462 53.9999 82.637 53.3035C83.3279 52.607 83.8759 51.7802 84.2498 50.8702C84.6237 49.9602 84.8161 48.9849 84.816 48ZM83.328 72H71.424V78H83.328V72ZM119.04 48V72C119.041 72.7882 118.888 73.5688 118.589 74.2972C118.29 75.0256 117.852 75.6874 117.299 76.2447C116.746 76.8021 116.089 77.244 115.367 77.5452C114.644 77.8464 113.87 78.0009 113.088 78H107.136V42H113.088C113.87 41.9991 114.644 42.1536 115.367 42.4548C116.089 42.756 116.746 43.1979 117.299 43.7553C117.852 44.3126 118.29 44.9744 118.589 45.7028C118.888 46.4312 119.041 47.2118 119.04 48Z" fill="#fff"/>
</svg>
