<svg width="33" height="32" viewBox="0 0 33 32" fill="none" xmlns="http://www.w3.org/2000/svg">
<path d="M14.3816 2.49965L14.3834 2.4978L16.0185 0.871058C16.5169 0.37527 17.3197 0.377989 17.8082 0.869173L17.8102 0.871149L32.1281 15.1088C32.625 15.6031 32.6223 16.3975 32.13 16.882L32.1281 16.8839L17.8101 31.1289C17.3117 31.6247 16.5089 31.622 16.0204 31.1308L16.0185 31.1289L14.3834 29.5022C13.8844 29.0057 13.8934 28.1942 14.4047 27.7057C14.4049 27.7055 14.4051 27.7053 14.4054 27.7051L23.2793 19.294L24.1897 18.4311H22.9354H1.76766C1.06181 18.4311 0.5 17.8685 0.5 17.1724V14.8276C0.5 14.1315 1.06181 13.5689 1.76766 13.5689H22.9354H24.1897L23.2793 12.706L14.4042 4.29385L14.4035 4.29318C13.8866 3.80511 13.8775 2.99591 14.3816 2.49965Z" fill="#A6A6A6" stroke="white"/>
</svg>
