<svg width="116" height="96" viewBox="0 0 116 96" fill="none" xmlns="http://www.w3.org/2000/svg">
<path d="M0 16C0 11.7565 1.51714 7.68687 4.21766 4.68629C6.91819 1.68571 10.5809 0 14.4 0H100.8C104.619 0 108.282 1.68571 110.982 4.68629C113.683 7.68687 115.2 11.7565 115.2 16V56H0V16ZM82.8 24C81.8452 24 80.9295 24.4214 80.2544 25.1716C79.5793 25.9217 79.2 26.9391 79.2 28V36C79.2 37.0609 79.5793 38.0783 80.2544 38.8284C80.9295 39.5786 81.8452 40 82.8 40H97.2C98.1548 40 99.0704 39.5786 99.7456 38.8284C100.421 38.0783 100.8 37.0609 100.8 36V28C100.8 26.9391 100.421 25.9217 99.7456 25.1716C99.0704 24.4214 98.1548 24 97.2 24H82.8ZM0 72V80C0 84.2435 1.51714 88.3131 4.21766 91.3137C6.91819 94.3143 10.5809 96 14.4 96H100.8C104.619 96 108.282 94.3143 110.982 91.3137C113.683 88.3131 115.2 84.2435 115.2 80V72H0Z" fill="#fff"/>
</svg>
