<svg width="91" height="85" viewBox="0 0 91 85" fill="none" xmlns="http://www.w3.org/2000/svg">
<g opacity="0.1" filter="url(#filter0_d_496_1181)">
<rect x="16" y="2" width="70.2" height="65" rx="32.5" fill="#FD346E"/>
</g>
<path d="M33.9 32.565H35.8V43.335H33.9C33.6504 43.3353 33.4032 43.289 33.1726 43.1989C32.9419 43.1088 32.7323 42.9766 32.5558 42.8099C32.3793 42.6431 32.2394 42.4451 32.144 42.2272C32.0486 42.0093 31.9997 41.7758 32 41.54V34.36C31.9997 34.1242 32.0486 33.8906 32.144 33.6727C32.2394 33.4548 32.3793 33.2568 32.5558 33.0901C32.7323 32.9234 32.9419 32.7912 33.1726 32.7011C33.4032 32.6109 33.6504 32.5647 33.9 32.565ZM64.3 29.8725V45.13C64.299 46.0818 63.8983 46.9944 63.1859 47.6674C62.4735 48.3405 61.5075 48.719 60.5 48.72H41.5C40.4925 48.719 39.5265 48.3405 38.8141 47.6674C38.1017 46.9944 37.701 46.0818 37.7 45.13V29.8725C37.6998 29.2831 37.8225 28.6995 38.0612 28.155C38.2998 27.6104 38.6497 27.1157 39.0908 26.6989C39.5319 26.2822 40.0556 25.9516 40.632 25.7262C41.2084 25.5007 41.8262 25.3848 42.45 25.385H49.1V21.795C49.1 21.3189 49.3002 20.8624 49.6565 20.5257C50.0128 20.1891 50.4961 20 51 20C51.5039 20 51.9872 20.1891 52.3435 20.5257C52.6998 20.8624 52.9 21.3189 52.9 21.795V25.385H59.55C60.1738 25.3848 60.7916 25.5007 61.368 25.7262C61.9444 25.9516 62.4681 26.2822 62.9092 26.6989C63.3503 27.1157 63.7002 27.6104 63.9388 28.155C64.1775 28.6995 64.3002 29.2831 64.3 29.8725ZM47.675 34.36C47.675 33.9162 47.5357 33.4824 47.2747 33.1134C47.0138 32.7444 46.6428 32.4569 46.2089 32.287C45.7749 32.1172 45.2974 32.0728 44.8367 32.1593C44.376 32.2459 43.9528 32.4596 43.6206 32.7734C43.2885 33.0872 43.0623 33.487 42.9706 33.9222C42.879 34.3575 42.926 34.8086 43.1058 35.2186C43.2855 35.6286 43.59 35.979 43.9805 36.2256C44.3711 36.4721 44.8303 36.6037 45.3 36.6037C45.6119 36.6038 45.9207 36.5457 46.2089 36.433C46.4971 36.3202 46.7589 36.155 46.9794 35.9466C47.2 35.7382 47.3749 35.4909 47.4943 35.2187C47.6136 34.9464 47.675 34.6546 47.675 34.36ZM47.2 41.54H43.4V43.335H47.2V41.54ZM52.9 41.54H49.1V43.335H52.9V41.54ZM59.075 34.36C59.075 33.9162 58.9357 33.4824 58.6747 33.1134C58.4138 32.7444 58.0428 32.4569 57.6089 32.287C57.1749 32.1172 56.6974 32.0728 56.2367 32.1593C55.776 32.2459 55.3528 32.4596 55.0206 32.7734C54.6885 33.0872 54.4623 33.487 54.3706 33.9222C54.279 34.3575 54.326 34.8086 54.5058 35.2186C54.6855 35.6286 54.99 35.979 55.3805 36.2256C55.7711 36.4721 56.2303 36.6037 56.7 36.6037C57.0119 36.6038 57.3207 36.5457 57.6089 36.433C57.8971 36.3202 58.1589 36.155 58.3794 35.9466C58.6 35.7382 58.7749 35.4909 58.8943 35.2187C59.0136 34.9464 59.075 34.6546 59.075 34.36ZM58.6 41.54H54.8V43.335H58.6V41.54ZM70 34.36V41.54C70.0003 41.7758 69.9514 42.0093 69.856 42.2272C69.7606 42.4451 69.6207 42.6431 69.4442 42.8099C69.2677 42.9766 69.0581 43.1088 68.8274 43.1989C68.5968 43.289 68.3496 43.3353 68.1 43.335H66.2V32.565H68.1C68.3496 32.5647 68.5968 32.6109 68.8274 32.7011C69.0581 32.7912 69.2677 32.9234 69.4442 33.0901C69.6207 33.2568 69.7606 33.4548 69.856 33.6727C69.9514 33.8906 70.0003 34.1242 70 34.36Z" fill="#FD346E"/>
<defs>
<filter id="filter0_d_496_1181" x="0" y="0" width="90.2" height="85" filterUnits="userSpaceOnUse" color-interpolation-filters="sRGB">
<feFlood flood-opacity="0" result="BackgroundImageFix"/>
<feColorMatrix in="SourceAlpha" type="matrix" values="0 0 0 0 0 0 0 0 0 0 0 0 0 0 0 0 0 0 127 0" result="hardAlpha"/>
<feOffset dx="-6" dy="8"/>
<feGaussianBlur stdDeviation="5"/>
<feComposite in2="hardAlpha" operator="out"/>
<feColorMatrix type="matrix" values="0 0 0 0 0.992157 0 0 0 0 0.203922 0 0 0 0 0.431373 0 0 0 1 0"/>
<feBlend mode="normal" in2="BackgroundImageFix" result="effect1_dropShadow_496_1181"/>
<feBlend mode="normal" in="SourceGraphic" in2="effect1_dropShadow_496_1181" result="shape"/>
</filter>
</defs>
</svg>
