<svg width="85" height="96" viewBox="0 0 85 96" fill="none" xmlns="http://www.w3.org/2000/svg">
<path d="M84.2299 89.043V74.002C84.2299 69.7905 83.6282 65.579 81.2217 61.3675C78.8151 57.156 75.8069 53.5461 71.5954 51.1396C67.3839 48.1314 58.3593 47.5297 54.1478 47.5297L44.5215 57.7576L48.1314 65.579V83.6282L42.1149 90.2463L36.0985 83.6282V65.579L40.31 57.7576L30.0821 47.5297C25.269 47.5297 16.2443 48.1314 12.0328 51.1396C7.82135 53.5461 5.41478 57.156 3.00821 61.3675C0.601642 65.579 0 69.1888 0 74.002V89.043C0 89.043 15.6427 95.6611 42.1149 95.6611C68.5872 95.6611 84.2299 89.043 84.2299 89.043ZM42.1149 0C30.6837 0 24.0657 10.8296 25.8706 22.8624C27.6755 34.8952 33.6919 43.3182 42.1149 43.3182C50.5379 43.3182 56.5543 34.8952 58.3593 22.8624C60.1642 10.2279 53.5461 0 42.1149 0Z" fill="#fff"/>
</svg>
