<svg width="104" height="96" viewBox="0 0 104 96" fill="none" xmlns="http://www.w3.org/2000/svg">
<path d="M100.039 53.9999H55.0623L85.0156 83.6308C86.1605 84.7633 88.0445 84.8552 89.2216 83.7583C96.5568 76.922 101.602 67.7063 103.083 57.3468C103.337 55.573 101.849 53.9999 100.039 53.9999ZM97.0383 41.8497C95.4764 19.4507 77.3828 1.5518 54.7401 0.00678009C53.0115 -0.111346 51.5558 1.33054 51.5558 3.04431V44.9998H93.9696C95.702 44.9998 97.1577 43.5598 97.0383 41.8497ZM42.4578 53.9999V9.50751C42.4578 7.71686 40.8675 6.24497 39.0764 6.49623C16.4887 9.65376 -0.776707 29.1746 0.0269501 52.5692C0.853353 76.5957 21.7655 96.2985 46.0648 95.9966C55.6177 95.8784 64.4447 92.8334 71.7022 87.7409C73.1996 86.6908 73.2981 84.5102 71.9998 83.2258L42.4578 53.9999Z" fill="#fff"/>
</svg>
