<svg width="110" height="109" viewBox="0 0 110 109" fill="none" xmlns="http://www.w3.org/2000/svg">
<g filter="url(#filter0_d_1476_465)">
<ellipse cx="55.2748" cy="54.5" rx="44.389" ry="44.5" fill="#6001D3" fill-opacity="0.1"/>
</g>
<path d="M46.4265 50.6286C45.648 49.5585 44.1719 49.3384 43.1365 50.1429C42.101 50.9473 41.888 52.4728 42.6665 53.5429L45.4644 57.3982C45.8169 57.8839 45.7655 58.5594 45.3543 58.9844L44.4143 59.9558C43.9223 60.4643 43.1218 60.4263 42.6812 59.8723L36.0865 51.6911V40.4286C36.0865 39.0853 35.0363 38 33.7365 38C32.4366 38 31.3865 39.0853 31.3865 40.4286V57.0036C31.3865 57.8308 31.6582 58.6353 32.1576 59.2804L39.8024 69.4728C40.1696 69.9661 40.4193 70.5277 40.5662 71.1196C40.6983 71.6433 41.161 72 41.6898 72H51.3615C52.0077 72 52.5365 71.4536 52.5365 70.7857V62.2857C52.5365 60.1835 51.8755 58.142 50.6565 56.4571L46.4265 50.6286ZM76.0365 38C74.7366 38 73.6865 39.0853 73.6865 40.4286V51.6911L67.0918 59.8723C66.6512 60.4188 65.8433 60.4567 65.3587 59.9558L64.4187 58.9844C64.0074 58.5594 63.956 57.8839 64.3085 57.3982L67.1065 53.5429C67.8849 52.4728 67.6719 50.9473 66.6365 50.1429C65.601 49.3384 64.1249 49.5585 63.3465 50.6286L59.1165 56.4571C57.8974 58.142 57.2365 60.1835 57.2365 62.2857V70.7857C57.2365 71.4536 57.7652 72 58.4115 72H68.0832C68.6046 72 69.0746 71.6433 69.2068 71.1196C69.3537 70.5277 69.6034 69.9661 69.9705 69.4728L77.6154 59.2804C78.1148 58.6353 78.3865 57.8308 78.3865 57.0036V40.4286C78.3865 39.0853 77.3363 38 76.0365 38Z" fill="#690ED5"/>
<defs>
<filter id="filter0_d_1476_465" x="0.885742" y="0" width="108.778" height="109" filterUnits="userSpaceOnUse" color-interpolation-filters="sRGB">
<feFlood flood-opacity="0" result="BackgroundImageFix"/>
<feColorMatrix in="SourceAlpha" type="matrix" values="0 0 0 0 0 0 0 0 0 0 0 0 0 0 0 0 0 0 127 0" result="hardAlpha"/>
<feOffset/>
<feGaussianBlur stdDeviation="5"/>
<feColorMatrix type="matrix" values="0 0 0 0 0.376471 0 0 0 0 0.00392157 0 0 0 0 0.827451 0 0 0 0.25 0"/>
<feBlend mode="normal" in2="BackgroundImageFix" result="effect1_dropShadow_1476_465"/>
<feBlend mode="normal" in="SourceGraphic" in2="effect1_dropShadow_1476_465" result="shape"/>
</filter>
</defs>
</svg>
