<svg width="110" height="109" viewBox="0 0 110 109" fill="none" xmlns="http://www.w3.org/2000/svg">
<g filter="url(#filter0_d_1476_480)">
<ellipse cx="54.9554" cy="54.5" rx="44.389" ry="44.5" fill="#fff" fill-opacity="0.1"/>
</g>
<path d="M53.2451 46.6826L48.6544 39.032C48.4657 38.7172 48.1986 38.4568 47.8793 38.2759C47.56 38.0951 47.1992 38 46.8322 38H39.4512C38.5912 38 38.0878 38.9675 38.5806 39.6721L45.9696 50.228C47.9432 48.3839 50.4534 47.1182 53.2451 46.6826ZM71.3223 38H63.9412C63.1948 38 62.5028 38.3918 62.119 39.032L57.5283 46.6826C60.3201 47.1182 62.8302 48.3839 64.8038 50.2274L72.1929 39.6721C72.6856 38.9675 72.1822 38 71.3223 38ZM55.3867 48.625C48.932 48.625 43.6992 53.8578 43.6992 60.3125C43.6992 66.7672 48.932 72 55.3867 72C61.8414 72 67.0743 66.7672 67.0743 60.3125C67.0743 53.8578 61.8414 48.625 55.3867 48.625ZM61.5306 59.068L59.0118 61.5224L59.6075 64.9902C59.7138 65.6117 59.059 66.0865 58.5018 65.793L55.3867 64.1561L52.2723 65.793C51.7144 66.0885 51.0603 65.6111 51.1666 64.9902L51.7623 61.5224L49.2435 59.068C48.7906 58.6271 49.0409 57.8575 49.6651 57.7671L53.1468 57.2598L54.7027 54.1042C54.8429 53.82 55.1138 53.6798 55.3854 53.6798C55.6583 53.6798 55.9313 53.822 56.0714 54.1042L57.6273 57.2598L61.109 57.7671C61.7332 57.8575 61.9835 58.6271 61.5306 59.068Z" fill="#fff"/>
<defs>
<filter id="filter0_d_1476_480" x="0.566406" y="0" width="108.778" height="109" filterUnits="userSpaceOnUse" color-interpolation-filters="sRGB">
<feFlood flood-opacity="0" result="BackgroundImageFix"/>
<feColorMatrix in="SourceAlpha" type="matrix" values="0 0 0 0 0 0 0 0 0 0 0 0 0 0 0 0 0 0 127 0" result="hardAlpha"/>
<feOffset/>
<feGaussianBlur stdDeviation="5"/>
<feColorMatrix type="matrix" values="0 0 0 0 0.113725 0 0 0 0 0.886275 0 0 0 0 0.811765 0 0 0 0.25 0"/>
<feBlend mode="normal" in2="BackgroundImageFix" result="effect1_dropShadow_1476_480"/>
<feBlend mode="normal" in="SourceGraphic" in2="effect1_dropShadow_1476_480" result="shape"/>
</filter>
</defs>
</svg>
