<svg width="85" height="96" viewBox="0 0 57 34" fill="none" xmlns="http://www.w3.org/2000/svg">
<path d="M54.9932 8.50887L30.7525 1.13768C29.4315 0.736007 28.0063 0.736007 26.6863 1.13768L2.44467 8.50887C0.398976 9.13073 0.398976 11.8083 2.44467 12.4301L6.67077 13.7151C5.74351 14.8496 5.17343 16.2336 5.11694 17.7491C4.28006 18.2239 3.69086 19.0805 3.69086 20.1032C3.69086 21.0304 4.18447 21.8105 4.89534 22.3094L2.6767 32.1904C2.48378 33.0497 3.14424 33.8651 4.03326 33.8651H8.90939C9.79928 33.8651 10.4597 33.0497 10.2668 32.1904L8.04818 22.3094C8.75905 21.8105 9.25266 21.0304 9.25266 20.1032C9.25266 19.1081 8.69039 18.2755 7.89175 17.7921C7.9578 16.5002 8.62522 15.358 9.68978 14.6337L26.6854 19.8022C27.4727 20.0413 28.9831 20.3398 30.7516 19.8022L54.9932 12.431C57.0398 11.8083 57.0398 9.13159 54.9932 8.50887ZM31.5685 22.4333C29.0891 23.1867 26.9765 22.7704 25.8685 22.4333L13.2658 18.6015L12.0336 28.3603C12.0336 31.4008 19.5037 33.8651 28.7189 33.8651C37.9341 33.8651 45.4043 31.4008 45.4043 28.3603L44.172 18.6006L31.5685 22.4333Z" fill="#6001D3"/>
</svg>
