<svg width="85" height="96"  viewBox="0 0 65 51" fill="none" xmlns="http://www.w3.org/2000/svg">
<path d="M0.324829 25.6283V38.2893C0.324829 40.0401 1.76638 41.4546 3.55067 41.4546H6.77651V22.4631H3.55067C1.76638 22.4631 0.324829 23.8776 0.324829 25.6283ZM47.0995 9.80213H35.8091V3.47164C35.8091 1.72086 34.3675 0.306396 32.5832 0.306396C30.7989 0.306396 29.3574 1.72086 29.3574 3.47164V9.80213H18.0669C13.6113 9.80213 10.0023 13.3432 10.0023 17.7152V44.6198C10.0023 48.1115 12.8955 50.9503 16.454 50.9503H48.7124C52.2709 50.9503 55.1641 48.1115 55.1641 44.6198V17.7152C55.1641 13.3432 51.5552 9.80213 47.0995 9.80213ZM26.1315 41.4546H19.6799V38.2893H26.1315V41.4546ZM22.9057 29.5849C20.6779 29.5849 18.8734 27.8143 18.8734 25.6283C18.8734 23.4424 20.6779 21.6718 22.9057 21.6718C25.1336 21.6718 26.938 23.4424 26.938 25.6283C26.938 27.8143 25.1336 29.5849 22.9057 29.5849ZM35.8091 41.4546H29.3574V38.2893H35.8091V41.4546ZM45.4866 41.4546H39.0349V38.2893H45.4866V41.4546ZM42.2607 29.5849C40.0329 29.5849 38.2285 27.8143 38.2285 25.6283C38.2285 23.4424 40.0329 21.6718 42.2607 21.6718C44.4886 21.6718 46.293 23.4424 46.293 25.6283C46.293 27.8143 44.4886 29.5849 42.2607 29.5849ZM61.6158 22.4631H58.3899V41.4546H61.6158C63.4001 41.4546 64.8416 40.0401 64.8416 38.2893V25.6283C64.8416 23.8776 63.4001 22.4631 61.6158 22.4631Z" fill="white"/>
</svg>
