<svg width="85" height="96"  viewBox="0 0 50 45" fill="none" xmlns="http://www.w3.org/2000/svg">
<path d="M49.8426 41.2695L33.8048 26.6392C35.9898 23.8961 37.2899 20.5237 37.2899 16.8858C37.2899 7.73206 29.129 0.279307 19.0999 0.279307C9.05985 0.269474 0.898926 7.72223 0.898926 16.8759C0.898926 26.0297 9.05985 33.4824 19.0889 33.4824C23.4371 33.4824 27.4247 32.0862 30.5601 29.756L46.5105 44.3174L49.8426 41.2695ZM19.0889 29.6479C11.3759 29.6479 5.0941 23.9158 5.0941 16.8759C5.0941 9.83614 11.3759 4.10401 19.0889 4.10401C26.8019 4.10401 33.0838 9.83614 33.0838 16.8759C33.0838 23.9158 26.8129 29.6479 19.0889 29.6479V29.6479Z" fill="#FCDC00"/>
</svg>
