<svg width="85" height="96" viewBox="0 0 49 56" fill="none" xmlns="http://www.w3.org/2000/svg">
<path d="M41.9888 34.0357L44.5851 27.3053C45.0196 26.1764 44.1831 24.9722 42.9556 24.9722H36.6008C37.7958 22.9402 38.5344 20.6071 38.5344 18.0912V18.059C42.7927 17.2204 45.4867 16.0054 45.4867 14.6507C45.4867 13.2208 42.5211 11.9521 37.8718 11.1027C36.8724 7.57625 34.9388 4.02825 33.4615 2.2005C32.4295 0.921068 30.648 0.523262 29.1706 1.25436L26.1725 2.73807C25.1948 3.22189 24.0434 3.22189 23.0657 2.73807L20.0676 1.25436C18.5902 0.523262 16.8087 0.921068 15.7767 2.2005C14.3102 4.02825 12.3658 7.57625 11.3664 11.1027C6.72794 11.9521 3.76238 13.2208 3.76238 14.6507C3.76238 16.0054 6.45637 17.2204 10.7146 18.059V18.0912C10.7146 20.6071 11.4533 22.9402 12.6482 24.9722H6.40205C5.15282 24.9722 4.31638 26.2301 4.80521 27.3698L7.60783 33.8422C3.25182 36.3473 0.286255 40.9597 0.286255 46.3032V51.1199C0.286255 53.7755 2.46969 55.9365 5.15282 55.9365H44.0854C46.7685 55.9365 48.9519 53.7755 48.9519 51.1199V46.3032C48.9519 41.0995 46.1493 36.5838 41.9888 34.0357V34.0357ZM19.4049 52.4961L14.886 31.8532L20.2739 35.2936L22.881 39.5942L19.4049 52.4961ZM29.8333 52.4961L26.3572 39.5942L28.9642 35.2936L34.3522 31.8532L29.8333 52.4961ZM34.3631 20.4028C33.9394 21.6822 33.6027 23.0477 32.5707 23.9938C31.4736 24.9937 27.3565 26.4021 25.6185 21.3059C25.3143 20.4028 23.9456 20.4028 23.6306 21.3059C21.7839 26.7032 17.5474 24.7894 16.6783 23.9938C15.6464 23.0477 15.2987 21.6822 14.886 20.4028C14.7991 20.134 14.2016 19.79 14.2016 19.7792V18.6181C17.2758 19.0051 20.828 19.2416 24.63 19.2416C28.432 19.2416 31.9841 19.0159 35.0583 18.6181V19.7792C35.0475 19.79 34.45 20.1233 34.3631 20.4028Z" fill="white"/>
</svg>
