<svg width="65" height="52" viewBox="0 0 65 52" fill="none" xmlns="http://www.w3.org/2000/svg">
<path d="M22.75 26C29.9305 26 35.75 20.1805 35.75 13C35.75 5.81953 29.9305 0 22.75 0C15.5695 0 9.74999 5.81953 9.74999 13C9.74999 20.1805 15.5695 26 22.75 26ZM31.85 29.25H30.1539C27.8992 30.2859 25.3906 30.875 22.75 30.875C20.1094 30.875 17.6109 30.2859 15.3461 29.25H13.65C6.11406 29.25 0 35.3641 0 42.9V47.125C0 49.8164 2.18359 52 4.875 52H40.625C43.3164 52 45.5 49.8164 45.5 47.125V42.9C45.5 35.3641 39.3859 29.25 31.85 29.25ZM64.6546 16.2094L61.8312 13.3555C61.364 12.8781 60.6023 12.8781 60.125 13.3453L49.4812 23.9078L44.8601 19.2563C44.3929 18.7789 43.6312 18.7789 43.1539 19.2461L40.3 22.0797C39.8226 22.5469 39.8226 23.3086 40.2898 23.7859L48.5875 32.1445C49.0547 32.6219 49.8164 32.6219 50.2937 32.1547L64.6445 17.9156C65.1117 17.4383 65.1218 16.6766 64.6546 16.2094V16.2094Z" fill="white"/>
</svg>
