<svg width="85" height="96" viewBox="0 0 57 45" fill="none" xmlns="http://www.w3.org/2000/svg">
<path d="M36.7595 29.6381H40.9309C41.6261 29.6381 42.3213 28.9041 42.3213 28.1701V12.7568C42.3213 12.0228 41.6261 11.2888 40.9309 11.2888H36.7595C36.0643 11.2888 35.3691 12.0228 35.3691 12.7568V28.1701C35.3691 28.9041 36.0643 29.6381 36.7595 29.6381ZM47.1879 29.6381H51.3592C52.0545 29.6381 52.7497 28.9041 52.7497 28.1701V1.74724C52.7497 1.01327 52.0545 0.279297 51.3592 0.279297H47.1879C46.4927 0.279297 45.7974 1.01327 45.7974 1.74724V28.1701C45.7974 28.9041 46.4927 29.6381 47.1879 29.6381ZM15.9028 29.6381H20.0742C20.7694 29.6381 21.4646 28.9041 21.4646 28.1701V20.0965C21.4646 19.3625 20.7694 18.6285 20.0742 18.6285H15.9028C15.2076 18.6285 14.5124 19.3625 14.5124 20.0965V28.1701C14.5124 28.9041 15.2076 29.6381 15.9028 29.6381ZM26.3312 29.6381H30.5025C31.1978 29.6381 31.893 28.9041 31.893 28.1701V5.41708C31.893 4.68311 31.1978 3.94914 30.5025 3.94914H26.3312C25.636 3.94914 24.9407 4.68311 24.9407 5.41708V28.1701C24.9407 28.9041 25.636 29.6381 26.3312 29.6381ZM54.4877 36.9778H7.56015V2.11422C7.56015 1.10042 6.78237 0.279297 5.82209 0.279297H2.34597C1.38569 0.279297 0.60791 1.10042 0.60791 2.11422V40.6476C0.60791 42.674 2.16456 44.3174 4.08403 44.3174H54.4877C55.448 44.3174 56.2258 43.4963 56.2258 42.4825V38.8127C56.2258 37.7989 55.448 36.9778 54.4877 36.9778Z" fill="white"/>
</svg>
