<svg width="85" height="96" viewBox="0 0 57 41" fill="none" xmlns="http://www.w3.org/2000/svg">
<path d="M0.611816 36.2358C0.611816 38.5803 2.68783 40.4824 5.24664 40.4824H51.5949C54.1537 40.4824 56.2297 38.5803 56.2297 36.2358V20.6652H0.611816V36.2358ZM19.1511 30.2199C19.1511 29.636 19.6725 29.1583 20.3098 29.1583H33.4418C34.0791 29.1583 34.6005 29.636 34.6005 30.2199V33.7587C34.6005 34.3426 34.0791 34.8203 33.4418 34.8203H20.3098C19.6725 34.8203 19.1511 34.3426 19.1511 33.7587V30.2199ZM6.79159 30.2199C6.79159 29.636 7.313 29.1583 7.95029 29.1583H14.9025C15.5398 29.1583 16.0612 29.636 16.0612 30.2199V33.7587C16.0612 34.3426 15.5398 34.8203 14.9025 34.8203H7.95029C7.313 34.8203 6.79159 34.3426 6.79159 33.7587V30.2199ZM56.2297 5.09456V9.3411H0.611816V5.09456C0.611816 2.75012 2.68783 0.848022 5.24664 0.848022H51.5949C54.1537 0.848022 56.2297 2.75012 56.2297 5.09456Z" fill="#1DE2CF"/>
</svg>
