<svg width="85" height="85" viewBox="0 0 85 85" fill="none" xmlns="http://www.w3.org/2000/svg">
<g filter="url(#filter0_d_506_6796)">
<rect opacity="0.1" x="16" y="2" width="65" height="65" rx="32.5" fill="#1DE2CF"/>
<path d="M63.5648 28.9263L61.0899 26.4514C60.5024 25.8639 59.5524 25.8639 58.9712 26.4514L44.0028 41.4197L37.0405 34.4512C36.453 33.8637 35.503 33.8637 34.9218 34.4512L32.4406 36.9323C31.8531 37.5198 31.8531 38.4698 32.4406 39.0573L42.9404 49.5633C43.5278 50.1508 44.4778 50.1508 45.0591 49.5633L63.5586 31.0512C64.1461 30.4575 64.1461 29.5075 63.5648 28.9263ZM43.2966 35.5511C43.6841 35.9449 44.3216 35.9449 44.7091 35.5511L57.7087 22.539C58.0962 22.1452 58.0962 21.514 57.7087 21.1265L54.8838 18.2953C54.4963 17.9016 53.8588 17.9016 53.4713 18.2953L44.0028 27.7638L40.5404 24.2952C40.1529 23.9014 39.5154 23.9014 39.128 24.2952L36.2968 27.1263C35.9093 27.5201 35.9093 28.1513 36.2968 28.5388L43.2966 35.5511Z" fill="#1DE2CF"/>
</g>
<defs>
<filter id="filter0_d_506_6796" x="0" y="0" width="85" height="85" filterUnits="userSpaceOnUse" color-interpolation-filters="sRGB">
<feFlood flood-opacity="0" result="BackgroundImageFix"/>
<feColorMatrix in="SourceAlpha" type="matrix" values="0 0 0 0 0 0 0 0 0 0 0 0 0 0 0 0 0 0 127 0" result="hardAlpha"/>
<feOffset dx="-6" dy="8"/>
<feGaussianBlur stdDeviation="5"/>
<feComposite in2="hardAlpha" operator="out"/>
<feColorMatrix type="matrix" values="0 0 0 0 0.113725 0 0 0 0 0.886275 0 0 0 0 0.811765 0 0 0 0.25 0"/>
<feBlend mode="normal" in2="BackgroundImageFix" result="effect1_dropShadow_506_6796"/>
<feBlend mode="normal" in="SourceGraphic" in2="effect1_dropShadow_506_6796" result="shape"/>
</filter>
</defs>
</svg>
