<svg width="85" height="85" viewBox="0 0 85 85" fill="none" xmlns="http://www.w3.org/2000/svg">
<g filter="url(#filter0_d_506_6821)">
<rect x="16" y="2" width="65" height="65" rx="32.5" fill="#6001D3" fill-opacity="0.27"/>
<path d="M55.5 25.25H51.3333C51.3333 23.4574 49.8385 22 48 22C46.1615 22 44.6667 23.4574 44.6667 25.25H40.5C39.1198 25.25 38 26.3418 38 27.6875V45.5625C38 46.9082 39.1198 48 40.5 48H55.5C56.8802 48 58 46.9082 58 45.5625V27.6875C58 26.3418 56.8802 25.25 55.5 25.25ZM43 43.5312C42.3073 43.5312 41.75 42.9879 41.75 42.3125C41.75 41.6371 42.3073 41.0938 43 41.0938C43.6927 41.0938 44.25 41.6371 44.25 42.3125C44.25 42.9879 43.6927 43.5312 43 43.5312ZM43 38.6562C42.3073 38.6562 41.75 38.1129 41.75 37.4375C41.75 36.7621 42.3073 36.2188 43 36.2188C43.6927 36.2188 44.25 36.7621 44.25 37.4375C44.25 38.1129 43.6927 38.6562 43 38.6562ZM43 33.7812C42.3073 33.7812 41.75 33.2379 41.75 32.5625C41.75 31.8871 42.3073 31.3438 43 31.3438C43.6927 31.3438 44.25 31.8871 44.25 32.5625C44.25 33.2379 43.6927 33.7812 43 33.7812ZM48 24.0312C48.6927 24.0312 49.25 24.5746 49.25 25.25C49.25 25.9254 48.6927 26.4688 48 26.4688C47.3073 26.4688 46.75 25.9254 46.75 25.25C46.75 24.5746 47.3073 24.0312 48 24.0312ZM54.6667 42.7188C54.6667 42.9422 54.4792 43.125 54.25 43.125H46.75C46.5208 43.125 46.3333 42.9422 46.3333 42.7188V41.9062C46.3333 41.6828 46.5208 41.5 46.75 41.5H54.25C54.4792 41.5 54.6667 41.6828 54.6667 41.9062V42.7188ZM54.6667 37.8438C54.6667 38.0672 54.4792 38.25 54.25 38.25H46.75C46.5208 38.25 46.3333 38.0672 46.3333 37.8438V37.0312C46.3333 36.8078 46.5208 36.625 46.75 36.625H54.25C54.4792 36.625 54.6667 36.8078 54.6667 37.0312V37.8438ZM54.6667 32.9688C54.6667 33.1922 54.4792 33.375 54.25 33.375H46.75C46.5208 33.375 46.3333 33.1922 46.3333 32.9688V32.1562C46.3333 31.9328 46.5208 31.75 46.75 31.75H54.25C54.4792 31.75 54.6667 31.9328 54.6667 32.1562V32.9688Z" fill="#6001D3"/>
</g>
<defs>
<filter id="filter0_d_506_6821" x="0" y="0" width="85" height="85" filterUnits="userSpaceOnUse" color-interpolation-filters="sRGB">
<feFlood flood-opacity="0" result="BackgroundImageFix"/>
<feColorMatrix in="SourceAlpha" type="matrix" values="0 0 0 0 0 0 0 0 0 0 0 0 0 0 0 0 0 0 127 0" result="hardAlpha"/>
<feOffset dx="-6" dy="8"/>
<feGaussianBlur stdDeviation="5"/>
<feComposite in2="hardAlpha" operator="out"/>
<feColorMatrix type="matrix" values="0 0 0 0 0.376471 0 0 0 0 0.00392157 0 0 0 0 0.827451 0 0 0 0.25 0"/>
<feBlend mode="normal" in2="BackgroundImageFix" result="effect1_dropShadow_506_6821"/>
<feBlend mode="normal" in="SourceGraphic" in2="effect1_dropShadow_506_6821" result="shape"/>
</filter>
</defs>
</svg>
