<svg width="67" height="65" viewBox="0 0 67 65" fill="none" xmlns="http://www.w3.org/2000/svg">
<rect opacity="0.1" width="66.2264" height="65" rx="32.5" fill="#1DE2CF"/>
<path d="M40.3889 28.5714C40.3889 23.8357 35.3783 20 29.1944 20C23.0106 20 18 23.8357 18 28.5714C18 30.4089 18.7589 32.1018 20.0451 33.5C19.324 35.1179 18.1345 36.4036 18.1184 36.4196C18 36.5429 17.9677 36.725 18.0377 36.8857C18.1076 37.0464 18.2583 37.1429 18.4306 37.1429C20.4003 37.1429 22.0311 36.4839 23.2043 35.8036C24.9373 36.6446 26.9878 37.1429 29.1944 37.1429C35.3783 37.1429 40.3889 33.3071 40.3889 28.5714ZM46.9549 40.3571C48.2411 38.9643 49 37.2661 49 35.4286C49 31.8446 46.1207 28.775 42.0411 27.4946C42.0896 27.8482 42.1111 28.2071 42.1111 28.5714C42.1111 34.2446 36.3148 38.8571 29.1944 38.8571C28.6132 38.8571 28.0481 38.8143 27.4884 38.7554C29.1837 41.8357 33.1663 44 37.8056 44C40.0122 44 42.0627 43.5071 43.7957 42.6607C44.9689 43.3411 46.5997 44 48.5694 44C48.7417 44 48.8977 43.8982 48.9623 43.7429C49.0323 43.5875 49 43.4054 48.8816 43.2768C48.8654 43.2607 47.676 41.9804 46.9549 40.3571Z" fill="#1DE2CF"/>
</svg>
