<svg width="65" height="65" viewBox="0 0 65 65" fill="none" xmlns="http://www.w3.org/2000/svg">
<rect width="65" height="65" rx="32.5" fill="#6001D3"/>
<path d="M45 22.3138V41.6862C45 42.9877 43.9821 44 42.6857 44H23.3143C22.0339 43.9946 21 42.9984 21 41.6809V22.3138C21 21.023 22.0071 20 23.3143 20H42.6911C43.9768 20 45 21.0069 45 22.3138ZM43.0018 41.6809V22.3138C43.0018 22.1531 42.8625 22.0031 42.6911 22.0031H42.1929L36.2839 25.9987L33 23.326L29.7214 25.9987L23.8125 21.9978H23.3143C23.1429 21.9978 23.0036 22.1477 23.0036 22.3084V41.6809C23.0036 41.8416 23.1429 41.9915 23.3143 41.9915H42.6911C42.8625 41.9969 43.0018 41.8469 43.0018 41.6809ZM29.0464 28.2482V30.2299H25.1089V28.2482H29.0464ZM29.0464 32.233V34.2308H25.1089V32.233H29.0464ZM29.6411 24.3437L32.5339 22.0031H26.1857L29.6411 24.3437ZM40.8911 28.2482V30.2299H30.3911V28.2482H40.8911ZM40.8911 32.233V34.2308H30.3911V32.233H40.8911ZM36.3589 24.3437L39.8143 22.0031H33.4714L36.3589 24.3437ZM40.8911 36.2285V38.2263H35.5661V36.2285H40.8911Z" fill="white"/>
</svg>
