<svg width="71" height="65" viewBox="0 0 71 65" fill="none" xmlns="http://www.w3.org/2000/svg">
<rect opacity="0.1" width="70.2" height="65" rx="32.5" fill="#FD346E"/>
<path d="M40.2857 41V42.875C40.2857 43.4963 39.806 44 39.2143 44H27.0714C26.4797 44 26 43.4963 26 42.875V25.625C26 25.0037 26.4797 24.5 27.0714 24.5H30.2857V38.375C30.2857 39.8225 31.4072 41 32.7857 41H40.2857ZM40.2857 24.875V20H32.7857C32.194 20 31.7143 20.5037 31.7143 21.125V38.375C31.7143 38.9963 32.194 39.5 32.7857 39.5H44.9286C45.5203 39.5 46 38.9963 46 38.375V26H41.3571C40.7679 26 40.2857 25.4938 40.2857 24.875ZM45.6862 23.4205L42.7424 20.3295C42.5414 20.1185 42.2689 20 41.9848 20H41.7143V24.5H46V24.216C46 23.9176 45.8871 23.6315 45.6862 23.4205Z" fill="#FD346E"/>
</svg>
