<svg width="68" height="65" viewBox="0 0 68 65" fill="none" xmlns="http://www.w3.org/2000/svg">
<rect opacity="0.1" width="67.5" height="65" rx="32.5" fill="#FCDC00"/>
<path d="M36.4434 30.9406L31.5674 29.4594C31.003 29.2906 30.6102 28.7422 30.6102 28.1328C30.6102 27.3688 31.2062 26.75 31.9421 26.75H34.9355C35.4863 26.75 36.0281 26.9234 36.4796 27.2422C36.755 27.4344 37.1252 27.3875 37.36 27.1484L38.9311 25.5547C39.2517 25.2312 39.2065 24.6922 38.8499 24.4062C37.7437 23.5062 36.3622 23.0047 34.9445 23V20.75C34.9445 20.3375 34.6194 20 34.2221 20H32.7774C32.3801 20 32.055 20.3375 32.055 20.75V23H31.9421C29.0662 23 26.7546 25.5641 27.0209 28.6063C27.2106 30.7672 28.7998 32.525 30.8044 33.1344L35.4321 34.5406C35.9965 34.7141 36.3893 35.2578 36.3893 35.8672C36.3893 36.6313 35.7933 37.25 35.0574 37.25H32.064C31.5132 37.25 30.9714 37.0766 30.5199 36.7578C30.2445 36.5656 29.8743 36.6125 29.6395 36.8516L28.0684 38.4453C27.7478 38.7687 27.793 39.3078 28.1496 39.5938C29.2558 40.4937 30.6373 40.9953 32.055 41V43.25C32.055 43.6625 32.3801 44 32.7774 44H34.2221C34.6194 44 34.9445 43.6625 34.9445 43.25V40.9906C37.0484 40.9484 39.0214 39.65 39.7167 37.5828C40.6874 34.6953 39.0575 31.7328 36.4434 30.9406Z" fill="#FFD700"/>
</svg>
