<svg width="100" height="100" viewBox="0 0 100 100" fill="none" xmlns="http://www.w3.org/2000/svg">
<g filter="url(#filter0_d_599_695)">
<circle cx="50" cy="30" r="30" fill="#FCDC00"/>
</g>
<path d="M62.6582 38.6162L57.79 33.748C57.5703 33.5283 57.2725 33.4062 56.96 33.4062H56.1641C57.5117 31.6826 58.3125 29.5146 58.3125 27.1562C58.3125 21.5459 53.7666 17 48.1562 17C42.5459 17 38 21.5459 38 27.1562C38 32.7666 42.5459 37.3125 48.1562 37.3125C50.5146 37.3125 52.6826 36.5117 54.4062 35.1641V35.96C54.4062 36.2725 54.5283 36.5703 54.748 36.79L59.6162 41.6582C60.0752 42.1172 60.8174 42.1172 61.2715 41.6582L62.6533 40.2764C63.1123 39.8174 63.1123 39.0752 62.6582 38.6162ZM48.1562 33.4062C44.7041 33.4062 41.9062 30.6133 41.9062 27.1562C41.9062 23.7041 44.6992 20.9062 48.1562 20.9062C51.6084 20.9062 54.4062 23.6992 54.4062 27.1562C54.4062 30.6084 51.6133 33.4062 48.1562 33.4062Z" fill="white"/>
<defs>
<filter id="filter0_d_599_695" x="0" y="0" width="100" height="100" filterUnits="userSpaceOnUse" color-interpolation-filters="sRGB">
<feFlood flood-opacity="0" result="BackgroundImageFix"/>
<feColorMatrix in="SourceAlpha" type="matrix" values="0 0 0 0 0 0 0 0 0 0 0 0 0 0 0 0 0 0 127 0" result="hardAlpha"/>
<feOffset dy="20"/>
<feGaussianBlur stdDeviation="10"/>
<feColorMatrix type="matrix" values="0 0 0 0 0.988235 0 0 0 0 0.862745 0 0 0 0 0 0 0 0 0.2 0"/>
<feBlend mode="normal" in2="BackgroundImageFix" result="effect1_dropShadow_599_695"/>
<feBlend mode="normal" in="SourceGraphic" in2="effect1_dropShadow_599_695" result="shape"/>
</filter>
</defs>
</svg>
