<svg width="100" height="100" viewBox="0 0 100 100" fill="none" xmlns="http://www.w3.org/2000/svg">
<g filter="url(#filter0_d_599_703)">
<circle cx="50" cy="30" r="30" fill="#FF1E38"/>
</g>
<path d="M49.9375 29.5C53.3896 29.5 56.1875 26.7021 56.1875 23.25C56.1875 19.7979 53.3896 17 49.9375 17C46.4854 17 43.6875 19.7979 43.6875 23.25C43.6875 26.7021 46.4854 29.5 49.9375 29.5ZM54.6152 31.0918L52.2812 40.4375L50.7188 33.7969L52.2812 31.0625H47.5938L49.1562 33.7969L47.5938 40.4375L45.2598 31.0918C41.7783 31.2578 39 34.1045 39 37.625V39.6562C39 40.9502 40.0498 42 41.3438 42H58.5312C59.8252 42 60.875 40.9502 60.875 39.6562V37.625C60.875 34.1045 58.0967 31.2578 54.6152 31.0918Z" fill="white"/>
<defs>
<filter id="filter0_d_599_703" x="0" y="0" width="100" height="100" filterUnits="userSpaceOnUse" color-interpolation-filters="sRGB">
<feFlood flood-opacity="0" result="BackgroundImageFix"/>
<feColorMatrix in="SourceAlpha" type="matrix" values="0 0 0 0 0 0 0 0 0 0 0 0 0 0 0 0 0 0 127 0" result="hardAlpha"/>
<feOffset dy="20"/>
<feGaussianBlur stdDeviation="10"/>
<feColorMatrix type="matrix" values="0 0 0 0 1 0 0 0 0 0.117647 0 0 0 0 0.219608 0 0 0 0.2 0"/>
<feBlend mode="normal" in2="BackgroundImageFix" result="effect1_dropShadow_599_703"/>
<feBlend mode="normal" in="SourceGraphic" in2="effect1_dropShadow_599_703" result="shape"/>
</filter>
</defs>
</svg>
