<svg width="100" height="100" viewBox="0 0 100 100" fill="none" xmlns="http://www.w3.org/2000/svg">
<g filter="url(#filter0_d_590_447)">
<circle cx="50" cy="30" r="30" fill="#FF5200"/>
</g>
<path d="M57.7451 32.053L58.9121 28.9964C59.1074 28.4837 58.7314 27.9368 58.1797 27.9368H55.3232C55.8604 27.0139 56.1924 25.9544 56.1924 24.8118V24.7971C58.1064 24.4163 59.3174 23.8645 59.3174 23.2493C59.3174 22.5999 57.9844 22.0237 55.8945 21.638C55.4453 20.0364 54.5762 18.4251 53.9121 17.595C53.4482 17.0139 52.6475 16.8333 51.9834 17.1653L50.6357 17.8391C50.1963 18.0589 49.6787 18.0589 49.2393 17.8391L47.8916 17.1653C47.2275 16.8333 46.4268 17.0139 45.9629 17.595C45.3037 18.4251 44.4297 20.0364 43.9805 21.638C41.8955 22.0237 40.5625 22.5999 40.5625 23.2493C40.5625 23.8645 41.7734 24.4163 43.6875 24.7971V24.8118C43.6875 25.9544 44.0195 27.0139 44.5566 27.9368H41.749C41.1875 27.9368 40.8115 28.5081 41.0312 29.0257L42.291 31.9651C40.333 33.1028 39 35.1975 39 37.6243V39.8118C39 41.0178 39.9814 41.9993 41.1875 41.9993H58.6875C59.8936 41.9993 60.875 41.0178 60.875 39.8118V37.6243C60.875 35.261 59.6152 33.2102 57.7451 32.053ZM47.5938 40.4368L45.5625 31.0618L47.9844 32.6243L49.1562 34.5774L47.5938 40.4368ZM52.2812 40.4368L50.7188 34.5774L51.8906 32.6243L54.3125 31.0618L52.2812 40.4368ZM54.3174 25.8616C54.127 26.4426 53.9756 27.0628 53.5117 27.4925C53.0186 27.9466 51.168 28.5862 50.3867 26.2717C50.25 25.8616 49.6348 25.8616 49.4932 26.2717C48.6631 28.7229 46.7588 27.8538 46.3682 27.4925C45.9043 27.0628 45.748 26.4426 45.5625 25.8616C45.5234 25.7395 45.2549 25.5833 45.2549 25.5784V25.051C46.6367 25.2268 48.2334 25.3342 49.9424 25.3342C51.6514 25.3342 53.248 25.2317 54.6299 25.051V25.5784C54.625 25.5833 54.3564 25.7346 54.3174 25.8616Z" fill="white"/>
<defs>
<filter id="filter0_d_590_447" x="0" y="0" width="100" height="100" filterUnits="userSpaceOnUse" color-interpolation-filters="sRGB">
<feFlood flood-opacity="0" result="BackgroundImageFix"/>
<feColorMatrix in="SourceAlpha" type="matrix" values="0 0 0 0 0 0 0 0 0 0 0 0 0 0 0 0 0 0 127 0" result="hardAlpha"/>
<feOffset dy="20"/>
<feGaussianBlur stdDeviation="10"/>
<feColorMatrix type="matrix" values="0 0 0 0 1 0 0 0 0 0.911128 0 0 0 0 0.804167 0 0 0 1 0"/>
<feBlend mode="normal" in2="BackgroundImageFix" result="effect1_dropShadow_590_447"/>
<feBlend mode="normal" in="SourceGraphic" in2="effect1_dropShadow_590_447" result="shape"/>
</filter>
</defs>
</svg>
