<svg width="100" height="100" viewBox="0 0 100 100" fill="none" xmlns="http://www.w3.org/2000/svg">
<g filter="url(#filter0_d_1_2169)">
<circle cx="50" cy="30" r="30" fill="#FCDC00"/>
</g>
<path d="M61 38.6157L53.7911 31.9713C54.7732 30.7255 55.3576 29.1939 55.3576 27.5418C55.3576 23.3846 51.6893 19.9999 47.1813 19.9999C42.6683 19.9955 39 23.3801 39 27.5373C39 31.6945 42.6683 35.0792 47.1763 35.0792C49.1308 35.0792 50.9232 34.4451 52.3326 33.3868L59.5022 39.9999L61 38.6157ZM47.1763 33.3377C43.7094 33.3377 40.8857 30.7345 40.8857 27.5373C40.8857 24.3402 43.7094 21.7369 47.1763 21.7369C50.6433 21.7369 53.467 24.3402 53.467 27.5373C53.467 30.7345 50.6482 33.3377 47.1763 33.3377Z" fill="white"/>
<defs>
<filter id="filter0_d_1_2169" x="0" y="0" width="100" height="100" filterUnits="userSpaceOnUse" color-interpolation-filters="sRGB">
<feFlood flood-opacity="0" result="BackgroundImageFix"/>
<feColorMatrix in="SourceAlpha" type="matrix" values="0 0 0 0 0 0 0 0 0 0 0 0 0 0 0 0 0 0 127 0" result="hardAlpha"/>
<feOffset dy="20"/>
<feGaussianBlur stdDeviation="10"/>
<feColorMatrix type="matrix" values="0 0 0 0 0.988235 0 0 0 0 0.862745 0 0 0 0 0 0 0 0 0.2 0"/>
<feBlend mode="normal" in2="BackgroundImageFix" result="effect1_dropShadow_1_2169"/>
<feBlend mode="normal" in="SourceGraphic" in2="effect1_dropShadow_1_2169" result="shape"/>
</filter>
</defs>
</svg>
