<svg width="100" height="100" viewBox="0 0 100 100" fill="none" xmlns="http://www.w3.org/2000/svg">
<g filter="url(#filter0_d_1_2181)">
<circle cx="50" cy="30" r="30" fill="#0041FF"/>
</g>
<path d="M36 29.5V35.25C36 36.0451 36.648 36.6875 37.45 36.6875H38.9V28.0625H37.45C36.648 28.0625 36 28.7049 36 29.5ZM57.025 22.3125H51.95V19.4375C51.95 18.6424 51.302 18 50.5 18C49.698 18 49.05 18.6424 49.05 19.4375V22.3125H43.975C41.9722 22.3125 40.35 23.9207 40.35 25.9062V38.125C40.35 39.7107 41.6505 41 43.25 41H57.75C59.3495 41 60.65 39.7107 60.65 38.125V25.9062C60.65 23.9207 59.0278 22.3125 57.025 22.3125ZM47.6 36.6875H44.7V35.25H47.6V36.6875ZM46.15 31.2969C45.1486 31.2969 44.3375 30.4928 44.3375 29.5C44.3375 28.5072 45.1486 27.7031 46.15 27.7031C47.1514 27.7031 47.9625 28.5072 47.9625 29.5C47.9625 30.4928 47.1514 31.2969 46.15 31.2969ZM51.95 36.6875H49.05V35.25H51.95V36.6875ZM56.3 36.6875H53.4V35.25H56.3V36.6875ZM54.85 31.2969C53.8486 31.2969 53.0375 30.4928 53.0375 29.5C53.0375 28.5072 53.8486 27.7031 54.85 27.7031C55.8514 27.7031 56.6625 28.5072 56.6625 29.5C56.6625 30.4928 55.8514 31.2969 54.85 31.2969ZM63.55 28.0625H62.1V36.6875H63.55C64.352 36.6875 65 36.0451 65 35.25V29.5C65 28.7049 64.352 28.0625 63.55 28.0625Z" fill="white"/>
<defs>
<filter id="filter0_d_1_2181" x="0" y="0" width="100" height="100" filterUnits="userSpaceOnUse" color-interpolation-filters="sRGB">
<feFlood flood-opacity="0" result="BackgroundImageFix"/>
<feColorMatrix in="SourceAlpha" type="matrix" values="0 0 0 0 0 0 0 0 0 0 0 0 0 0 0 0 0 0 127 0" result="hardAlpha"/>
<feOffset dy="20"/>
<feGaussianBlur stdDeviation="10"/>
<feColorMatrix type="matrix" values="0 0 0 0 0 0 0 0 0 0.254902 0 0 0 0 1 0 0 0 0.2 0"/>
<feBlend mode="normal" in2="BackgroundImageFix" result="effect1_dropShadow_1_2181"/>
<feBlend mode="normal" in="SourceGraphic" in2="effect1_dropShadow_1_2181" result="shape"/>
</filter>
</defs>
</svg>
